<svg width="20" height="20" viewBox="0 0 20 20" fill="none" xmlns="http://www.w3.org/2000/svg">
<path d="M10 20C15.5228 20 20 15.5228 20 10C20 4.47715 15.5228 0 10 0C4.47715 0 0 4.47715 0 10C0 15.5228 4.47715 20 10 20Z" fill="#FFEE1D"/>
<path d="M10.6479 2.58043C13.3124 2.58043 15.6845 3.82677 17.2159 5.76756C15.7612 3.29315 13.0748 1.63379 10.001 1.63379C5.38111 1.63379 1.63477 5.38013 1.63477 10C1.63477 11.9554 2.30728 13.7537 3.43301 15.1755C2.70202 13.9328 2.2817 12.4891 2.2817 10.943C2.2817 6.32312 6.02804 2.57677 10.6479 2.57677V2.58043Z" fill="#D39C11"/>
<path d="M10.0005 18.362C14.6204 18.362 18.3668 14.6156 18.3668 9.99576C18.3668 8.45336 17.9465 7.006 17.2155 5.76331C15.684 3.82252 13.312 2.57617 10.6475 2.57617C6.02759 2.57617 2.28125 6.32252 2.28125 10.9424C2.28125 12.4848 2.70157 13.9322 3.43257 15.1749C4.964 17.1156 7.33607 18.362 10.0005 18.362Z" fill="#EDB61D"/>
<path d="M5.12668 14.2623C5.12668 14.2623 5.61279 14.9056 6.31089 14.5437C7.00899 14.1819 7.79846 13.1914 7.79846 13.1914C7.79846 13.1914 8.61352 10.3515 9.05577 9.55836C9.72463 8.35587 10.4922 7.83321 10.4922 7.83321C10.4922 7.83321 11.0221 7.33248 11.786 7.35441C12.5499 7.37634 13.047 7.10587 13.4746 7.53351C13.9023 7.96114 14.7356 8.89681 14.7356 8.89681C14.7356 8.89681 13.873 11.5284 12.3562 13.4765C9.79408 16.766 6.691 16.3237 5.83574 15.6695C4.98048 15.0152 5.12668 14.2623 5.12668 14.2623Z" fill="#D39C11"/>
<mask id="mask0_1813_1004" style="mask-type:luminance" maskUnits="userSpaceOnUse" x="5" y="7" width="10" height="10">
<path d="M5.12668 14.2623C5.12668 14.2623 5.61279 14.9056 6.31089 14.5437C7.00899 14.1819 7.79846 13.1914 7.79846 13.1914C7.79846 13.1914 8.61352 10.3515 9.05577 9.55836C9.72463 8.35587 10.4922 7.83321 10.4922 7.83321C10.4922 7.83321 11.0221 7.33248 11.786 7.35441C12.5499 7.37634 13.047 7.10587 13.4746 7.53351C13.9023 7.96114 14.7356 8.89681 14.7356 8.89681C14.7356 8.89681 13.873 11.5284 12.3562 13.4765C9.79408 16.766 6.691 16.3237 5.83574 15.6695C4.98048 15.0152 5.12668 14.2623 5.12668 14.2623Z" fill="white"/>
</mask>
<g mask="url(#mask0_1813_1004)">
<path d="M4.92611 13.4593C4.92611 13.4593 5.28064 15.3489 6.315 15.4732C7.34936 15.5975 9.31939 15.3782 11.2675 13.3606C13.2156 11.3431 14.8128 5.87891 14.8128 5.87891L15.6571 9.92861L13.614 15.3416C13.614 15.3416 9.2938 17.2203 7.29819 16.5405C5.30257 15.8606 4.2207 14.6143 4.2207 14.6143L4.92246 13.463L4.92611 13.4593Z" fill="#D39C11"/>
<path opacity="0.37" d="M9.90591 9.28505C9.90591 9.28505 10.4322 8.78797 10.4505 8.72218C10.4688 8.65639 11.3533 8.65639 10.7063 9.80405C10.0594 10.9517 9.10547 11.3318 9.10547 11.3318C9.10547 11.3318 9.1274 10.4948 9.90591 9.28505Z" fill="#D39C11"/>
</g>
<path d="M9.77073 7.98246C9.77073 7.98246 9.85114 7.65351 10.5054 7.15278C11.1596 6.65205 11.4776 6.56068 11.8321 6.49123C12.0368 6.45103 12.2269 6.57164 12.5412 6.68495C12.8555 6.79825 12.8555 6.95541 13.1187 6.45103C13.4111 5.88085 13.5244 4.94152 13.5244 4.94152C13.5244 4.94152 13.8826 4.72588 14.0105 5.33261C14.069 5.59576 14.0251 5.87354 13.9228 6.12573C13.8058 6.41082 13.6962 6.67033 13.6962 6.67033C13.6962 6.67033 13.5792 6.99562 13.8022 7.01755C14.0251 7.03948 14.3468 7.13451 14.4747 7.29898C14.6318 7.5 14.7963 7.80702 14.8731 8.32603C14.9498 8.84503 15.0229 9.68933 15.0229 9.68933C15.0229 9.68933 14.6757 9.65644 13.9995 9.04971C13.7291 8.80848 13.656 8.54167 13.5427 8.43202C13.4001 8.29313 13.1735 8.32237 13.0565 8.48319C12.2269 9.65278 11.3058 9.28728 11.3058 9.28728C11.8321 8.70249 11.9052 7.83261 11.9052 7.83261C11.9052 7.83261 10.8965 8.28948 9.75977 7.99343L9.77073 7.98246Z" fill="#D39C11"/>
<mask id="mask1_1813_1004" style="mask-type:luminance" maskUnits="userSpaceOnUse" x="9" y="4" width="7" height="6">
<path d="M9.77073 7.98246C9.77073 7.98246 9.85114 7.65351 10.5054 7.15278C11.1596 6.65205 11.4776 6.56068 11.8321 6.49123C12.0368 6.45103 12.2269 6.57164 12.5412 6.68495C12.8555 6.79825 12.8555 6.95541 13.1187 6.45103C13.4111 5.88085 13.5244 4.94152 13.5244 4.94152C13.5244 4.94152 13.8826 4.72588 14.0105 5.33261C14.069 5.59576 14.0251 5.87354 13.9228 6.12573C13.8058 6.41082 13.6962 6.67033 13.6962 6.67033C13.6962 6.67033 13.5792 6.99562 13.8022 7.01755C14.0251 7.03948 14.3468 7.13451 14.4747 7.29898C14.6318 7.5 14.7963 7.80702 14.8731 8.32603C14.9498 8.84503 15.0229 9.68933 15.0229 9.68933C15.0229 9.68933 14.6757 9.65644 13.9995 9.04971C13.7291 8.80848 13.656 8.54167 13.5427 8.43202C13.4001 8.29313 13.1735 8.32237 13.0565 8.48319C12.2269 9.65278 11.3058 9.28728 11.3058 9.28728C11.8321 8.70249 11.9052 7.83261 11.9052 7.83261C11.9052 7.83261 10.8965 8.28948 9.75977 7.99343L9.77073 7.98246Z" fill="white"/>
</mask>
<g mask="url(#mask1_1813_1004)">
<path d="M9.55859 8.02252C9.55859 8.02252 10.9987 7.73012 11.3751 7.63875C11.8064 7.53641 11.9965 7.42676 11.9965 7.42676C11.9965 7.42676 11.8685 7.52544 11.9161 7.8215C11.9855 8.27471 9.55859 8.02252 9.55859 8.02252Z" fill="#D39C11"/>
<path d="M13.904 8.48644C13.7213 7.91992 13.0853 7.91992 13.0853 7.91992C13.0853 7.91992 12.8477 9.07855 11.1445 9.34536C11.1445 9.34536 13.7725 10.6209 13.7396 10.1348C13.6957 9.52445 15.7608 10.2554 15.165 9.78761C14.4669 9.23571 14.1051 9.09682 13.904 8.48644Z" fill="#D39C11"/>
<path d="M14.1435 6.91539C13.8036 7.01407 13.6026 7.03235 13.5331 6.93366C13.4637 6.83498 13.6026 6.49872 13.7268 6.24287C13.8511 5.98702 13.895 5.30355 13.8146 5.161C13.7341 5.01846 13.7268 4.95998 13.5222 4.9417C13.3613 4.92708 13.3358 4.71875 13.5587 4.71875C13.7817 4.71875 14.3847 5.161 14.3847 5.59594C14.3847 6.03089 14.1435 6.91539 14.1435 6.91539Z" fill="#D39C11"/>
</g>
<path d="M4.70151 13.7537C4.70151 13.7537 5.24244 14.609 5.94054 14.2508C6.63864 13.8926 7.42812 12.8984 7.42812 12.8984C7.42812 12.8984 8.24318 10.0585 8.68543 9.26539C9.35429 8.06291 10.1218 7.54024 10.1218 7.54024C10.1218 7.54024 10.6518 7.03951 11.4157 7.06144C12.1796 7.08337 12.6767 6.81291 13.1043 7.24054C13.5319 7.66817 14.3653 8.60384 14.3653 8.60384C14.3653 8.60384 13.5027 11.2354 11.9859 13.1835C9.42373 16.473 6.32066 16.0307 5.4654 15.3765C4.61013 14.7223 4.69785 13.7537 4.69785 13.7537H4.70151Z" fill="#FFEE1D"/>
<mask id="mask2_1813_1004" style="mask-type:luminance" maskUnits="userSpaceOnUse" x="4" y="6" width="11" height="10">
<path d="M4.70346 13.7537C4.70346 13.7537 5.2444 14.609 5.9425 14.2508C6.6406 13.8926 7.43007 12.8984 7.43007 12.8984C7.43007 12.8984 8.24513 10.0585 8.68738 9.26539C9.35624 8.06291 10.1238 7.54024 10.1238 7.54024C10.1238 7.54024 10.6538 7.03951 11.4176 7.06144C12.1815 7.08337 12.6786 6.81291 13.1062 7.24054C13.5339 7.66817 14.3672 8.60384 14.3672 8.60384C14.3672 8.60384 13.5046 11.2354 11.9878 13.1835C9.42568 16.473 6.32261 16.0307 5.46735 15.3765C4.61209 14.7223 4.69981 13.7537 4.69981 13.7537H4.70346Z" fill="white"/>
</mask>
<g mask="url(#mask2_1813_1004)">
<path d="M4.55893 13.1615C4.55893 13.1615 4.91346 15.0511 5.94781 15.1754C6.98217 15.2996 8.9522 15.0803 10.9003 13.0628C12.8484 11.0452 14.4456 5.58105 14.4456 5.58105L15.2899 9.63076L13.2468 15.0438C13.2468 15.0438 8.92662 16.9224 6.931 16.2426C4.93539 15.5628 3.85352 14.3164 3.85352 14.3164L4.55527 13.1651L4.55893 13.1615Z" fill="#E9C517"/>
<path opacity="0.37" d="M9.54067 8.9872C9.54067 8.9872 10.067 8.49012 10.0853 8.42433C10.1035 8.35854 10.988 8.35854 10.3411 9.5062C9.69418 10.6539 8.74023 11.034 8.74023 11.034C8.74023 11.034 8.76216 10.197 9.54067 8.9872Z" fill="#FFFBD2"/>
</g>
<path d="M9.48362 7.44242C9.48362 7.44242 9.56403 7.11347 10.2183 6.61274C10.8725 6.11201 11.1905 6.02064 11.545 5.95119C11.7497 5.91099 11.9398 6.0316 12.2541 6.14491C12.5684 6.25821 12.5684 6.41537 12.8316 5.91099C13.124 5.34081 13.2373 4.40149 13.2373 4.40149C13.2373 4.40149 13.5955 4.18584 13.7234 4.79257C13.7819 5.05572 13.738 5.3335 13.6357 5.5857C13.5187 5.87078 13.4091 6.13029 13.4091 6.13029C13.4091 6.13029 13.2921 6.45558 13.5151 6.47751C13.738 6.49944 14.0596 6.59447 14.1876 6.75894C14.3447 6.95996 14.5092 7.26698 14.586 7.78599C14.6627 8.30499 14.7358 9.14929 14.7358 9.14929C14.7358 9.14929 14.3886 9.1164 13.7124 8.50967C13.442 8.26844 13.3689 8.00163 13.2556 7.89198C13.113 7.75309 12.8864 7.78233 12.7694 7.94315C11.9398 9.11274 11.0187 8.74725 11.0187 8.74725C11.545 8.16245 11.6181 7.29257 11.6181 7.29257C11.6181 7.29257 10.6094 7.74944 9.47266 7.45339L9.48362 7.44242Z" fill="#FFEE1D"/>
<mask id="mask3_1813_1004" style="mask-type:luminance" maskUnits="userSpaceOnUse" x="9" y="4" width="6" height="6">
<path d="M9.48557 7.4434C9.48557 7.4434 9.56598 7.11445 10.2202 6.61372C10.8745 6.11299 11.1924 6.02161 11.547 5.95217C11.7517 5.91196 11.9417 6.03258 12.256 6.14588C12.5704 6.25919 12.5704 6.41635 12.8335 5.91196C13.1259 5.34179 13.2392 4.40246 13.2392 4.40246C13.2392 4.40246 13.5974 4.18682 13.7253 4.79354C13.7838 5.0567 13.74 5.33448 13.6376 5.58667C13.5207 5.87176 13.411 6.13126 13.411 6.13126C13.411 6.13126 13.2941 6.45656 13.517 6.47849C13.74 6.50042 14.0616 6.59544 14.1895 6.75992C14.3467 6.96094 14.5112 7.26796 14.5879 7.78696C14.6647 8.30597 14.7378 9.15027 14.7378 9.15027C14.7378 9.15027 14.3905 9.11737 13.7144 8.51065C13.4439 8.26942 13.3708 8.00261 13.2575 7.89296C13.115 7.75407 12.8884 7.78331 12.7714 7.94413C11.9417 9.11372 11.0207 8.74822 11.0207 8.74822C11.547 8.16343 11.6201 7.29354 11.6201 7.29354C11.6201 7.29354 10.6113 7.75042 9.47461 7.45436L9.48557 7.4434Z" fill="white"/>
</mask>
<g mask="url(#mask3_1813_1004)">
<path d="M9.27148 7.48639C9.27148 7.48639 10.7115 7.19399 11.088 7.10261C11.5193 7.00027 11.7093 6.89062 11.7093 6.89062C11.7093 6.89062 11.5814 6.98931 11.6289 7.28536C11.6984 7.73858 9.27148 7.48639 9.27148 7.48639Z" fill="#E9C517"/>
<path d="M13.6169 7.9464C13.4342 7.37988 12.7982 7.37988 12.7982 7.37988C12.7982 7.37988 12.5606 8.53851 10.8574 8.80532C10.8574 8.80532 13.4853 10.0809 13.4525 9.59479C13.4086 8.98441 15.4736 9.71541 14.8779 9.24757C14.1798 8.69567 13.8179 8.55678 13.6169 7.9464Z" fill="#E9C517"/>
<path d="M13.8564 6.37535C13.5165 6.47403 13.3155 6.49231 13.246 6.39362C13.1766 6.29494 13.3155 5.95868 13.4397 5.70283C13.564 5.44699 13.6079 4.76351 13.5274 4.62096C13.447 4.47842 13.4397 4.41994 13.235 4.40166C13.0742 4.38704 13.0486 4.17871 13.2716 4.17871C13.4945 4.17871 14.0976 4.62096 14.0976 5.0559C14.0976 5.49085 13.8564 6.37535 13.8564 6.37535Z" fill="#E9C517"/>
</g>
</svg>
