<svg width="1049" height="379" viewBox="0 0 1049 379" fill="none" xmlns="http://www.w3.org/2000/svg">
<g filter="url(#filter0_i_1819_1059)">
<path d="M2.80139 350.72C0.967691 347.63 0 344.104 0 340.512V129V20C0 8.95431 8.95431 0 20 0H1029C1040.05 0 1049 8.9543 1049 20V326.42C1049 337.3 1040.3 346.185 1029.42 346.416L24.725 367.752C17.5157 367.905 10.7823 364.166 7.1018 357.965L2.80139 350.72Z" fill="#3B250F"/>
<path d="M2.80139 350.72C0.967691 347.63 0 344.104 0 340.512V129V20C0 8.95431 8.95431 0 20 0H1029C1040.05 0 1049 8.9543 1049 20V326.42C1049 337.3 1040.3 346.185 1029.42 346.416L24.725 367.752C17.5157 367.905 10.7823 364.166 7.1018 357.965L2.80139 350.72Z" fill="url(#paint0_linear_1819_1059)"/>
</g>
<g filter="url(#filter1_i_1819_1059)">
<path d="M7 341.051V135.827V22C7 13.7157 13.7157 7 22 7H1026C1034.28 7 1041 13.7157 1041 22V337.915C1041 346.049 1034.52 352.702 1026.38 352.91L22.3838 378.606C13.952 378.822 7 372.046 7 363.611V341.051Z" fill="#4C2C10"/>
<path d="M7 341.051V135.827V22C7 13.7157 13.7157 7 22 7H1026C1034.28 7 1041 13.7157 1041 22V337.915C1041 346.049 1034.52 352.702 1026.38 352.91L22.3838 378.606C13.952 378.822 7 372.046 7 363.611V341.051Z" fill="url(#paint1_linear_1819_1059)"/>
</g>
<defs>
<filter id="filter0_i_1819_1059" x="0" y="0" width="1050" height="369.757" filterUnits="userSpaceOnUse" color-interpolation-filters="sRGB">
<feFlood flood-opacity="0" result="BackgroundImageFix"/>
<feBlend mode="normal" in="SourceGraphic" in2="BackgroundImageFix" result="shape"/>
<feColorMatrix in="SourceAlpha" type="matrix" values="0 0 0 0 0 0 0 0 0 0 0 0 0 0 0 0 0 0 127 0" result="hardAlpha"/>
<feOffset dx="1" dy="2"/>
<feGaussianBlur stdDeviation="1.3"/>
<feComposite in2="hardAlpha" operator="arithmetic" k2="-1" k3="1"/>
<feColorMatrix type="matrix" values="0 0 0 0 0.870588 0 0 0 0 0.509804 0 0 0 0 0.172549 0 0 0 0.19 0"/>
<feBlend mode="normal" in2="shape" result="effect1_innerShadow_1819_1059"/>
</filter>
<filter id="filter1_i_1819_1059" x="7" y="7" width="1037" height="375.611" filterUnits="userSpaceOnUse" color-interpolation-filters="sRGB">
<feFlood flood-opacity="0" result="BackgroundImageFix"/>
<feBlend mode="normal" in="SourceGraphic" in2="BackgroundImageFix" result="shape"/>
<feColorMatrix in="SourceAlpha" type="matrix" values="0 0 0 0 0 0 0 0 0 0 0 0 0 0 0 0 0 0 127 0" result="hardAlpha"/>
<feOffset dx="3" dy="5"/>
<feGaussianBlur stdDeviation="2"/>
<feComposite in2="hardAlpha" operator="arithmetic" k2="-1" k3="1"/>
<feColorMatrix type="matrix" values="0 0 0 0 0.227451 0 0 0 0 0.129412 0 0 0 0 0.0431373 0 0 0 0.62 0"/>
<feBlend mode="normal" in2="shape" result="effect1_innerShadow_1819_1059"/>
</filter>
<linearGradient id="paint0_linear_1819_1059" x1="1049" y1="184" x2="-1.70811e-05" y2="184" gradientUnits="userSpaceOnUse">
<stop stop-color="#532F0F"/>
<stop offset="1" stop-color="#65370F"/>
</linearGradient>
<linearGradient id="paint1_linear_1819_1059" x1="524" y1="344" x2="524" y2="7.00004" gradientUnits="userSpaceOnUse">
<stop stop-color="#3C2009"/>
<stop offset="1" stop-color="#723E10"/>
</linearGradient>
</defs>
</svg>
