<svg width="288" height="79" viewBox="0 0 288 79" fill="none" xmlns="http://www.w3.org/2000/svg">
<path d="M44.5022 4.42937e-07H60.5686L61.9007 0.815557L63.9396 4.42937e-07H86.8567L88.6781 0.652444L91.8316 4.42937e-07H243.498C255.269 4.42937e-07 264.92 5.46423 272.64 14.0819C276.99 18.9481 280.443 24.4667 283.487 30.2028L283.27 31.6436L284.765 32.6766C285.472 34.054 286.161 35.4495 286.831 36.8631L288 39.3098L286.831 41.7837C282.944 49.8849 278.675 57.8229 272.64 64.5649C264.92 73.1826 255.269 78.6196 243.498 78.6196H219.167L217.318 77.94L215.198 78.6196H44.5022C32.731 78.6196 23.0802 73.1826 15.3596 64.5649C13.647 62.6619 12.0702 60.6502 10.6022 58.5569L10.6838 56.7355L8.91676 56.0559C5.98076 51.516 3.5069 46.677 1.16898 41.7837L0 39.3098L1.16898 36.8631C5.02928 28.7348 9.32452 20.7967 15.3596 14.0819C23.0802 5.46423 32.731 4.42937e-07 44.5022 4.42937e-07Z" fill="#71451F"/>
<path d="M44.5039 5.73633H59.6733L60.0539 6.25285L61.0054 5.73633H83.5963L84.0856 6.5247L85.9886 5.73633H243.5C260.898 5.73633 271.392 19.8726 277.862 31.7798L277.508 32.4594L278.46 32.8943C279.656 35.1779 280.716 37.3527 281.64 39.3101C275.768 51.6793 264.84 72.911 243.5 72.911H220.175L219.414 72.2041L218.027 72.911H44.5039C31.156 72.911 21.8859 64.6195 15.3614 55.3765L15.4973 53.9901L14.1381 53.5551C10.8215 48.5802 8.29327 43.4422 6.33594 39.3101C12.2079 26.968 23.1635 5.73633 44.5039 5.73633Z" fill="#B3B3B3"/>
<path d="M6.33594 39.3101H281.64C280.716 37.3527 279.656 35.1779 278.46 32.8943L277.508 32.4594L277.862 31.7798C271.392 19.8726 260.898 5.73633 243.5 5.73633H85.9886L84.0856 6.5247L83.5963 5.73633H61.0054L60.0539 6.25285L59.6733 5.73633H44.5039C23.1635 5.73633 12.2079 26.968 6.33594 39.3101Z" fill="url(#paint0_linear_1840_1100)"/>
<path d="M281.64 39.3101H6.33594C8.29327 43.4422 10.8215 48.5802 14.1381 53.5551L15.4973 53.9901L15.3614 55.3765C21.8859 64.6195 31.156 72.911 44.5039 72.911H218.027L219.414 72.2041L220.175 72.911H243.5C264.84 72.911 275.768 51.6793 281.64 39.3101Z" fill="url(#paint1_linear_1840_1100)"/>
<path d="M15.6055 39.3097C21.4775 51.0809 30.1767 64.592 44.5033 64.592H243.499C257.826 64.592 266.498 51.0809 272.397 39.3097C266.498 27.5657 257.826 14.0547 243.499 14.0547H44.5033C30.1767 14.0547 21.4775 27.5657 15.6055 39.3097Z" fill="url(#paint2_linear_1840_1100)"/>
<path d="M7.55859 39.3094C10.0959 39.1825 12.6422 39.0466 15.1976 38.9016C22.7279 25.3362 29.1708 13.6738 45.2916 13.7553L104.882 14.0543L45.4547 14.4078C29.198 14.4893 22.9182 26.5324 16.0947 39.255C17.5899 42.5716 19.1938 45.6979 20.9881 48.8514C18.7317 45.8067 16.9375 42.7619 15.1976 39.7444C12.6422 39.5994 10.0959 39.4544 7.55859 39.3094Z" fill="url(#paint3_radial_1840_1100)" style="mix-blend-mode:screen"/>
<path d="M83.5949 5.73633C81.7735 8.50922 78.2666 12.6142 76.2549 14.055C69.2411 18.0512 61.6836 21.2863 53.7728 23.7873C50.1571 26.4515 46.324 28.8438 42.0015 30.9098C42.1375 28.6806 42.7084 26.0709 43.2249 24.4941C48.0367 21.6125 54.6155 16.8007 57.633 14.055C58.2311 11.6083 59.0195 8.69952 60.0525 6.25285C59.9257 6.08974 59.7988 5.91756 59.6719 5.73633C58.2583 8.31892 57.3884 11.554 56.7631 14.055C52.5494 17.9697 47.8464 21.2047 42.7084 24.1407C42.0831 26.5058 41.6753 28.9253 41.5666 31.372C40.887 31.97 39.718 32.6769 38.8753 32.9759C33.1664 38.4129 23.9778 47.5744 21.4224 49.5045C19.3563 51.1084 16.8824 52.4133 14.1367 53.5551L15.496 53.9901C17.5621 52.5492 19.9544 51.2715 21.9661 50.3201C30.6381 41.4033 37.9781 34.1449 41.9744 31.671C45.9706 29.1428 50.5105 26.9136 54.0174 24.2223C61.9827 21.4766 70.7091 17.6706 77.886 14.055C79.7074 11.5268 81.8551 8.7267 84.0843 6.5247C83.9211 6.27097 83.758 6.00818 83.5949 5.73633Z" fill="url(#paint4_radial_1840_1100)" style="mix-blend-mode:multiply"/>
<path d="M84.0843 6.5247C81.8551 8.7267 79.7074 11.5268 77.886 14.055C70.7091 17.6706 61.9827 21.4766 54.0174 24.2223C50.5105 26.9136 45.9706 29.1428 41.9744 31.671C37.9781 34.1449 30.6381 41.4033 21.9661 50.3201C19.9544 51.2715 17.5621 52.5492 15.496 53.9901L15.3594 55.3765C17.208 53.392 20.008 51.7881 22.4819 51.0541C27.9461 44.9102 35.3677 36.6459 42.1912 32.0244C46.5136 29.4418 50.8904 26.9952 54.2342 24.6572C62.8791 21.6125 71.1978 18.2143 79.1087 14.055C80.5223 10.9287 83.6486 7.63929 85.9865 5.73633C85.3522 6.00818 84.7186 6.27097 84.0843 6.5247Z" fill="url(#paint5_radial_1840_1100)" style="mix-blend-mode:screen"/>
<path d="M60.0508 6.25285C59.0178 8.69952 58.2294 11.6083 57.6313 14.055C54.6138 16.8007 48.0349 21.6125 43.2232 24.4941C42.6523 26.2612 42.027 29.3059 41.9727 31.671C42.1176 31.3448 42.2626 31.0276 42.4076 30.7195C42.5979 28.5991 43.0057 26.7505 43.6581 24.8203C48.8777 21.5309 53.9613 18.024 58.4741 14.055C58.909 11.0918 59.5071 8.29174 61.0023 5.73633C60.6942 5.91756 60.377 6.08974 60.0508 6.25285Z" fill="url(#paint6_radial_1840_1100)" style="mix-blend-mode:screen"/>
<path d="M269.244 33.4648C265.629 36.4008 261.497 40.6417 257.12 45.5894C247.415 51.8963 235.372 58.9101 223.6 64.5918C221.371 67.2016 219.604 70.0021 218.027 72.911C218.48 72.6754 218.942 72.4398 219.414 72.2041C220.909 69.4856 222.676 66.9841 224.552 64.5918C231.267 62.0636 246.98 52.6303 257.582 45.97C261.252 41.8922 265.33 38.0047 269.734 34.3075C272.316 33.492 274.926 32.84 277.508 32.4594C277.617 32.2238 277.735 31.9972 277.862 31.7798C275.062 32.106 272.126 32.6764 269.244 33.4648Z" fill="url(#paint7_radial_1840_1100)" style="mix-blend-mode:multiply"/>
<path d="M269.73 34.3076C265.326 38.0048 261.248 41.8922 257.578 45.97C246.976 52.6304 231.263 62.0637 224.548 64.5919C222.672 66.9842 220.905 69.4852 219.41 72.2038C219.664 72.4394 219.918 72.675 220.171 72.9106C221.204 70.0833 222.89 67.3104 225.391 64.5919C231.834 62.4986 247.574 53.6091 257.959 46.5953C261.873 42.0282 266.114 37.9504 270.165 35.0688C271.769 34.1988 275.656 33.1658 278.456 32.894C278.13 32.749 277.813 32.604 277.505 32.459C274.922 32.8396 272.313 33.492 269.73 34.3076Z" fill="url(#paint8_radial_1840_1100)" style="mix-blend-mode:screen"/>
<path d="M114.423 9.24316C112.683 11.0646 110.699 12.7772 108.551 14.0549C107.681 17.29 106.458 20.4978 105.234 23.7329C107.001 20.1988 108.605 17.1541 110.535 14.0549C112.003 12.451 113.363 10.8471 114.423 9.24316Z" fill="url(#paint9_radial_1840_1100)" style="mix-blend-mode:multiply"/>
<path d="M114.423 9.24316C113.363 10.8471 112.003 12.451 110.535 14.0549C108.605 17.1541 107.001 20.1988 105.234 23.7329C107.599 20.5522 109.91 17.3715 112.003 14.0549C112.928 12.5326 113.798 10.9286 114.423 9.24316Z" fill="url(#paint10_radial_1840_1100)" style="mix-blend-mode:screen"/>
<path d="M200.571 64.5923C200.408 66.5315 200.498 68.4707 200.843 70.4099C201.142 68.3982 201.713 66.3593 202.392 64.5923C203.751 62.6078 206.225 59.5902 208.346 57.1436C205.981 59.699 203.507 62.2544 200.571 64.5923Z" fill="url(#paint11_radial_1840_1100)" style="mix-blend-mode:multiply"/>
<path d="M202.397 64.5923C201.718 66.3593 201.147 68.3982 200.848 70.4099C201.808 68.4707 202.778 66.5315 203.756 64.5923C205.496 62.0913 206.91 59.6174 208.351 57.1436C206.23 59.5902 203.756 62.6078 202.397 64.5923Z" fill="url(#paint12_radial_1840_1100)" style="mix-blend-mode:screen"/>
<path d="M17.2898 15.7946C24.4939 7.74778 33.465 2.60978 44.5022 2.60978H243.498C254.508 2.60978 263.479 7.74778 270.683 15.7946C276.555 22.3462 280.714 30.094 284.466 37.9777L285.118 39.3098L288 39.3098L286.831 36.8631C286.161 35.4495 285.472 34.054 284.765 32.6766L283.27 31.6436L283.487 30.2028C280.443 24.4667 276.99 18.9481 272.64 14.0819C264.92 5.46423 255.269 4.42937e-07 243.498 4.42937e-07H91.8316L88.6781 0.652444L86.8567 4.42937e-07H63.9396L61.9007 0.815557L60.5686 4.42937e-07H44.5022C32.731 4.42937e-07 23.0802 5.46423 15.3596 14.0819C9.32452 20.7967 5.02928 28.7348 1.16898 36.8631L0 39.3098L2.88162 39.3098L3.5069 37.9777C7.25846 30.094 11.4178 22.3462 17.2898 15.7946Z" fill="url(#paint13_linear_1840_1100)"/>
<path d="M17.2898 15.7946C24.4939 7.74778 33.465 2.60978 44.5022 2.60978H243.498C254.508 2.60978 263.479 7.74778 270.683 15.7946C276.555 22.3462 280.714 30.094 284.466 37.9777L285.118 39.3098L288 39.3098L286.831 36.8631C286.161 35.4495 285.472 34.054 284.765 32.6766L283.27 31.6436L283.487 30.2028C280.443 24.4667 276.99 18.9481 272.64 14.0819C264.92 5.46423 255.269 4.42937e-07 243.498 4.42937e-07H91.8316L88.6781 0.652444L86.8567 4.42937e-07H63.9396L61.9007 0.815557L60.5686 4.42937e-07H44.5022C32.731 4.42937e-07 23.0802 5.46423 15.3596 14.0819C9.32452 20.7967 5.02928 28.7348 1.16898 36.8631L0 39.3098L2.88162 39.3098L3.5069 37.9777C7.25846 30.094 11.4178 22.3462 17.2898 15.7946Z" fill="#935825"/>
<path d="M6.33594 39.3101C12.2079 26.968 23.1635 5.73633 44.5039 5.73633H59.6733H61.0054H83.5963H85.9886H243.5C260.898 5.73633 271.392 19.8726 277.862 31.7798C278.061 32.1603 278.26 32.5319 278.46 32.8943C279.656 35.1779 280.716 37.3527 281.64 39.3101L285.12 39.3094L284.467 37.9773C280.716 30.0936 276.556 22.3458 270.684 15.8214C263.48 7.74738 254.509 2.60938 243.499 2.60938H44.5033C33.4662 2.60938 24.495 7.74738 17.291 15.8214C11.419 22.3458 7.25964 30.0936 3.50809 37.9773L2.88281 39.3094L6.33594 39.3101Z" fill="url(#paint14_linear_1840_1100)"/>
<path d="M6.33594 39.3101C12.2079 26.968 23.1635 5.73633 44.5039 5.73633H59.6733H61.0054H83.5963H85.9886H243.5C260.898 5.73633 271.392 19.8726 277.862 31.7798C278.061 32.1603 278.26 32.5319 278.46 32.8943C279.656 35.1779 280.716 37.3527 281.64 39.3101L285.12 39.3094L284.467 37.9773C280.716 30.0936 276.556 22.3458 270.684 15.8214C263.48 7.74738 254.509 2.60938 243.499 2.60938H44.5033C33.4662 2.60938 24.495 7.74738 17.291 15.8214C11.419 22.3458 7.25964 30.0936 3.50809 37.9773L2.88281 39.3094L6.33594 39.3101Z" fill="#71451F"/>
<path d="M14.1381 53.5551C10.8215 48.5802 8.29327 43.4422 6.33594 39.3101L2.88281 39.3094L3.50809 40.6688C7.25964 48.5525 11.419 56.2731 17.291 62.8248C24.495 70.8716 33.4662 76.0368 44.5033 76.0368H243.499C254.509 76.0368 263.48 70.8716 270.684 62.8248C276.556 56.2731 280.716 48.5525 284.467 40.6688L285.12 39.3094L281.64 39.3101C275.768 51.6793 264.84 72.911 243.5 72.911H220.175H218.027H44.5039C31.156 72.911 21.8859 64.6195 15.3614 55.3765C14.9446 54.7784 14.5368 54.1713 14.1381 53.5551Z" fill="url(#paint15_linear_1840_1100)"/>
<path d="M14.1381 53.5551C10.8215 48.5802 8.29327 43.4422 6.33594 39.3101L2.88281 39.3094L3.50809 40.6688C7.25964 48.5525 11.419 56.2731 17.291 62.8248C24.495 70.8716 33.4662 76.0368 44.5033 76.0368H243.499C254.509 76.0368 263.48 70.8716 270.684 62.8248C276.556 56.2731 280.716 48.5525 284.467 40.6688L285.12 39.3094L281.64 39.3101C275.768 51.6793 264.84 72.911 243.5 72.911H220.175H218.027H44.5039C31.156 72.911 21.8859 64.6195 15.3614 55.3765C14.9446 54.7784 14.5368 54.1713 14.1381 53.5551Z" fill="#935825"/>
<path d="M17.2898 62.8248C11.4178 56.2731 7.25846 48.5525 3.5069 40.6688L2.88162 39.3098L0 39.3098L1.16898 41.7837C3.5069 46.677 5.98076 51.516 8.91676 56.0559L10.6838 56.7355L10.6022 58.5569C12.0702 60.6502 13.647 62.6619 15.3596 64.5649C23.0802 73.1826 32.731 78.6196 44.5022 78.6196H215.198L217.318 77.94L219.167 78.6196H243.498C255.269 78.6196 264.92 73.1826 272.64 64.5649C278.675 57.8229 282.944 49.8849 286.831 41.7837L288 39.3098L285.118 39.3098L284.466 40.6688C280.714 48.5525 276.555 56.2731 270.683 62.8248C263.479 70.8716 254.508 76.0368 243.498 76.0368H44.5022C33.465 76.0368 24.4939 70.8716 17.2898 62.8248Z" fill="url(#paint16_linear_1840_1100)"/>
<path d="M17.2898 62.8248C11.4178 56.2731 7.25846 48.5525 3.5069 40.6688L2.88162 39.3098L0 39.3098L1.16898 41.7837C3.5069 46.677 5.98076 51.516 8.91676 56.0559L10.6838 56.7355L10.6022 58.5569C12.0702 60.6502 13.647 62.6619 15.3596 64.5649C23.0802 73.1826 32.731 78.6196 44.5022 78.6196H215.198L217.318 77.94L219.167 78.6196H243.498C255.269 78.6196 264.92 73.1826 272.64 64.5649C278.675 57.8229 282.944 49.8849 286.831 41.7837L288 39.3098L285.118 39.3098L284.466 40.6688C280.714 48.5525 276.555 56.2731 270.683 62.8248C263.479 70.8716 254.508 76.0368 243.498 76.0368H44.5022C33.465 76.0368 24.4939 70.8716 17.2898 62.8248Z" fill="#71451F"/>
<path d="M60.5676 0L60.0782 4.13215L61.8996 0.815556L60.5676 0Z" fill="#71451F"/>
<path d="M60.0782 4.13215L63.9385 0L61.8996 0.815556L60.0782 4.13215Z" fill="#935825"/>
<path d="M86.8592 4.42937e-07L84.8203 4.70304L88.6806 0.652444L86.8592 4.42937e-07Z" fill="#71451F"/>
<path d="M84.8203 4.70304L91.8341 4.42937e-07L88.6806 0.652444L84.8203 4.70304Z" fill="#935825"/>
<path d="M283.489 30.2031L279.52 31.9158L283.271 31.6439L283.489 30.2031Z" fill="#71451F"/>
<path d="M284.766 32.6766L283.271 31.6439L279.52 31.9158L284.766 32.6766Z" fill="#935825"/>
<path d="M215.199 78.6192L218.652 74.9492L217.32 77.9396L215.199 78.6192Z" fill="#71451F"/>
<path d="M219.165 78.6192L217.316 77.9396L218.649 74.9492L219.165 78.6192Z" fill="#935825"/>
<path d="M8.91797 56.056L13.8657 54.7783L10.685 56.7357L8.91797 56.056Z" fill="#71451F"/>
<path d="M10.6022 58.5569L10.6838 56.7355L13.8638 54.7783L10.6022 58.5569Z" fill="#935825"/>
<defs>
<linearGradient id="paint0_linear_1840_1100" x1="42594.9" y1="-116903" x2="42594.9" y2="-196556" gradientUnits="userSpaceOnUse">
<stop stop-color="#1FE800"/>
<stop offset="1" stop-color="#00A711"/>
</linearGradient>
<linearGradient id="paint1_linear_1840_1100" x1="78164.5" y1="-116809" x2="78164.5" y2="-196397" gradientUnits="userSpaceOnUse">
<stop stop-color="#198C2A"/>
<stop offset="1" stop-color="#08DF0B"/>
</linearGradient>
<linearGradient id="paint2_linear_1840_1100" x1="51403.8" y1="-119511" x2="51403.8" y2="-193762" gradientUnits="userSpaceOnUse">
<stop stop-color="#3AC425"/>
<stop offset="0.47" stop-color="#D97A00"/>
<stop offset="1" stop-color="#F3B862"/>
</linearGradient>
<radialGradient id="paint3_radial_1840_1100" cx="0" cy="0" r="1" gradientUnits="userSpaceOnUse" gradientTransform="translate(531734 47727.2) scale(127588 34829.6)">
<stop stop-color="#FFF6B5"/>
<stop offset="1" stop-color="#000800"/>
</radialGradient>
<radialGradient id="paint4_radial_1840_1100" cx="0" cy="0" r="1" gradientUnits="userSpaceOnUse" gradientTransform="translate(1.379e+06 53139.9) scale(234039 63889.2)">
<stop stop-color="#D19F77"/>
<stop offset="1" stop-color="white"/>
</radialGradient>
<radialGradient id="paint5_radial_1840_1100" cx="0" cy="0" r="1" gradientUnits="userSpaceOnUse" gradientTransform="translate(859839 32404.4) scale(146872 40093.8)">
<stop stop-color="#FFF6B5"/>
<stop offset="1" stop-color="#000800"/>
</radialGradient>
<radialGradient id="paint6_radial_1840_1100" cx="0" cy="0" r="1" gradientUnits="userSpaceOnUse" gradientTransform="translate(2.5957e+06 47428.9) scale(112264 30646.3)">
<stop stop-color="#FFF6B5"/>
<stop offset="1" stop-color="#000800"/>
</radialGradient>
<radialGradient id="paint7_radial_1840_1100" cx="0" cy="0" r="1" gradientUnits="userSpaceOnUse" gradientTransform="translate(1.71009e+06 72947.8) scale(166105 45344)">
<stop stop-color="#D19F77"/>
<stop offset="1" stop-color="white"/>
</radialGradient>
<radialGradient id="paint8_radial_1840_1100" cx="0" cy="0" r="1" gradientUnits="userSpaceOnUse" gradientTransform="translate(803875 34678.5) scale(76859.4 20981.5)">
<stop stop-color="#FFF6B5"/>
<stop offset="1" stop-color="#000800"/>
</radialGradient>
<radialGradient id="paint9_radial_1840_1100" cx="0" cy="0" r="1" gradientUnits="userSpaceOnUse" gradientTransform="translate(1.82233e+06 27283.8) scale(33274.4 9083.4)">
<stop stop-color="#D19F77"/>
<stop offset="1" stop-color="white"/>
</radialGradient>
<radialGradient id="paint10_radial_1840_1100" cx="0" cy="0" r="1" gradientUnits="userSpaceOnUse" gradientTransform="translate(1.56508e+06 23488.6) scale(28573.1 7800.01)">
<stop stop-color="#FFF6B5"/>
<stop offset="1" stop-color="#000800"/>
</radialGradient>
<radialGradient id="paint11_radial_1840_1100" cx="0" cy="0" r="1" gradientUnits="userSpaceOnUse" gradientTransform="translate(1.91071e+06 47265.9) scale(25074.4 6844.94)">
<stop stop-color="#D19F77"/>
<stop offset="1" stop-color="white"/>
</radialGradient>
<radialGradient id="paint12_radial_1840_1100" cx="0" cy="0" r="1" gradientUnits="userSpaceOnUse" gradientTransform="translate(1.72092e+06 40645.3) scale(21558.5 5885.15)">
<stop stop-color="#FFF6B5"/>
<stop offset="1" stop-color="#000800"/>
</radialGradient>
<linearGradient id="paint13_linear_1840_1100" x1="36514.6" y1="-115025" x2="36514.6" y2="-198318" gradientUnits="userSpaceOnUse">
<stop stop-color="#848D99"/>
<stop offset="1" stop-color="#CCD6EB"/>
</linearGradient>
<linearGradient id="paint14_linear_1840_1100" x1="39279.8" y1="-115886" x2="39279.8" y2="-197532" gradientUnits="userSpaceOnUse">
<stop stop-color="#586682"/>
<stop offset="1" stop-color="#444E59"/>
</linearGradient>
<linearGradient id="paint15_linear_1840_1100" x1="78158.8" y1="-115800" x2="78158.8" y2="-197385" gradientUnits="userSpaceOnUse">
<stop stop-color="#AAB9D6"/>
<stop offset="1" stop-color="#6B7A8F"/>
</linearGradient>
<linearGradient id="paint16_linear_1840_1100" x1="78158.2" y1="-115026" x2="78158.2" y2="-198320" gradientUnits="userSpaceOnUse">
<stop stop-color="#444E59"/>
<stop offset="1" stop-color="#586682"/>
</linearGradient>
</defs>
</svg>
