<svg width="57" height="47" viewBox="0 0 57 47" fill="none" xmlns="http://www.w3.org/2000/svg">
<path d="M6.75977 19.8691H50.3898V42.4519C50.3898 43.2194 49.779 43.841 49.0289 43.841H8.12257C7.37061 43.841 6.76162 43.2175 6.76162 42.4519V19.8691H6.75977Z" fill="#A57F3D"/>
<path d="M46.6094 40.0867V19.8691L10.5453 19.8691V40.0867H46.6094Z" fill="#68451B"/>
<path d="M46.6094 30.4745V29.4814L10.5453 29.4814V30.4745L46.6094 30.4745Z" fill="#563716"/>
<path d="M10.5697 43.8412C12.6738 43.8412 14.3796 42.1001 14.3796 39.9523C14.3796 37.8046 12.6738 36.0635 10.5697 36.0635C8.46552 36.0635 6.75977 37.8046 6.75977 39.9523C6.75977 42.1001 8.46552 43.8412 10.5697 43.8412Z" fill="#A57F3D"/>
<path d="M10.5699 41.2654C9.86063 41.2654 9.2832 40.676 9.2832 39.952C9.2832 39.2281 9.86063 38.6387 10.5699 38.6387C11.2791 38.6387 11.8566 39.2281 11.8566 39.952C11.8566 40.676 11.2791 41.2654 10.5699 41.2654Z" fill="#3D4336"/>
<path d="M46.5814 43.8412C48.6855 43.8412 50.3913 42.1001 50.3913 39.9523C50.3913 37.8046 48.6855 36.0635 46.5814 36.0635C44.4772 36.0635 42.7715 37.8046 42.7715 39.9523C42.7715 42.1001 44.4772 43.8412 46.5814 43.8412Z" fill="#A57F3D"/>
<path d="M46.5816 41.2654C45.8723 41.2654 45.2949 40.676 45.2949 39.952C45.2949 39.2281 45.8723 38.6387 46.5816 38.6387C47.2908 38.6387 47.8683 39.2281 47.8683 39.952C47.8683 40.676 47.2908 41.2654 46.5816 41.2654Z" fill="#3D4336"/>
<path opacity="0.2" d="M46.6078 19.8691H6.75977V22.3101H22.7402C23.6815 24.6544 25.9392 26.305 28.5739 26.305C28.9879 26.305 29.3927 26.2634 29.7844 26.1857L42.6679 40.0886H42.7737C42.7737 40.0431 42.77 39.9995 42.77 39.954C42.77 37.8068 44.4763 36.0651 46.5799 36.0651C46.5892 36.0651 46.5966 36.0651 46.6059 36.0651V22.3082H50.388V19.8672H46.6059L46.6078 19.8691Z" fill="black"/>
<path d="M51.4691 12.4668H5.68347C5.20445 12.4668 4.81641 12.8629 4.81641 13.3518V18.9824C4.81641 19.4713 5.20445 19.8674 5.68347 19.8674H23.2049C23.2049 22.8883 25.6038 25.3368 28.5633 25.3368C31.5229 25.3368 33.9217 22.8883 33.9217 19.8674H51.4673C51.9463 19.8674 52.3344 19.4713 52.3344 18.9824V13.3518C52.3344 12.8629 51.9463 12.4668 51.4673 12.4668H51.4691Z" fill="#D19B19"/>
<g opacity="0.2">
<path d="M8.31597 17.7634C7.60672 17.7634 7.0293 17.174 7.0293 16.4501C7.0293 15.7261 7.60672 15.1367 8.31597 15.1367C9.02523 15.1367 9.60265 15.7261 9.60265 16.4501C9.60265 17.174 9.02523 17.7634 8.31597 17.7634Z" fill="black"/>
<path d="M48.2847 17.7634C47.5755 17.7634 46.998 17.174 46.998 16.4501C46.998 15.7261 47.5755 15.1367 48.2847 15.1367C48.994 15.1367 49.5714 15.7261 49.5714 16.4501C49.5714 17.174 48.994 17.7634 48.2847 17.7634Z" fill="black"/>
</g>
<path d="M29.9974 19.3097C29.9974 18.4455 29.2659 17.7575 28.4007 17.8561C27.7601 17.9281 27.2366 18.4455 27.1456 19.0974C27.0639 19.6887 27.3294 20.225 27.7639 20.5245L27.5448 22.4026C27.5206 22.6148 27.6822 22.8025 27.8938 22.8025H29.4367C29.6577 22.8025 29.8229 22.5978 29.7802 22.3761L29.4182 20.4828C29.7691 20.2156 29.9974 19.7911 29.9974 19.3097Z" fill="#3D4336"/>
<path d="M29.4181 20.4831C29.7691 20.2159 29.9974 19.7914 29.9974 19.31C29.9974 18.4496 29.2677 17.7616 28.4062 17.8564C29.1248 17.936 29.6818 18.5576 29.6818 19.31C29.6818 19.7914 29.4534 20.2159 29.1025 20.4831L29.4646 22.3764C29.5073 22.5981 29.3402 22.8028 29.1211 22.8028H29.4367C29.6577 22.8028 29.8229 22.5981 29.7802 22.3764L29.4181 20.4831Z" fill="#2E3327"/>
<path d="M27.8901 22.401L28.1092 20.5229C27.6747 20.2234 27.4092 19.6871 27.4909 19.0958C27.58 18.4477 28.0999 17.9341 28.7349 17.8564C28.6272 17.8431 28.5158 17.8412 28.4007 17.8564C27.7601 17.9284 27.2366 18.4458 27.1456 19.0977C27.0639 19.689 27.3294 20.2253 27.7639 20.5248L27.5448 22.4029C27.5206 22.6151 27.6822 22.8027 27.8938 22.8027H28.2392C28.0294 22.8027 27.866 22.6151 27.8901 22.4029V22.401Z" fill="#2E3327"/>
<path d="M10.5699 41.2654C9.86063 41.2654 9.2832 40.676 9.2832 39.952C9.2832 39.2281 9.86063 38.6387 10.5699 38.6387C11.2791 38.6387 11.8566 39.2281 11.8566 39.952C11.8566 40.676 11.2791 41.2654 10.5699 41.2654Z" fill="#3D4336"/>
<path d="M46.5816 41.2654C45.8723 41.2654 45.2949 40.676 45.2949 39.952C45.2949 39.2281 45.8723 38.6387 46.5816 38.6387C47.2908 38.6387 47.8683 39.2281 47.8683 39.952C47.8683 40.676 47.2908 41.2654 46.5816 41.2654Z" fill="#3D4336"/>
<path d="M10.5699 41.2654C9.86063 41.2654 9.2832 40.676 9.2832 39.952C9.2832 39.2281 9.86063 38.6387 10.5699 38.6387C11.2791 38.6387 11.8566 39.2281 11.8566 39.952C11.8566 40.676 11.2791 41.2654 10.5699 41.2654Z" fill="#3D4336"/>
<path d="M46.5816 41.2654C45.8723 41.2654 45.2949 40.676 45.2949 39.952C45.2949 39.2281 45.8723 38.6387 46.5816 38.6387C47.2908 38.6387 47.8683 39.2281 47.8683 39.952C47.8683 40.676 47.2908 41.2654 46.5816 41.2654Z" fill="#3D4336"/>
<path d="M8.59332 17.4812C7.88407 17.4812 7.30664 16.8918 7.30664 16.1678C7.30664 15.4439 7.88407 14.8545 8.59332 14.8545C9.30257 14.8545 9.88 15.4439 9.88 16.1678C9.88 16.8918 9.30257 17.4812 8.59332 17.4812Z" fill="#D6AE56"/>
<path d="M48.5601 17.4812C47.8509 17.4812 47.2734 16.8918 47.2734 16.1678C47.2734 15.4439 47.8509 14.8545 48.5601 14.8545C49.2694 14.8545 49.8468 15.4439 49.8468 16.1678C49.8468 16.8918 49.2694 17.4812 48.5601 17.4812Z" fill="#D6AE56"/>
<path opacity="0.2" d="M33.3995 19.2119C33.3995 22.2328 31.2347 24.6813 28.5648 24.6813C25.8949 24.6813 23.73 22.2328 23.73 19.2119H4.8457C4.94411 19.5891 5.28017 19.8695 5.68306 19.8695H23.2045C23.2045 22.8904 25.6034 25.339 28.5629 25.339C31.5224 25.339 33.9213 22.8904 33.9213 19.8695H51.4669C51.8679 19.8695 52.2058 19.5909 52.3042 19.2119H33.3977H33.3995Z" fill="black"/>
<path d="M51.4691 12.4668H5.68347C5.20445 12.4668 4.81641 12.8629 4.81641 13.3518V13.9014C4.81641 13.4125 5.20445 13.0164 5.68347 13.0164H51.4691C51.9482 13.0164 52.3362 13.4125 52.3362 13.9014V13.3518C52.3362 12.8629 51.9482 12.4668 51.4691 12.4668Z" fill="#D6AE56"/>
<path d="M45.6629 3.6123H11.4258V12.4684H45.6629V3.6123Z" fill="#8B6339"/>
<path d="M45.6629 4.20215H11.4258V12.4669H45.6629V4.20215Z" fill="#68451B"/>
<path d="M43.9883 7.83687V6.8457L13.1637 6.8457V7.83687L43.9883 7.83687Z" fill="#563716"/>
<path d="M12.6843 2.65332H8.14468C7.60624 2.65332 7.16992 3.09868 7.16992 3.64828V12.4684H13.659V3.64828C13.659 3.09868 13.2227 2.65332 12.6843 2.65332Z" fill="#A57F3D"/>
<path d="M49.0065 2.65332H44.4669C43.9285 2.65332 43.4922 3.09868 43.4922 3.64828V12.4684H49.9813V3.64828C49.9813 3.09868 49.545 2.65332 49.0065 2.65332Z" fill="#A57F3D"/>
<path d="M12.6843 2.65332H8.14468C7.60624 2.65332 7.16992 3.09868 7.16992 3.64828V4.60723C7.16992 4.05763 7.60624 3.61227 8.14468 3.61227H12.6843C13.2227 3.61227 13.659 4.05763 13.659 4.60723V3.64828C13.659 3.09868 13.2227 2.65332 12.6843 2.65332Z" fill="#CBAC89"/>
<path d="M49.0065 2.65332H44.4669C43.9285 2.65332 43.4922 3.09868 43.4922 3.64828V4.60723C43.4922 4.05763 43.9285 3.61227 44.4669 3.61227H49.0065C49.545 3.61227 49.9813 4.05763 49.9813 4.60723V3.64828C49.9813 3.09868 49.545 2.65332 49.0065 2.65332Z" fill="#CBAC89"/>
<path opacity="0.2" d="M49.235 43.0889H7.91648C7.27778 43.0889 6.75977 42.5601 6.75977 41.9082V42.6587C6.75977 43.3106 7.27778 43.8394 7.91648 43.8394H49.235C49.8737 43.8394 50.3917 43.3106 50.3917 42.6587V41.9082C50.3917 42.5601 49.8737 43.0889 49.235 43.0889Z" fill="black"/>
</svg>
