<svg width="290" height="98" viewBox="0 0 290 98" fill="none" xmlns="http://www.w3.org/2000/svg">
<path d="M46.5022 10.5H62.5686L63.9007 11.3156L65.9396 10.5H88.8567L90.6781 11.1524L93.8316 10.5H245.498C257.269 10.5 266.92 15.9642 274.64 24.5819C278.99 29.4481 282.443 34.9667 285.487 40.7028L285.27 42.1436L286.765 43.1766C287.472 44.554 288.161 45.9495 288.831 47.3631L290 49.8098L288.831 52.2837C284.944 60.3848 280.675 68.3229 274.64 75.0649C266.92 83.6826 257.269 89.1196 245.498 89.1196H221.167L219.318 88.44L217.198 89.1196H46.5022C34.731 89.1196 25.0802 83.6826 17.3596 75.0649C15.647 73.1619 14.0702 71.1502 12.6022 69.0569L12.6838 67.2355L10.9168 66.5559C7.98076 62.016 5.5069 57.177 3.16898 52.2837L2 49.8098L3.16898 47.3631C7.02928 39.2348 11.3245 31.2967 17.3596 24.5819C25.0802 15.9642 34.731 10.5 46.5022 10.5Z" fill="#71451F"/>
<path d="M46.502 16.2358H61.6713L62.0519 16.7524L63.0034 16.2358H85.5943L86.0837 17.0242L87.9866 16.2358H245.498C262.896 16.2358 273.39 30.3721 279.86 42.2793L279.506 42.9589L280.458 43.3939C281.654 45.6774 282.714 47.8522 283.639 49.8096C277.767 62.1788 266.838 83.4105 245.498 83.4105H222.173L221.412 82.7037L220.025 83.4105H46.502C33.154 83.4105 23.8839 75.119 17.3595 65.876L17.4954 64.4896L16.1361 64.0546C12.8195 59.0797 10.2913 53.9417 8.33398 49.8096C14.206 37.4675 25.1616 16.2358 46.502 16.2358Z" fill="#B3B3B3"/>
<path d="M8.33398 49.8096H283.639C282.714 47.8522 281.654 45.6774 280.458 43.3939L279.506 42.9589L279.86 42.2793C273.39 30.3721 262.896 16.2358 245.498 16.2358H87.9866L86.0837 17.0242L85.5943 16.2358H63.0034L62.0519 16.7524L61.6713 16.2358H46.502C25.1616 16.2358 14.206 37.4675 8.33398 49.8096Z" fill="url(#paint0_linear_1819_1056)"/>
<path d="M283.639 49.8101H8.33398C10.2913 53.9422 12.8195 59.0802 16.1361 64.0551L17.4954 64.4901L17.3595 65.8765C23.8839 75.1195 33.154 83.411 46.502 83.411H220.025L221.412 82.7042L222.173 83.411H245.498C266.838 83.411 277.767 62.1793 283.639 49.8101Z" fill="url(#paint1_linear_1819_1056)"/>
<path d="M17.6055 49.8097C23.4775 61.5809 32.1767 75.092 46.5033 75.092H245.499C259.826 75.092 268.498 61.5809 274.397 49.8097C268.498 38.0657 259.826 24.5547 245.499 24.5547H46.5033C32.1767 24.5547 23.4775 38.0657 17.6055 49.8097Z" fill="url(#paint2_linear_1819_1056)"/>
<path style="mix-blend-mode:screen" d="M9.55859 49.8099C12.0959 49.683 14.6422 49.5471 17.1976 49.4021C24.7279 35.8367 31.1708 24.1742 47.2916 24.2558L106.882 24.5548L47.4547 24.9082C31.198 24.9898 24.9182 37.0328 18.0947 49.7555C19.5899 53.0721 21.1938 56.1984 22.9881 59.3519C20.7317 56.3071 18.9375 53.2624 17.1976 50.2449C14.6422 50.0999 12.0959 49.9549 9.55859 49.8099Z" fill="url(#paint3_radial_1819_1056)"/>
<path style="mix-blend-mode:multiply" d="M85.5949 16.2358C83.7735 19.0087 80.2666 23.1137 78.2549 24.5545C71.2411 28.5507 63.6836 31.7858 55.7728 34.2868C52.1571 36.951 48.324 39.3433 44.0016 41.4093C44.1375 39.1802 44.7084 36.5704 45.2249 34.9936C50.0367 32.112 56.6155 27.3002 59.633 24.5545C60.2311 22.1078 61.0195 19.199 62.0525 16.7524C61.9257 16.5892 61.7988 16.4171 61.6719 16.2358C60.2583 18.8184 59.3884 22.0535 58.7631 24.5545C54.5494 28.4692 49.8464 31.7042 44.7084 34.6402C44.0831 37.0053 43.6753 39.4248 43.5666 41.8715C42.887 42.4696 41.718 43.1764 40.8753 43.4754C35.1664 48.9125 25.9778 58.0739 23.4224 60.004C21.3563 61.6079 18.8824 62.9128 16.1367 64.0546L17.496 64.4896C19.5621 63.0488 21.9544 61.7711 23.9661 60.8196C32.6381 51.9028 39.9781 44.6444 43.9744 42.1705C47.9706 39.6423 52.5105 37.4131 56.0174 34.7218C63.9827 31.9761 72.7091 28.1701 79.886 24.5545C81.7074 22.0263 83.8551 19.2262 86.0843 17.0242C85.9211 16.7705 85.758 16.5077 85.5949 16.2358Z" fill="url(#paint4_radial_1819_1056)"/>
<path style="mix-blend-mode:screen" d="M86.0855 17.0242C83.8563 19.2262 81.7087 22.0263 79.8873 24.5545C72.7104 28.1701 63.9839 31.9761 56.0187 34.7218C52.5118 37.4131 47.9719 39.6423 43.9756 42.1705C39.9794 44.6444 32.6394 51.9028 23.9673 60.8196C21.9556 61.7711 19.5633 63.0488 17.4973 64.4896L17.3613 65.876C19.2099 63.8915 22.01 62.2876 24.4838 61.5536C29.9481 55.4097 37.3696 47.1454 44.1931 42.5239C48.5156 39.9413 52.8924 37.4947 56.2362 35.1567C64.8811 32.112 73.1997 28.7138 81.1106 24.5545C82.5243 21.4282 85.6506 18.1388 87.9885 16.2358C87.3542 16.5077 86.7199 16.7705 86.0855 17.0242Z" fill="url(#paint5_radial_1819_1056)"/>
<path style="mix-blend-mode:screen" d="M62.0508 16.7524C61.0178 19.199 60.2294 22.1078 59.6313 24.5545C56.6138 27.3002 50.0349 32.112 45.2232 34.9936C44.6523 36.7607 44.027 39.8054 43.9727 42.1705C44.1176 41.8443 44.2626 41.5271 44.4076 41.219C44.5979 39.0986 45.0057 37.25 45.6581 35.3199C50.8777 32.0304 55.9613 28.5236 60.4741 24.5545C60.909 21.5913 61.5071 18.7912 63.0023 16.2358C62.6942 16.4171 62.377 16.5892 62.0508 16.7524Z" fill="url(#paint6_radial_1819_1056)"/>
<path style="mix-blend-mode:multiply" d="M271.242 43.9648C267.627 46.9008 263.495 51.1417 259.118 56.0894C249.413 62.3963 237.37 69.4101 225.598 75.0918C223.369 77.7016 221.602 80.5017 220.025 83.4105C220.478 83.1749 220.941 82.9393 221.412 82.7037C222.907 79.9852 224.674 77.4841 226.55 75.0918C233.265 72.5636 248.978 63.1303 259.58 56.47C263.25 52.3922 267.328 48.5047 271.732 44.8075C274.314 43.992 276.924 43.3395 279.507 42.9589C279.615 42.7233 279.733 42.4968 279.86 42.2793C277.06 42.6055 274.124 43.1764 271.242 43.9648Z" fill="url(#paint7_radial_1819_1056)"/>
<path style="mix-blend-mode:screen" opacity="0.7" d="M271.732 44.8076C267.328 48.5048 263.25 52.3922 259.58 56.47C248.978 63.1304 233.265 72.5637 226.55 75.0919C224.674 77.4842 222.907 79.9852 221.412 82.7037C221.666 82.9394 221.92 83.175 222.173 83.4106C223.206 80.5833 224.892 77.8104 227.393 75.0919C233.836 72.9986 249.576 64.1091 259.961 57.0953C263.875 52.5282 268.116 48.4504 272.167 45.5688C273.771 44.6988 277.658 43.6658 280.458 43.3939C280.132 43.249 279.815 43.104 279.507 42.959C276.924 43.3396 274.314 43.992 271.732 44.8076Z" fill="url(#paint8_radial_1819_1056)"/>
<path style="mix-blend-mode:multiply" d="M116.423 19.7432C114.683 21.5646 112.699 23.2772 110.551 24.5549C109.681 27.79 108.458 30.9978 107.234 34.2329C109.001 30.6988 110.605 27.6541 112.535 24.5549C114.003 22.951 115.363 21.3471 116.423 19.7432Z" fill="url(#paint9_radial_1819_1056)"/>
<path style="mix-blend-mode:screen" d="M116.423 19.7432C115.363 21.3471 114.003 22.951 112.535 24.5549C110.605 27.6541 109.001 30.6988 107.234 34.2329C109.599 31.0522 111.91 27.8715 114.003 24.5549C114.928 23.0326 115.798 21.4286 116.423 19.7432Z" fill="url(#paint10_radial_1819_1056)"/>
<path style="mix-blend-mode:multiply" d="M202.573 75.0923C202.41 77.0315 202.5 78.9707 202.845 80.9099C203.144 78.8982 203.715 76.8593 204.394 75.0923C205.753 73.1078 208.227 70.0902 210.348 67.6436C207.983 70.199 205.509 72.7544 202.573 75.0923Z" fill="url(#paint11_radial_1819_1056)"/>
<path style="mix-blend-mode:screen" opacity="0.5" d="M204.395 75.0923C203.716 76.8593 203.145 78.8982 202.846 80.9099C203.806 78.9707 204.776 77.0315 205.755 75.0923C207.494 72.5913 208.908 70.1174 210.349 67.6436C208.228 70.0902 205.755 73.1078 204.395 75.0923Z" fill="url(#paint12_radial_1819_1056)"/>
<path d="M19.2898 26.2946C26.4939 18.2478 35.465 13.1098 46.5022 13.1098H245.498C256.508 13.1098 265.479 18.2478 272.683 26.2946C278.555 32.8462 282.714 40.594 286.466 48.4777L287.118 49.8098H290L288.831 47.3631C288.161 45.9495 287.472 44.554 286.765 43.1766L285.27 42.1436L285.487 40.7028C282.443 34.9667 278.99 29.4481 274.64 24.5819C266.92 15.9642 257.269 10.5 245.498 10.5H93.8316L90.6781 11.1524L88.8567 10.5H65.9396L63.9007 11.3156L62.5686 10.5H46.5022C34.731 10.5 25.0802 15.9642 17.3596 24.5819C11.3245 31.2967 7.02928 39.2348 3.16898 47.3631L2 49.8098H4.88162L5.5069 48.4777C9.25846 40.594 13.4178 32.8462 19.2898 26.2946Z" fill="url(#paint13_linear_1819_1056)"/>
<path d="M19.2898 26.2946C26.4939 18.2478 35.465 13.1098 46.5022 13.1098H245.498C256.508 13.1098 265.479 18.2478 272.683 26.2946C278.555 32.8462 282.714 40.594 286.466 48.4777L287.118 49.8098H290L288.831 47.3631C288.161 45.9495 287.472 44.554 286.765 43.1766L285.27 42.1436L285.487 40.7028C282.443 34.9667 278.99 29.4481 274.64 24.5819C266.92 15.9642 257.269 10.5 245.498 10.5H93.8316L90.6781 11.1524L88.8567 10.5H65.9396L63.9007 11.3156L62.5686 10.5H46.5022C34.731 10.5 25.0802 15.9642 17.3596 24.5819C11.3245 31.2967 7.02928 39.2348 3.16898 47.3631L2 49.8098H4.88162L5.5069 48.4777C9.25846 40.594 13.4178 32.8462 19.2898 26.2946Z" fill="#935825"/>
<path d="M8.33535 49.8099C14.2074 37.4678 25.163 16.2362 46.5033 16.2362H61.6727H63.0048H85.5957H87.988H245.499C262.898 16.2362 273.391 30.3725 279.861 42.2796C280.061 42.6602 280.26 43.0317 280.459 43.3942C281.655 45.6777 282.716 47.8526 283.64 49.8099H287.12L286.467 48.4778C282.716 40.5941 278.556 32.8463 272.684 26.3219C265.48 18.2479 256.509 13.1099 245.499 13.1099H46.5033C35.4662 13.1099 26.495 18.2479 19.291 26.3219C13.419 32.8463 9.25964 40.5941 5.50809 48.4778L4.88281 49.8099H8.33535Z" fill="url(#paint14_linear_1819_1056)"/>
<path d="M8.33535 49.8099C14.2074 37.4678 25.163 16.2362 46.5033 16.2362H61.6727H63.0048H85.5957H87.988H245.499C262.898 16.2362 273.391 30.3725 279.861 42.2796C280.061 42.6602 280.26 43.0317 280.459 43.3942C281.655 45.6777 282.716 47.8526 283.64 49.8099H287.12L286.467 48.4778C282.716 40.5941 278.556 32.8463 272.684 26.3219C265.48 18.2479 256.509 13.1099 245.499 13.1099H46.5033C35.4662 13.1099 26.495 18.2479 19.291 26.3219C13.419 32.8463 9.25964 40.5941 5.50809 48.4778L4.88281 49.8099H8.33535Z" fill="#71451F"/>
<path d="M16.1375 64.0551C12.8209 59.0802 10.2927 53.9422 8.33535 49.8101H4.88281L5.50809 51.1693C9.25964 59.053 13.419 66.7736 19.291 73.3253C26.495 81.3721 35.4662 86.5373 46.5033 86.5373H245.499C256.509 86.5373 265.48 81.3721 272.684 73.3253C278.556 66.7736 282.716 59.053 286.467 51.1693L287.12 49.8101H283.64C277.768 62.1793 266.839 83.411 245.499 83.411H222.174H220.027H46.5033C33.1554 83.411 23.8853 75.1195 17.3608 65.8765C16.944 65.2784 16.5362 64.6713 16.1375 64.0551Z" fill="url(#paint15_linear_1819_1056)"/>
<path d="M16.1375 64.0551C12.8209 59.0802 10.2927 53.9422 8.33535 49.8101H4.88281L5.50809 51.1693C9.25964 59.053 13.419 66.7736 19.291 73.3253C26.495 81.3721 35.4662 86.5373 46.5033 86.5373H245.499C256.509 86.5373 265.48 81.3721 272.684 73.3253C278.556 66.7736 282.716 59.053 286.467 51.1693L287.12 49.8101H283.64C277.768 62.1793 266.839 83.411 245.499 83.411H222.174H220.027H46.5033C33.1554 83.411 23.8853 75.1195 17.3608 65.8765C16.944 65.2784 16.5362 64.6713 16.1375 64.0551Z" fill="#935825"/>
<path d="M19.2898 73.3253C13.4178 66.7736 9.25846 59.053 5.5069 51.1693L4.88162 49.8101H2L3.16898 52.2839C5.5069 57.1773 7.98076 62.0162 10.9168 66.5561L12.6838 67.2358L12.6022 69.0572C14.0702 71.1504 15.647 73.1621 17.3596 75.0651C25.0802 83.6828 34.731 89.1199 46.5022 89.1199H217.198L219.318 88.4402L221.167 89.1199H245.498C257.269 89.1199 266.92 83.6828 274.64 75.0651C280.675 68.3232 284.944 60.3851 288.831 52.2839L290 49.8101H287.118L286.466 51.1693C282.714 59.053 278.555 66.7736 272.683 73.3253C265.479 81.3721 256.508 86.5373 245.498 86.5373H46.5022C35.465 86.5373 26.4939 81.3721 19.2898 73.3253Z" fill="url(#paint16_linear_1819_1056)"/>
<path d="M19.2898 73.3253C13.4178 66.7736 9.25846 59.053 5.5069 51.1693L4.88162 49.8101H2L3.16898 52.2839C5.5069 57.1773 7.98076 62.0162 10.9168 66.5561L12.6838 67.2358L12.6022 69.0572C14.0702 71.1504 15.647 73.1621 17.3596 75.0651C25.0802 83.6828 34.731 89.1199 46.5022 89.1199H217.198L219.318 88.4402L221.167 89.1199H245.498C257.269 89.1199 266.92 83.6828 274.64 75.0651C280.675 68.3232 284.944 60.3851 288.831 52.2839L290 49.8101H287.118L286.466 51.1693C282.714 59.053 278.555 66.7736 272.683 73.3253C265.479 81.3721 256.508 86.5373 245.498 86.5373H46.5022C35.465 86.5373 26.4939 81.3721 19.2898 73.3253Z" fill="#71451F"/>
<path d="M62.5675 10.5L62.0781 14.6322L63.8995 11.3156L62.5675 10.5Z" fill="#717171"/>
<path d="M62.0781 14.6322L65.9384 10.5L63.8995 11.3156L62.0781 14.6322Z" fill="url(#paint17_linear_1819_1056)"/>
<path d="M88.8572 10.5L86.8184 15.203L90.6786 11.1524L88.8572 10.5Z" fill="#71451F"/>
<path d="M86.8184 15.203L93.8322 10.5L90.6786 11.1524L86.8184 15.203Z" fill="#935825"/>
<path d="M285.489 40.7026L281.52 42.4153L285.271 42.1435L285.489 40.7026Z" fill="#71451F"/>
<path d="M286.766 43.1766L285.271 42.1436L281.52 42.4154L286.766 43.1766Z" fill="#935825"/>
<path d="M217.199 89.1197L220.652 85.4497L219.32 88.4401L217.199 89.1197Z" fill="#71451F"/>
<path d="M221.165 89.1197L219.316 88.4401L220.649 85.4497L221.165 89.1197Z" fill="#935825"/>
<path d="M10.918 66.556L15.8657 65.2783L12.685 67.2357L10.918 66.556Z" fill="url(#paint18_linear_1819_1056)"/>
<path d="M12.6035 69.0571L12.6851 67.2357L15.8657 65.2783L12.6035 69.0571Z" fill="url(#paint19_linear_1819_1056)"/>
<g filter="url(#filter0_i_1819_1056)">
<circle cx="49" cy="49" r="49" fill="url(#paint20_linear_1819_1056)"/>
<circle cx="49" cy="49" r="49" fill="#71451F"/>
</g>
<circle cx="49" cy="48.5" r="43" fill="url(#paint21_radial_1819_1056)"/>
<g filter="url(#filter1_d_1819_1056)">
<path d="M52.8909 51.8922L49.5936 55.1877L52.8909 58.4831C53.0244 58.6167 53.1304 58.7752 53.2027 58.9497C53.2749 59.1242 53.3121 59.3113 53.3121 59.5002C53.3121 59.689 53.2749 59.8761 53.2027 60.0506C53.1304 60.2251 53.0244 60.3836 52.8909 60.5172C52.7573 60.6507 52.5988 60.7567 52.4243 60.829C52.2498 60.9012 52.0627 60.9385 51.8738 60.9385C51.685 60.9385 51.4979 60.9012 51.3234 60.829C51.1489 60.7567 50.9904 60.6507 50.8568 60.5172L49.7176 59.3762L45.5291 63.5665C44.4493 64.6425 42.9871 65.2466 41.4628 65.2466C39.9384 65.2466 38.4762 64.6425 37.3964 63.5665L36.4315 62.5998L31.3284 67.7047C31.1948 67.8382 31.0363 67.9442 30.8618 68.0165C30.6873 68.0887 30.5002 68.126 30.3113 68.126C30.1225 68.126 29.9354 68.0887 29.7609 68.0165C29.5864 67.9442 29.4279 67.8382 29.2943 67.7047C29.1608 67.5711 29.0548 67.4126 28.9825 67.2381C28.9102 67.0636 28.873 66.8765 28.873 66.6877C28.873 66.4988 28.9102 66.3117 28.9825 66.1372C29.0548 65.9627 29.1608 65.8042 29.2943 65.6706L34.3992 60.5675L33.4325 59.6026C32.8984 59.0686 32.4748 58.4347 32.1857 57.737C31.8967 57.0393 31.7479 56.2915 31.7479 55.5362C31.7479 54.781 31.8967 54.0332 32.1857 53.3355C32.4748 52.6378 32.8984 52.0039 33.4325 51.4699L37.6228 47.2814L36.4818 46.1422C36.2121 45.8725 36.0605 45.5066 36.0605 45.1252C36.0605 44.7437 36.2121 44.3779 36.4818 44.1081C36.7515 43.8384 37.1174 43.6869 37.4988 43.6869C37.8803 43.6869 38.2461 43.8384 38.5159 44.1081L41.8113 47.4054L45.1068 44.1081C45.3765 43.8384 45.7424 43.6869 46.1238 43.6869C46.5053 43.6869 46.8711 43.8384 47.1409 44.1081C47.4106 44.3779 47.5621 44.7437 47.5621 45.1252C47.5621 45.5066 47.4106 45.8725 47.1409 46.1422L43.8436 49.4377L47.5613 53.1554L50.8568 49.8581C51.1265 49.5884 51.4924 49.4369 51.8738 49.4369C52.2553 49.4369 52.6211 49.5884 52.8909 49.8581C53.1606 50.1279 53.3121 50.4937 53.3121 50.8752C53.3121 51.2566 53.1606 51.6225 52.8909 51.8922ZM68.7034 28.2956C68.5699 28.162 68.4113 28.0559 68.2368 27.9836C68.0623 27.9113 67.8753 27.874 67.6863 27.874C67.4974 27.874 67.3104 27.9113 67.1359 27.9836C66.9614 28.0559 66.8028 28.162 66.6693 28.2956L61.5662 33.4005L60.6013 32.4338C59.5217 31.3574 58.0594 30.7529 56.5349 30.7529C55.0104 30.7529 53.5481 31.3574 52.4686 32.4338L48.2801 36.6241L47.1409 35.4831C46.8711 35.2134 46.5053 35.0619 46.1238 35.0619C45.7424 35.0619 45.3765 35.2134 45.1068 35.4831C44.8371 35.7529 44.6855 36.1187 44.6855 36.5002C44.6855 36.8816 44.8371 37.2475 45.1068 37.5172L59.4818 51.8922C59.6154 52.0257 59.7739 52.1317 59.9484 52.204C60.1229 52.2762 60.31 52.3135 60.4988 52.3135C60.6877 52.3135 60.8748 52.2762 61.0493 52.204C61.2238 52.1317 61.3823 52.0257 61.5159 51.8922C61.6494 51.7586 61.7554 51.6001 61.8277 51.4256C61.8999 51.2511 61.9371 51.064 61.9371 50.8752C61.9371 50.6863 61.8999 50.4992 61.8277 50.3247C61.7554 50.1502 61.6494 49.9917 61.5159 49.8581L60.3749 48.7189L64.5652 44.5304C65.0993 43.9964 65.5229 43.3625 65.812 42.6648C66.101 41.9671 66.2498 41.2193 66.2498 40.4641C66.2498 39.7088 66.101 38.961 65.812 38.2633C65.5229 37.5656 65.0993 36.9317 64.5652 36.3977L63.5985 35.4328L68.7034 30.3297C68.837 30.1962 68.9431 30.0376 69.0154 29.8631C69.0877 29.6886 69.125 29.5016 69.125 29.3127C69.125 29.1237 69.0877 28.9367 69.0154 28.7622C68.9431 28.5877 68.837 28.4291 68.7034 28.2956Z" fill="url(#paint22_linear_1819_1056)"/>
</g>
<defs>
<filter id="filter0_i_1819_1056" x="0" y="0" width="98" height="98" filterUnits="userSpaceOnUse" color-interpolation-filters="sRGB">
<feFlood flood-opacity="0" result="BackgroundImageFix"/>
<feBlend mode="normal" in="SourceGraphic" in2="BackgroundImageFix" result="shape"/>
<feColorMatrix in="SourceAlpha" type="matrix" values="0 0 0 0 0 0 0 0 0 0 0 0 0 0 0 0 0 0 127 0" result="hardAlpha"/>
<feMorphology radius="3" operator="erode" in="SourceAlpha" result="effect1_innerShadow_1819_1056"/>
<feOffset/>
<feGaussianBlur stdDeviation="0.05"/>
<feComposite in2="hardAlpha" operator="arithmetic" k2="-1" k3="1"/>
<feColorMatrix type="matrix" values="0 0 0 0 0.576471 0 0 0 0 0.345098 0 0 0 0 0.145098 0 0 0 1 0"/>
<feBlend mode="normal" in2="shape" result="effect1_innerShadow_1819_1056"/>
</filter>
<filter id="filter1_d_1819_1056" x="28.873" y="27.874" width="40.252" height="42.252" filterUnits="userSpaceOnUse" color-interpolation-filters="sRGB">
<feFlood flood-opacity="0" result="BackgroundImageFix"/>
<feColorMatrix in="SourceAlpha" type="matrix" values="0 0 0 0 0 0 0 0 0 0 0 0 0 0 0 0 0 0 127 0" result="hardAlpha"/>
<feOffset dy="2"/>
<feComposite in2="hardAlpha" operator="out"/>
<feColorMatrix type="matrix" values="0 0 0 0 0.25098 0 0 0 0 0.129412 0 0 0 0 0.0235294 0 0 0 0.78 0"/>
<feBlend mode="normal" in2="BackgroundImageFix" result="effect1_dropShadow_1819_1056"/>
<feBlend mode="normal" in="SourceGraphic" in2="effect1_dropShadow_1819_1056" result="shape"/>
</filter>
<linearGradient id="paint0_linear_1819_1056" x1="40725.6" y1="-49906.2" x2="40725.6" y2="-83921.2" gradientUnits="userSpaceOnUse">
<stop stop-color="#1FE800"/>
<stop offset="1" stop-color="#00A711"/>
</linearGradient>
<linearGradient id="paint1_linear_1819_1056" x1="74727.2" y1="-49872.6" x2="74727.2" y2="-83887.6" gradientUnits="userSpaceOnUse">
<stop stop-color="#198C2A"/>
<stop offset="1" stop-color="#08DF0B"/>
</linearGradient>
<linearGradient id="paint2_linear_1819_1056" x1="45851.1" y1="-76798.3" x2="45851.1" y2="-124527" gradientUnits="userSpaceOnUse">
<stop stop-color="#3AC425"/>
<stop offset="0.47" stop-color="#D97A00"/>
<stop offset="1" stop-color="#F3B862"/>
</linearGradient>
<radialGradient id="paint3_radial_1819_1056" cx="0" cy="0" r="1" gradientUnits="userSpaceOnUse" gradientTransform="translate(179697 21330.1) scale(43115.5 15548.3)">
<stop stop-color="#FFF6B5"/>
<stop offset="1" stop-color="#000800"/>
</radialGradient>
<radialGradient id="paint4_radial_1819_1056" cx="0" cy="0" r="1" gradientUnits="userSpaceOnUse" gradientTransform="translate(334939 32631.5) scale(56842 39212.8)">
<stop stop-color="#D19F77"/>
<stop offset="1" stop-color="white"/>
</radialGradient>
<radialGradient id="paint5_radial_1819_1056" cx="0" cy="0" r="1" gradientUnits="userSpaceOnUse" gradientTransform="translate(210879 20476.3) scale(36017.9 25315.1)">
<stop stop-color="#FFF6B5"/>
<stop offset="1" stop-color="#000800"/>
</radialGradient>
<radialGradient id="paint6_radial_1819_1056" cx="0" cy="0" r="1" gradientUnits="userSpaceOnUse" gradientTransform="translate(171555 15661.9) scale(7417.85 10109.5)">
<stop stop-color="#FFF6B5"/>
<stop offset="1" stop-color="#000800"/>
</radialGradient>
<radialGradient id="paint7_radial_1819_1056" cx="0" cy="0" r="1" gradientUnits="userSpaceOnUse" gradientTransform="translate(355506 38206.2) scale(34509.8 23722.5)">
<stop stop-color="#D19F77"/>
<stop offset="1" stop-color="white"/>
</radialGradient>
<radialGradient id="paint8_radial_1819_1056" cx="0" cy="0" r="1" gradientUnits="userSpaceOnUse" gradientTransform="translate(165033 17885.8) scale(15757.8 10795.4)">
<stop stop-color="#FFF6B5"/>
<stop offset="1" stop-color="#000800"/>
</radialGradient>
<radialGradient id="paint9_radial_1819_1056" cx="0" cy="0" r="1" gradientUnits="userSpaceOnUse" gradientTransform="translate(58248.4 5048.19) scale(1061.62 1674.08)">
<stop stop-color="#D19F77"/>
<stop offset="1" stop-color="white"/>
</radialGradient>
<radialGradient id="paint10_radial_1819_1056" cx="0" cy="0" r="1" gradientUnits="userSpaceOnUse" gradientTransform="translate(50041 4348.73) scale(911.621 1437.55)">
<stop stop-color="#FFF6B5"/>
<stop offset="1" stop-color="#000800"/>
</radialGradient>
<radialGradient id="paint11_radial_1819_1056" cx="0" cy="0" r="1" gradientUnits="userSpaceOnUse" gradientTransform="translate(52306.2 8043.35) scale(683.763 1155.02)">
<stop stop-color="#D19F77"/>
<stop offset="1" stop-color="white"/>
</radialGradient>
<radialGradient id="paint12_radial_1819_1056" cx="0" cy="0" r="1" gradientUnits="userSpaceOnUse" gradientTransform="translate(45036.8 6926.19) scale(561.65 993.068)">
<stop stop-color="#FFF6B5"/>
<stop offset="1" stop-color="#000800"/>
</radialGradient>
<linearGradient id="paint13_linear_1819_1056" x1="36516.6" y1="-57502.1" x2="36516.6" y2="-99148.6" gradientUnits="userSpaceOnUse">
<stop stop-color="#848D99"/>
<stop offset="1" stop-color="#CCD6EB"/>
</linearGradient>
<linearGradient id="paint14_linear_1819_1056" x1="38498.6" y1="-54083.3" x2="38498.6" y2="-92196" gradientUnits="userSpaceOnUse">
<stop stop-color="#586682"/>
<stop offset="1" stop-color="#444E59"/>
</linearGradient>
<linearGradient id="paint15_linear_1819_1056" x1="76599.6" y1="-54046.2" x2="76599.6" y2="-92158.6" gradientUnits="userSpaceOnUse">
<stop stop-color="#AAB9D6"/>
<stop offset="1" stop-color="#6B7A8F"/>
</linearGradient>
<linearGradient id="paint16_linear_1819_1056" x1="78160.2" y1="-57463.2" x2="78160.2" y2="-99110" gradientUnits="userSpaceOnUse">
<stop stop-color="#444E59"/>
<stop offset="1" stop-color="#586682"/>
</linearGradient>
<linearGradient id="paint17_linear_1819_1056" x1="6554.75" y1="532.843" x2="6609.47" y2="532.843" gradientUnits="userSpaceOnUse">
<stop stop-color="#B2BECF"/>
<stop offset="1" stop-color="#DDE8FF"/>
</linearGradient>
<linearGradient id="paint18_linear_1819_1056" x1="7409.71" y1="709.393" x2="7499.68" y2="709.393" gradientUnits="userSpaceOnUse">
<stop stop-color="#586682"/>
<stop offset="1" stop-color="#333A42"/>
</linearGradient>
<linearGradient id="paint19_linear_1819_1056" x1="4915.72" y1="1301.46" x2="4954.87" y2="1301.46" gradientUnits="userSpaceOnUse">
<stop stop-color="#AAB9D6"/>
<stop offset="1" stop-color="#6B7A8F"/>
</linearGradient>
<linearGradient id="paint20_linear_1819_1056" x1="49" y1="0" x2="49" y2="98" gradientUnits="userSpaceOnUse">
<stop stop-color="#AAB9D6"/>
<stop offset="1" stop-color="#596170"/>
</linearGradient>
<radialGradient id="paint21_radial_1819_1056" cx="0" cy="0" r="1" gradientUnits="userSpaceOnUse" gradientTransform="translate(49 48.5) rotate(90) scale(43)">
<stop stop-color="#A5540D"/>
<stop offset="1" stop-color="#3F2005"/>
</radialGradient>
<linearGradient id="paint22_linear_1819_1056" x1="37.5" y1="32.5" x2="59" y2="60.5" gradientUnits="userSpaceOnUse">
<stop stop-color="#D78743"/>
<stop offset="1" stop-color="#BF681E"/>
</linearGradient>
</defs>
</svg>
