<svg width="35" height="35" viewBox="0 0 35 35" fill="none" xmlns="http://www.w3.org/2000/svg">
<g filter="url(#filter0_i_1803_2446)">
<circle cx="17.5" cy="17.5" r="17.5" fill="url(#paint0_linear_1803_2446)"/>
</g>
<circle cx="17.4997" cy="17.321" r="15.3571" fill="url(#paint1_radial_1803_2446)"/>
<path d="M33.7186 19.8558C33.7186 20.5388 33.6776 21.2082 33.5956 21.8639C33.3497 23.5441 32.817 25.1014 31.9973 26.4948C28.5549 32.4371 20.4406 35.2648 13.5557 33.4616C9.25264 32.3551 5.60527 29.3635 3.39227 25.5112C3.22834 25.2244 3.06444 24.9375 2.90051 24.6097C1.79401 22.4376 1.13832 20.0197 1.01537 17.5608C0.974391 16.6183 1.01534 15.6757 1.13829 14.7331C1.17927 14.4872 1.22027 14.2413 1.26125 13.9955C1.39786 13.2578 1.60276 12.5474 1.87597 11.8644C2.98247 8.87276 5.07254 6.45486 7.57241 4.52873C8.39204 3.92767 9.22532 3.36759 10.0723 2.84849C14.9491 -0.102177 21.0143 0.676478 25.6452 3.79107C28.7188 5.84014 30.8499 8.66786 32.1613 11.8644C32.2706 12.1649 32.3798 12.4791 32.4891 12.807C32.5164 12.8616 32.5438 12.9299 32.5711 13.0119C32.6531 13.2305 32.7214 13.4627 32.776 13.7086C32.8853 14.0364 32.9809 14.3643 33.0629 14.6921C33.0902 14.8287 33.1175 14.9517 33.1448 15.061C33.1858 15.1839 33.1858 15.3069 33.2268 15.4298C33.2541 15.5664 33.2814 15.703 33.3087 15.8396C33.3361 16.0309 33.3634 16.2358 33.3907 16.4543V16.4953C33.4181 16.6592 33.4454 16.8095 33.4727 16.9461C33.4727 17.0008 33.4863 17.0417 33.5136 17.0691C33.5136 17.2603 33.5273 17.4652 33.5546 17.6838C33.5546 17.7248 33.5956 17.7657 33.5956 17.7657C33.6503 18.4761 33.6912 19.1728 33.7186 19.8558Z" fill="url(#paint2_linear_1803_2446)"/>
<path d="M29.7424 25.7161C29.2233 26.4265 28.6632 27.1095 28.0622 27.7652C28.0075 27.8199 27.9665 27.8609 27.9392 27.8882C28.308 27.5193 28.5949 26.9046 28.8408 26.4538C29.114 25.9347 29.3735 25.402 29.6194 24.8555C29.8243 24.3228 30.1112 23.79 30.2342 23.2163C30.3161 22.8474 30.1522 22.4376 30.1522 22.0688C30.1932 21.618 30.3161 21.2082 30.3981 20.7574C30.4391 20.5115 30.4391 20.1836 30.4391 19.8968C30.4117 19.2957 30.3708 18.6947 30.3161 18.0936C30.1522 16.8642 29.9063 15.6347 29.4555 14.4872C29.4282 14.4326 29.4009 14.3643 29.3736 14.2823C27.9802 10.676 24.9885 7.60234 21.2182 6.74173C18.4315 6.08602 15.4809 6.65977 12.899 7.84823C12.5712 8.01216 12.2433 8.17609 11.9155 8.29903C10.686 8.95473 9.49756 9.73338 8.39106 10.594C7.28456 11.3726 6.26003 12.3562 5.11255 13.1348C4.57979 13.4627 3.92407 13.7496 3.30935 13.5447C2.69463 13.3807 2.40775 12.848 2.12088 12.3562C2.03892 12.1923 1.95696 12.0283 1.875 11.8644C2.9815 8.87276 5.07156 6.45486 7.57143 4.52873C8.39106 3.92767 9.22434 3.36759 10.0713 2.84849C14.9481 -0.102177 21.0133 0.676478 25.6442 3.79107C26.7098 4.52874 27.6933 5.34837 28.5949 6.29094C29.3052 7.05593 29.9473 7.86189 30.5211 8.70884C32.2013 11.3317 33.4307 14.8151 33.6766 17.9707C33.7176 18.8722 33.7176 19.8148 33.2668 20.5935C33.0619 20.8803 32.857 21.2082 32.5701 21.4131C32.4882 21.495 32.4062 21.536 32.3242 21.618C31.5865 22.7245 30.9718 23.913 30.2342 25.0195C30.0702 25.2654 29.9063 25.4976 29.7424 25.7161V25.7161Z" fill="#FFDF80"/>
<path d="M31.096 19.8558C31.096 20.4295 31.055 20.9896 30.9731 21.536C30.8092 22.9294 30.3173 24.2408 29.6616 25.4293C26.9569 30.0192 21.0556 32.4371 15.605 31.6174L15.5641 31.5765C15.0723 31.5218 14.6078 31.4262 14.1707 31.2896C11.0561 30.5109 8.3923 28.5438 6.54814 25.962C6.22028 25.5249 5.91972 25.0741 5.64651 24.6096C5.48259 24.3637 5.34598 24.1042 5.2367 23.831C4.29413 22.0278 3.72037 19.9787 3.63841 17.8887C3.59743 17.11 3.63843 16.3314 3.76138 15.5117C3.80236 15.3068 3.80234 15.1019 3.84332 14.897C4.45804 11.5365 6.58909 8.91372 9.12994 6.90562C9.81296 6.38653 10.5096 5.90841 11.22 5.47127C12.3265 4.81557 13.433 4.40575 14.5805 4.15986C17.9 3.46318 21.4244 4.36477 24.2931 6.2909C26.8749 8.01212 28.6781 10.389 29.7846 13.0938C29.8666 13.3807 29.9895 13.6266 30.0715 13.8725C30.1124 13.9135 30.1125 13.9954 30.1125 14.0364C30.1944 14.255 30.2627 14.4599 30.3174 14.6511C30.3584 14.815 30.4403 15.0199 30.4403 15.1839C30.4403 15.1839 30.4539 15.1975 30.4813 15.2249C30.4813 15.3068 30.5223 15.3888 30.5223 15.4707C30.5496 15.58 30.5769 15.6893 30.6042 15.7986C30.6316 15.9079 30.6589 16.0172 30.6862 16.1265C30.6862 16.2357 30.6999 16.345 30.7272 16.4543C30.7682 16.6182 30.8091 16.7822 30.8501 16.9461C30.8501 16.9461 30.8501 16.9461 30.8501 16.9871C30.8501 17.11 30.8911 17.2329 30.8911 17.3969V17.4788C30.9321 17.6428 30.9321 17.8477 30.9731 18.0116C30.9731 18.0116 30.9731 18.0526 30.9731 18.0936C31.0004 18.3668 31.0277 18.6536 31.055 18.9542C31.0823 19.2547 31.096 19.5552 31.096 19.8558V19.8558Z" fill="url(#paint3_linear_1803_2446)"/>
<path d="M31.055 18.9546C26.588 22.1512 19.3753 23.4626 13.0641 22.2741C9.33484 21.6184 6.05632 20.0201 3.63841 17.8891C3.59743 17.1104 3.63843 16.3318 3.76138 15.5122C3.80236 15.3073 3.80234 15.1024 3.84332 14.8974C4.45804 11.537 6.58909 8.91416 9.12994 6.90606C9.81296 6.38697 10.5096 5.90885 11.22 5.47171C15.3591 2.97184 20.4408 3.66853 24.2931 6.29134C26.8749 8.01256 28.6781 10.3895 29.7846 13.0943C29.8666 13.3811 29.9895 13.627 30.0715 13.8729C30.1124 13.9139 30.1125 13.9959 30.1125 14.0368C30.1944 14.2554 30.2627 14.4603 30.3174 14.6516C30.3993 14.9248 30.4676 15.198 30.5223 15.4712C30.5496 15.5805 30.5769 15.6898 30.6042 15.799C30.6316 15.9083 30.6589 16.0176 30.6862 16.1269C30.6862 16.2362 30.6999 16.3455 30.7272 16.4547C30.7682 16.6187 30.8091 16.7826 30.8501 16.9465C30.8501 16.9465 30.8501 16.9465 30.8501 16.9875C30.8501 17.1104 30.8911 17.2334 30.8911 17.3973V17.4793C30.9321 17.6432 30.9321 17.8481 30.9731 18.012C30.9731 18.012 30.9731 18.053 30.9731 18.094C31.0004 18.3672 31.0277 18.6541 31.055 18.9546V18.9546Z" fill="url(#paint4_linear_1803_2446)"/>
<path style="mix-blend-mode:screen" d="M30.441 15.1839C30.318 14.856 30.1951 14.5692 30.1132 14.2003C29.9902 13.7495 29.8263 13.2577 29.4984 12.9299C29.2116 12.602 28.6788 12.3971 28.228 12.643C27.9821 12.766 27.8182 13.0119 27.6543 13.2987C26.8756 14.5282 26.2609 15.8806 25.4822 17.11C22.8184 21.577 19.2121 25.5112 14.95 28.5029C14.5402 28.7897 14.1304 29.1176 13.8845 29.5274C13.7205 29.8143 13.6386 30.1831 13.7206 30.47C13.8435 30.9617 14.4172 31.2076 14.8271 31.3716C15.073 31.4535 15.3189 31.5218 15.5647 31.5765C15.073 31.5218 14.6085 31.4262 14.1714 31.2896C11.0568 30.5109 8.39299 28.5438 6.54883 25.962C6.87668 26.1259 7.23184 26.1669 7.61434 26.0849C8.31102 25.921 8.84375 25.4292 9.37651 24.9375C12.655 21.7409 15.7696 18.2575 17.9416 14.2003C18.5973 12.9709 19.2121 11.6185 19.417 10.2251C19.6219 8.83174 19.417 7.31543 18.6384 6.16795C18.4335 5.88108 18.2285 5.59422 17.9007 5.43029C17.8187 5.38931 17.6958 5.34832 17.6138 5.30734C17.245 5.14341 16.9581 4.89753 16.5893 4.7336C15.9746 4.44673 15.2779 4.24182 14.5812 4.15986C17.9007 3.46318 21.4251 4.36477 24.2938 6.2909C26.8756 8.01212 28.6788 10.389 29.7853 13.0938C29.8673 13.3807 29.9902 13.6266 30.0721 13.8725C30.1131 13.9135 30.1132 13.9954 30.1132 14.0364C30.1951 14.255 30.2634 14.4599 30.3181 14.6511C30.3591 14.815 30.441 15.0199 30.441 15.1839V15.1839Z" fill="url(#paint5_linear_1803_2446)"/>
<defs>
<filter id="filter0_i_1803_2446" x="0" y="0" width="35" height="35" filterUnits="userSpaceOnUse" color-interpolation-filters="sRGB">
<feFlood flood-opacity="0" result="BackgroundImageFix"/>
<feBlend mode="normal" in="SourceGraphic" in2="BackgroundImageFix" result="shape"/>
<feColorMatrix in="SourceAlpha" type="matrix" values="0 0 0 0 0 0 0 0 0 0 0 0 0 0 0 0 0 0 127 0" result="hardAlpha"/>
<feMorphology radius="1.07143" operator="erode" in="SourceAlpha" result="effect1_innerShadow_1803_2446"/>
<feOffset/>
<feGaussianBlur stdDeviation="0.0178571"/>
<feComposite in2="hardAlpha" operator="arithmetic" k2="-1" k3="1"/>
<feColorMatrix type="matrix" values="0 0 0 0 0.517647 0 0 0 0 0.552941 0 0 0 0 0.6 0 0 0 1 0"/>
<feBlend mode="normal" in2="shape" result="effect1_innerShadow_1803_2446"/>
</filter>
<linearGradient id="paint0_linear_1803_2446" x1="17.5" y1="0" x2="17.5" y2="35" gradientUnits="userSpaceOnUse">
<stop stop-color="#AAB9D6"/>
<stop offset="1" stop-color="#596170"/>
</linearGradient>
<radialGradient id="paint1_radial_1803_2446" cx="0" cy="0" r="1" gradientUnits="userSpaceOnUse" gradientTransform="translate(17.4997 17.321) rotate(90) scale(16.4286)">
<stop stop-color="#E48100"/>
<stop offset="1" stop-color="#980000"/>
</radialGradient>
<linearGradient id="paint2_linear_1803_2446" x1="37.3659" y1="-0.675915" x2="34.5792" y2="29.1586" gradientUnits="userSpaceOnUse">
<stop stop-color="#FFCA2B"/>
<stop offset="1" stop-color="#D15B24"/>
</linearGradient>
<linearGradient id="paint3_linear_1803_2446" x1="0.892657" y1="37.9286" x2="1.95818" y2="17.4788" gradientUnits="userSpaceOnUse">
<stop stop-color="#FFCE3B"/>
<stop offset="1" stop-color="#CC6923"/>
</linearGradient>
<linearGradient id="paint4_linear_1803_2446" x1="1.58934" y1="25.5116" x2="2.61388" y2="2.97184" gradientUnits="userSpaceOnUse">
<stop stop-color="#FFCE3B"/>
<stop offset="1" stop-color="#CC6923"/>
</linearGradient>
<linearGradient id="paint5_linear_1803_2446" x1="44.8255" y1="5.10244" x2="8.92569" y2="40.5923" gradientUnits="userSpaceOnUse">
<stop stop-color="#F2DE6D"/>
<stop offset="1"/>
</linearGradient>
</defs>
</svg>
