<svg width="226" height="426" viewBox="0 0 226 426" fill="none" xmlns="http://www.w3.org/2000/svg">
<g filter="url(#filter0_d_1803_2445)">
<path d="M4 37.6034C4 28.3913 9.49666 20.0678 17.9689 16.4506L47.7903 3.71855C53.3696 1.33653 59.6639 1.25519 65.3029 3.49226L108.914 20.7937C111.614 21.8646 114.491 22.4146 117.396 22.4146H202C213.046 22.4146 222 31.3689 222 42.4146V381.052C222 393.754 211.703 404.052 199 404.052H115.997C114.007 404.052 112.026 404.31 110.103 404.82L64.3939 416.937C60.5313 417.961 56.4687 417.961 52.6061 416.937L21.1061 408.587C11.0219 405.913 4 396.787 4 386.355V37.6034Z" fill="#636262"/>
<path d="M4 37.6034C4 28.3913 9.49666 20.0678 17.9689 16.4506L47.7903 3.71855C53.3696 1.33653 59.6639 1.25519 65.3029 3.49226L108.914 20.7937C111.614 21.8646 114.491 22.4146 117.396 22.4146H202C213.046 22.4146 222 31.3689 222 42.4146V381.052C222 393.754 211.703 404.052 199 404.052H115.997C114.007 404.052 112.026 404.31 110.103 404.82L64.3939 416.937C60.5313 417.961 56.4687 417.961 52.6061 416.937L21.1061 408.587C11.0219 405.913 4 396.787 4 386.355V37.6034Z" fill="#484848"/>
<path d="M4 37.6034C4 28.3913 9.49666 20.0678 17.9689 16.4506L47.7903 3.71855C53.3696 1.33653 59.6639 1.25519 65.3029 3.49226L108.914 20.7937C111.614 21.8646 114.491 22.4146 117.396 22.4146H202C213.046 22.4146 222 31.3689 222 42.4146V381.052C222 393.754 211.703 404.052 199 404.052H115.997C114.007 404.052 112.026 404.31 110.103 404.82L64.3939 416.937C60.5313 417.961 56.4687 417.961 52.6061 416.937L21.1061 408.587C11.0219 405.913 4 396.787 4 386.355V37.6034Z" fill="url(#paint0_linear_1803_2445)"/>
</g>
<path d="M6 45.8352C6 38.3329 10.4146 31.5331 17.2674 28.4799L49.1815 14.2607C53.861 12.1758 59.1841 12.0689 63.9435 13.9642L109.615 32.1518C111.851 33.0425 114.237 33.5 116.644 33.5H201C211.493 33.5 220 42.0066 220 52.5V389.5C220 399.993 211.493 408.5 201 408.5H115.319C113.779 408.5 112.244 408.687 110.749 409.058L61.3403 421.301C58.1672 422.087 54.8449 422.041 51.6946 421.168L19.9241 412.36C11.6959 410.079 6 402.589 6 394.051V45.8352Z" fill="#7E7E7E"/>
<path d="M6 45.8352C6 38.3329 10.4146 31.5331 17.2674 28.4799L49.1815 14.2607C53.861 12.1758 59.1841 12.0689 63.9435 13.9642L109.615 32.1518C111.851 33.0425 114.237 33.5 116.644 33.5H201C211.493 33.5 220 42.0066 220 52.5V389.5C220 399.993 211.493 408.5 201 408.5H115.319C113.779 408.5 112.244 408.687 110.749 409.058L61.3403 421.301C58.1672 422.087 54.8449 422.041 51.6946 421.168L19.9241 412.36C11.6959 410.079 6 402.589 6 394.051V45.8352Z" fill="url(#paint1_linear_1803_2445)"/>
<path d="M6 45.8352C6 38.3329 10.4146 31.5331 17.2674 28.4799L49.1815 14.2607C53.861 12.1758 59.1841 12.0689 63.9435 13.9642L109.615 32.1518C111.851 33.0425 114.237 33.5 116.644 33.5H201C211.493 33.5 220 42.0066 220 52.5V389.5C220 399.993 211.493 408.5 201 408.5H115.319C113.779 408.5 112.244 408.687 110.749 409.058L61.3403 421.301C58.1672 422.087 54.8449 422.041 51.6946 421.168L19.9241 412.36C11.6959 410.079 6 402.589 6 394.051V45.8352Z" fill="url(#paint2_linear_1803_2445)"/>
<path d="M6 45.8352C6 38.3329 10.4146 31.5331 17.2674 28.4799L49.1815 14.2607C53.861 12.1758 59.1841 12.0689 63.9435 13.9642L109.615 32.1518C111.851 33.0425 114.237 33.5 116.644 33.5H201C211.493 33.5 220 42.0066 220 52.5V389.5C220 399.993 211.493 408.5 201 408.5H115.319C113.779 408.5 112.244 408.687 110.749 409.058L61.3403 421.301C58.1672 422.087 54.8449 422.041 51.6946 421.168L19.9241 412.36C11.6959 410.079 6 402.589 6 394.051V45.8352Z" fill="url(#paint3_linear_1803_2445)"/>
<g opacity="0.42">
<path d="M26.9998 29.5005C20.5998 31.9005 17.6664 34.8338 16.9998 36.0005C16.1664 38.6671 14.5998 44.6005 14.9998 47.0005C15.3998 49.4005 16.4998 50.0005 16.9998 50.0005C18.4998 47.5005 22.5998 42.0005 26.9998 40.0005C31.3997 38.0005 44.8331 37.8338 50.9998 38.0005C62.4998 38.1672 86.6997 38.4005 91.4997 38.0005C96.2998 37.6005 97.1664 36.5005 96.9997 36.0005L81.9997 29.5005L76.9998 30.5005L77.4998 27.0005L66.9998 22.5005C63.4998 21.3338 55.3998 19.1005 50.9998 19.5005C46.5998 19.9005 41.4998 23.0005 39.4998 24.5005V31.5005C37.9998 29.8338 33.3997 27.1005 26.9998 29.5005Z" fill="#8D8C8C"/>
<path d="M26.9998 29.5005C20.5998 31.9005 17.6664 34.8338 16.9998 36.0005C16.1664 38.6671 14.5998 44.6005 14.9998 47.0005C15.3998 49.4005 16.4998 50.0005 16.9998 50.0005C18.4998 47.5005 22.5998 42.0005 26.9998 40.0005C31.3997 38.0005 44.8331 37.8338 50.9998 38.0005C62.4998 38.1672 86.6997 38.4005 91.4997 38.0005C96.2998 37.6005 97.1664 36.5005 96.9997 36.0005L81.9997 29.5005L76.9998 30.5005L77.4998 27.0005L66.9998 22.5005C63.4998 21.3338 55.3998 19.1005 50.9998 19.5005C46.5998 19.9005 41.4998 23.0005 39.4998 24.5005V31.5005C37.9998 29.8338 33.3997 27.1005 26.9998 29.5005Z" fill="url(#paint4_linear_1803_2445)"/>
</g>
<defs>
<filter id="filter0_d_1803_2445" x="0" y="1.87109" width="226" height="423.834" filterUnits="userSpaceOnUse" color-interpolation-filters="sRGB">
<feFlood flood-opacity="0" result="BackgroundImageFix"/>
<feColorMatrix in="SourceAlpha" type="matrix" values="0 0 0 0 0 0 0 0 0 0 0 0 0 0 0 0 0 0 127 0" result="hardAlpha"/>
<feOffset dy="4"/>
<feGaussianBlur stdDeviation="2"/>
<feComposite in2="hardAlpha" operator="out"/>
<feColorMatrix type="matrix" values="0 0 0 0 0.270588 0 0 0 0 0.14902 0 0 0 0 0.0431373 0 0 0 0.25 0"/>
<feBlend mode="normal" in2="BackgroundImageFix" result="effect1_dropShadow_1803_2445"/>
<feBlend mode="normal" in="SourceGraphic" in2="effect1_dropShadow_1803_2445" result="shape"/>
</filter>
<linearGradient id="paint0_linear_1803_2445" x1="113" y1="0" x2="113" y2="418.5" gradientUnits="userSpaceOnUse">
<stop stop-color="#5B320E"/>
<stop offset="1" stop-color="#3A210B"/>
</linearGradient>
<linearGradient id="paint1_linear_1803_2445" x1="-19.8014" y1="106.807" x2="115.721" y2="127.217" gradientUnits="userSpaceOnUse">
<stop stop-color="#714926"/>
<stop offset="1" stop-color="#55351A"/>
</linearGradient>
<linearGradient id="paint2_linear_1803_2445" x1="220" y1="211.287" x2="5.87299" y2="208.138" gradientUnits="userSpaceOnUse">
<stop stop-color="#643610"/>
<stop offset="1" stop-color="#381C05"/>
</linearGradient>
<linearGradient id="paint3_linear_1803_2445" x1="113" y1="383.784" x2="113" y2="11" gradientUnits="userSpaceOnUse">
<stop stop-color="#4E2909"/>
<stop offset="1" stop-color="#723E10"/>
</linearGradient>
<linearGradient id="paint4_linear_1803_2445" x1="97.0186" y1="34.3213" x2="15.3405" y2="28.1157" gradientUnits="userSpaceOnUse">
<stop stop-color="#381C05"/>
<stop offset="1" stop-color="#643610"/>
</linearGradient>
</defs>
</svg>
