<svg width="405" height="1162" viewBox="0 0 405 1162" fill="none" xmlns="http://www.w3.org/2000/svg">
<g filter="url(#filter0_i_1826_1060)">
<path d="M123.5 214.5L159 230.5L167 231.5L176.5 205L165.5 184.5L146.5 168.5L136.5 179L138.5 152L98 132L64 144.5V271L123.5 214.5Z" fill="#D9D9D9"/>
<path d="M123.5 214.5L159 230.5L167 231.5L176.5 205L165.5 184.5L146.5 168.5L136.5 179L138.5 152L98 132L64 144.5V271L123.5 214.5Z" fill="url(#paint0_linear_1826_1060)"/>
</g>
<path d="M123.5 214.5L159 230.5L167 231.5L176.5 205L165.5 184.5L146.5 168.5L136.5 179L138.5 152L98 132L64 144.5V271L123.5 214.5Z" stroke="#3C1F05"/>
<path d="M94 47H185H235.5L213.5 116.75L273.5 155.5L191.5 186.5L196.5 248L181.5 271.5L190.75 280.25L185 312.5V696.75V809.5L203 845.5L213 851.5L214.5 858.5L224.5 857L264 875.5L272.5 932.5L330 1002.5L347.5 1081H185H94V47Z" fill="#7E7E7E"/>
<path d="M94 47H185H235.5L213.5 116.75L273.5 155.5L191.5 186.5L196.5 248L181.5 271.5L190.75 280.25L185 312.5V696.75V809.5L203 845.5L213 851.5L214.5 858.5L224.5 857L264 875.5L272.5 932.5L330 1002.5L347.5 1081H185H94V47Z" fill="url(#paint1_linear_1826_1060)"/>
<path d="M94 47H185H235.5L213.5 116.75L273.5 155.5L191.5 186.5L196.5 248L181.5 271.5L190.75 280.25L185 312.5V696.75V809.5L203 845.5L213 851.5L214.5 858.5L224.5 857L264 875.5L272.5 932.5L330 1002.5L347.5 1081H185H94V47Z" fill="url(#paint2_linear_1826_1060)"/>
<g filter="url(#filter1_d_1826_1060)">
<path d="M158.5 286L189 243L167.5 238.5H160L145.5 234L129.5 255L126.5 225.5L107 247.5L98 268L79 272L59 225.5L49.5 223.5V246L32 220L16 279.5L65 314.5L60.5 327L54.5 374L95.5 357H110.5L98 334L115.5 357L165.5 364.5L160 331.5L171 297.5L158.5 286Z" fill="url(#paint3_linear_1826_1060)"/>
</g>
<path d="M147 238L127.5 262.5L123 238L104.5 251L98.5 304L156.5 327L166 299L153.5 287.5L183.5 245.5L166 243H158.5L147 238Z" fill="url(#paint4_radial_1826_1060)" fill-opacity="0.51"/>
<g filter="url(#filter2_d_1826_1060)">
<path d="M158.5 718L189 675L167.5 670.5H160L145.5 666L129.5 687L126.5 657.5L107 679.5L98 700L79 704L59 657.5L49.5 655.5V678L32 652L16 711.5L65 746.5L60.5 759L54.5 806L95.5 789H110.5L134 799L145.5 787L164 827.5L183 815.5V789L174.25 787L183 777.5V745L171 729.5L158.5 718Z" fill="url(#paint5_linear_1826_1060)"/>
</g>
<path d="M147 670L127.5 694.5L123 670L104.5 683L98.5 736L156.5 759L166 731L153.5 719.5L183.5 677.5L166 675H158.5L147 670Z" fill="url(#paint6_radial_1826_1060)" fill-opacity="0.51"/>
<g filter="url(#filter3_d_1826_1060)">
<path d="M261.5 879L241 868L224 859L210.375 863.5V852.5L201 846.5L184 813.5L165 846.5L145 835.5L124 816.5L116.5 836.5L111 831L99 833L83 892.5L91.5 937.5L99 1042.5L121.5 987L162.5 970H177.5L165 947L182.5 970L227 1007V944.5L238 910.5L264.5 902.5L261.5 879Z" fill="url(#paint7_linear_1826_1060)"/>
</g>
<g filter="url(#filter4_d_1826_1060)">
<path d="M173.5 988L155 996.5L159.5 978.5L152.5 969.5L137 957.5L122.5 970.5L123.5 947L117.5 940H100L63 967.5L68.5 1019.5L100 1010.5L90 1081H112.5H148.5L152.5 1032L173.5 988Z" fill="url(#paint8_linear_1826_1060)"/>
</g>
<g filter="url(#filter5_d_1826_1060)">
<path d="M168.5 216L175.5 218L181.5 203.5L174.5 194.5L159 182.5L144.5 195.5L145.5 172L139.5 165H122L85 192.5L86 247.5L137.5 203.5L168.5 216Z" fill="url(#paint9_linear_1826_1060)"/>
</g>
<g filter="url(#filter6_d_1826_1060)">
<path d="M184.5 813L166 821.5L170.5 803.5L163.5 794.5L148 782.5L133.5 795.5L134.5 772L128.5 765H111L74 792.5L79.5 844.5L111 835.5L115.5 840.5L121.5 824L146 847.5L163.5 857L184.5 813Z" fill="url(#paint10_linear_1826_1060)"/>
</g>
<g filter="url(#filter7_d_1826_1060)">
<path d="M95.5 78L83 52.5L98.5 43.5L110.625 42.5L124.5 47L123 41.5L147 39.5L156 60L175 64L195 17.5L204.5 15.5V38L222 12L238 71.5L189 106.5L193.5 119L199.5 166L158.5 149H143.5L156 126L138.5 149L94 186V123.5L83 89.5L95.5 78Z" fill="url(#paint11_linear_1826_1060)"/>
</g>
<g filter="url(#filter8_d_1826_1060)">
<path d="M149 1040L141.5 1071.5L102 1084L181 1101.5L196.5 1110.5L208.625 1111.5L222.5 1107L221 1112.5L245 1114.5L254 1094L273 1090L293 1136.5L302.5 1138.5V1116L320 1142L342 1087L325.5 1005L305 980.5L269.5 934.5L265 906H235.5L217.5 938V984L162 943.5L138.5 1018L149 1040Z" fill="url(#paint12_linear_1826_1060)"/>
</g>
<g filter="url(#filter9_d_1826_1060)">
<path d="M130.025 366.116L131.244 372.033L124.285 375.579L132.352 378.438L136.474 400.911L79.2294 429.433L67.8603 425.311L51.4381 411.837L115 408L118 397.5L111.387 393.5L111.387 384.954L100.904 376.931L98.8206 359.024L89.8671 348.785L100.505 335.821L98.8206 307L111.387 316L124.286 312L126.025 325.982L132.352 335.821L128.872 346.37L121.027 353.816L130.025 366.116Z" fill="#D9D9D9"/>
<path d="M130.025 366.116L131.244 372.033L124.285 375.579L132.352 378.438L136.474 400.911L79.2294 429.433L67.8603 425.311L51.4381 411.837L115 408L118 397.5L111.387 393.5L111.387 384.954L100.904 376.931L98.8206 359.024L89.8671 348.785L100.505 335.821L98.8206 307L111.387 316L124.286 312L126.025 325.982L132.352 335.821L128.872 346.37L121.027 353.816L130.025 366.116Z" fill="url(#paint13_linear_1826_1060)"/>
</g>
<g filter="url(#filter10_d_1826_1060)">
<path d="M134.502 475.5L134.502 483.5L124.286 486.58L134.502 490L134.501 513L132.353 534.5L132.353 563.5L67.8613 536.311L51.4391 522.837L82.0007 528.244L111.964 511.468L111.388 495.954L100.905 487.932L98.8216 470.025L89.8681 459.786L100.905 386L119.501 394.5L131 407L132.353 422L119.501 437.5L132.353 437.5L134.502 457L126.502 465L134.502 475.5Z" fill="#D9D9D9"/>
<path d="M134.502 475.5L134.502 483.5L124.286 486.58L134.502 490L134.501 513L132.353 534.5L132.353 563.5L67.8613 536.311L51.4391 522.837L82.0007 528.244L111.964 511.468L111.388 495.954L100.905 487.932L98.8216 470.025L89.8681 459.786L100.905 386L119.501 394.5L131 407L132.353 422L119.501 437.5L132.353 437.5L134.502 457L126.502 465L134.502 475.5Z" fill="url(#paint14_linear_1826_1060)"/>
</g>
<g filter="url(#filter11_d_1826_1060)">
<path d="M134.502 657L134.502 649L131.001 646L134.502 642.5L134.501 619.5L132.353 598L126.501 589.5L132.353 583.5L132.353 569L128.001 557.5L132.355 543L118.501 536.5L98.8216 555L67.8613 596.189L51.4391 609.663L82.0007 604.256L93.5005 628.5L108.001 633.5L117.001 638L100.905 644.569L98.8216 662.476L89.8681 672.715L100.905 684L126.501 653.5L134.502 675.5L132.353 665L134.502 657Z" fill="#D9D9D9"/>
<path d="M134.502 657L134.502 649L131.001 646L134.502 642.5L134.501 619.5L132.353 598L126.501 589.5L132.353 583.5L132.353 569L128.001 557.5L132.355 543L118.501 536.5L98.8216 555L67.8613 596.189L51.4391 609.663L82.0007 604.256L93.5005 628.5L108.001 633.5L117.001 638L100.905 644.569L98.8216 662.476L89.8681 672.715L100.905 684L126.501 653.5L134.502 675.5L132.353 665L134.502 657Z" fill="url(#paint15_linear_1826_1060)"/>
</g>
<g filter="url(#filter12_d_1826_1060)">
<path d="M388.5 1076L370 1084.5L374.5 1066.5L367.5 1057.5L352 1045.5L337.5 1058.5L338.5 1035L332.5 1028H315L267.5 1043L255.5 1066.5L221.5 1084.5L283.5 1107.5L315 1098.5L319.5 1103.5L325.5 1087L350 1110.5L367.5 1120L388.5 1076Z" fill="url(#paint16_linear_1826_1060)"/>
</g>
<defs>
<filter id="filter0_i_1826_1060" x="63.5" y="131.457" width="113.545" height="142.708" filterUnits="userSpaceOnUse" color-interpolation-filters="sRGB">
<feFlood flood-opacity="0" result="BackgroundImageFix"/>
<feBlend mode="normal" in="SourceGraphic" in2="BackgroundImageFix" result="shape"/>
<feColorMatrix in="SourceAlpha" type="matrix" values="0 0 0 0 0 0 0 0 0 0 0 0 0 0 0 0 0 0 127 0" result="hardAlpha"/>
<feOffset dy="2"/>
<feGaussianBlur stdDeviation="3.1"/>
<feComposite in2="hardAlpha" operator="arithmetic" k2="-1" k3="1"/>
<feColorMatrix type="matrix" values="0 0 0 0 0.368627 0 0 0 0 0.196078 0 0 0 0 0.054902 0 0 0 0.19 0"/>
<feBlend mode="normal" in2="shape" result="effect1_innerShadow_1826_1060"/>
</filter>
<filter id="filter1_d_1826_1060" x="0.3" y="208.3" width="204.4" height="185.4" filterUnits="userSpaceOnUse" color-interpolation-filters="sRGB">
<feFlood flood-opacity="0" result="BackgroundImageFix"/>
<feColorMatrix in="SourceAlpha" type="matrix" values="0 0 0 0 0 0 0 0 0 0 0 0 0 0 0 0 0 0 127 0" result="hardAlpha"/>
<feOffset dy="4"/>
<feGaussianBlur stdDeviation="7.85"/>
<feComposite in2="hardAlpha" operator="out"/>
<feColorMatrix type="matrix" values="0 0 0 0 0.192157 0 0 0 0 0.0980392 0 0 0 0 0.0196078 0 0 0 0.77 0"/>
<feBlend mode="normal" in2="BackgroundImageFix" result="effect1_dropShadow_1826_1060"/>
<feBlend mode="normal" in="SourceGraphic" in2="effect1_dropShadow_1826_1060" result="shape"/>
</filter>
<filter id="filter2_d_1826_1060" x="0.3" y="640.3" width="204.4" height="206.9" filterUnits="userSpaceOnUse" color-interpolation-filters="sRGB">
<feFlood flood-opacity="0" result="BackgroundImageFix"/>
<feColorMatrix in="SourceAlpha" type="matrix" values="0 0 0 0 0 0 0 0 0 0 0 0 0 0 0 0 0 0 127 0" result="hardAlpha"/>
<feOffset dy="4"/>
<feGaussianBlur stdDeviation="7.85"/>
<feComposite in2="hardAlpha" operator="out"/>
<feColorMatrix type="matrix" values="0 0 0 0 0.192157 0 0 0 0 0.0980392 0 0 0 0 0.0196078 0 0 0 0.77 0"/>
<feBlend mode="normal" in2="BackgroundImageFix" result="effect1_dropShadow_1826_1060"/>
<feBlend mode="normal" in="SourceGraphic" in2="effect1_dropShadow_1826_1060" result="shape"/>
</filter>
<filter id="filter3_d_1826_1060" x="67.3" y="801.8" width="212.9" height="260.4" filterUnits="userSpaceOnUse" color-interpolation-filters="sRGB">
<feFlood flood-opacity="0" result="BackgroundImageFix"/>
<feColorMatrix in="SourceAlpha" type="matrix" values="0 0 0 0 0 0 0 0 0 0 0 0 0 0 0 0 0 0 127 0" result="hardAlpha"/>
<feOffset dy="4"/>
<feGaussianBlur stdDeviation="7.85"/>
<feComposite in2="hardAlpha" operator="out"/>
<feColorMatrix type="matrix" values="0 0 0 0 0.192157 0 0 0 0 0.0980392 0 0 0 0 0.0196078 0 0 0 0.77 0"/>
<feBlend mode="normal" in2="BackgroundImageFix" result="effect1_dropShadow_1826_1060"/>
<feBlend mode="normal" in="SourceGraphic" in2="effect1_dropShadow_1826_1060" result="shape"/>
</filter>
<filter id="filter4_d_1826_1060" x="47.3" y="928.3" width="141.9" height="172.4" filterUnits="userSpaceOnUse" color-interpolation-filters="sRGB">
<feFlood flood-opacity="0" result="BackgroundImageFix"/>
<feColorMatrix in="SourceAlpha" type="matrix" values="0 0 0 0 0 0 0 0 0 0 0 0 0 0 0 0 0 0 127 0" result="hardAlpha"/>
<feOffset dy="4"/>
<feGaussianBlur stdDeviation="7.85"/>
<feComposite in2="hardAlpha" operator="out"/>
<feColorMatrix type="matrix" values="0 0 0 0 0.192157 0 0 0 0 0.0980392 0 0 0 0 0.0196078 0 0 0 0.77 0"/>
<feBlend mode="normal" in2="BackgroundImageFix" result="effect1_dropShadow_1826_1060"/>
<feBlend mode="normal" in="SourceGraphic" in2="effect1_dropShadow_1826_1060" result="shape"/>
</filter>
<filter id="filter5_d_1826_1060" x="69.3" y="153.3" width="127.9" height="113.9" filterUnits="userSpaceOnUse" color-interpolation-filters="sRGB">
<feFlood flood-opacity="0" result="BackgroundImageFix"/>
<feColorMatrix in="SourceAlpha" type="matrix" values="0 0 0 0 0 0 0 0 0 0 0 0 0 0 0 0 0 0 127 0" result="hardAlpha"/>
<feOffset dy="4"/>
<feGaussianBlur stdDeviation="7.85"/>
<feComposite in2="hardAlpha" operator="out"/>
<feColorMatrix type="matrix" values="0 0 0 0 0.192157 0 0 0 0 0.0980392 0 0 0 0 0.0196078 0 0 0 0.77 0"/>
<feBlend mode="normal" in2="BackgroundImageFix" result="effect1_dropShadow_1826_1060"/>
<feBlend mode="normal" in="SourceGraphic" in2="effect1_dropShadow_1826_1060" result="shape"/>
</filter>
<filter id="filter6_d_1826_1060" x="58.3" y="753.3" width="141.9" height="123.4" filterUnits="userSpaceOnUse" color-interpolation-filters="sRGB">
<feFlood flood-opacity="0" result="BackgroundImageFix"/>
<feColorMatrix in="SourceAlpha" type="matrix" values="0 0 0 0 0 0 0 0 0 0 0 0 0 0 0 0 0 0 127 0" result="hardAlpha"/>
<feOffset dy="4"/>
<feGaussianBlur stdDeviation="7.85"/>
<feComposite in2="hardAlpha" operator="out"/>
<feColorMatrix type="matrix" values="0 0 0 0 0.192157 0 0 0 0 0.0980392 0 0 0 0 0.0196078 0 0 0 0.77 0"/>
<feBlend mode="normal" in2="BackgroundImageFix" result="effect1_dropShadow_1826_1060"/>
<feBlend mode="normal" in="SourceGraphic" in2="effect1_dropShadow_1826_1060" result="shape"/>
</filter>
<filter id="filter7_d_1826_1060" x="67.3" y="0.3" width="186.4" height="205.4" filterUnits="userSpaceOnUse" color-interpolation-filters="sRGB">
<feFlood flood-opacity="0" result="BackgroundImageFix"/>
<feColorMatrix in="SourceAlpha" type="matrix" values="0 0 0 0 0 0 0 0 0 0 0 0 0 0 0 0 0 0 127 0" result="hardAlpha"/>
<feOffset dy="4"/>
<feGaussianBlur stdDeviation="7.85"/>
<feComposite in2="hardAlpha" operator="out"/>
<feColorMatrix type="matrix" values="0 0 0 0 0.192157 0 0 0 0 0.0980392 0 0 0 0 0.0196078 0 0 0 0.77 0"/>
<feBlend mode="normal" in2="BackgroundImageFix" result="effect1_dropShadow_1826_1060"/>
<feBlend mode="normal" in="SourceGraphic" in2="effect1_dropShadow_1826_1060" result="shape"/>
</filter>
<filter id="filter8_d_1826_1060" x="86.3" y="894.3" width="271.4" height="267.4" filterUnits="userSpaceOnUse" color-interpolation-filters="sRGB">
<feFlood flood-opacity="0" result="BackgroundImageFix"/>
<feColorMatrix in="SourceAlpha" type="matrix" values="0 0 0 0 0 0 0 0 0 0 0 0 0 0 0 0 0 0 127 0" result="hardAlpha"/>
<feOffset dy="4"/>
<feGaussianBlur stdDeviation="7.85"/>
<feComposite in2="hardAlpha" operator="out"/>
<feColorMatrix type="matrix" values="0 0 0 0 0.192157 0 0 0 0 0.0980392 0 0 0 0 0.0196078 0 0 0 0.77 0"/>
<feBlend mode="normal" in2="BackgroundImageFix" result="effect1_dropShadow_1826_1060"/>
<feBlend mode="normal" in="SourceGraphic" in2="effect1_dropShadow_1826_1060" result="shape"/>
</filter>
<filter id="filter9_d_1826_1060" x="35.7375" y="295.3" width="116.437" height="153.834" filterUnits="userSpaceOnUse" color-interpolation-filters="sRGB">
<feFlood flood-opacity="0" result="BackgroundImageFix"/>
<feColorMatrix in="SourceAlpha" type="matrix" values="0 0 0 0 0 0 0 0 0 0 0 0 0 0 0 0 0 0 127 0" result="hardAlpha"/>
<feOffset dy="4"/>
<feGaussianBlur stdDeviation="7.85"/>
<feComposite in2="hardAlpha" operator="out"/>
<feColorMatrix type="matrix" values="0 0 0 0 0.192157 0 0 0 0 0.0980392 0 0 0 0 0.0196078 0 0 0 0.77 0"/>
<feBlend mode="normal" in2="BackgroundImageFix" result="effect1_dropShadow_1826_1060"/>
<feBlend mode="normal" in="SourceGraphic" in2="effect1_dropShadow_1826_1060" result="shape"/>
</filter>
<filter id="filter10_d_1826_1060" x="35.7395" y="374.3" width="114.462" height="208.9" filterUnits="userSpaceOnUse" color-interpolation-filters="sRGB">
<feFlood flood-opacity="0" result="BackgroundImageFix"/>
<feColorMatrix in="SourceAlpha" type="matrix" values="0 0 0 0 0 0 0 0 0 0 0 0 0 0 0 0 0 0 127 0" result="hardAlpha"/>
<feOffset dy="4"/>
<feGaussianBlur stdDeviation="7.85"/>
<feComposite in2="hardAlpha" operator="out"/>
<feColorMatrix type="matrix" values="0 0 0 0 0.192157 0 0 0 0 0.0980392 0 0 0 0 0.0196078 0 0 0 0.77 0"/>
<feBlend mode="normal" in2="BackgroundImageFix" result="effect1_dropShadow_1826_1060"/>
<feBlend mode="normal" in="SourceGraphic" in2="effect1_dropShadow_1826_1060" result="shape"/>
</filter>
<filter id="filter11_d_1826_1060" x="35.7395" y="524.8" width="114.462" height="178.9" filterUnits="userSpaceOnUse" color-interpolation-filters="sRGB">
<feFlood flood-opacity="0" result="BackgroundImageFix"/>
<feColorMatrix in="SourceAlpha" type="matrix" values="0 0 0 0 0 0 0 0 0 0 0 0 0 0 0 0 0 0 127 0" result="hardAlpha"/>
<feOffset dy="4"/>
<feGaussianBlur stdDeviation="7.85"/>
<feComposite in2="hardAlpha" operator="out"/>
<feColorMatrix type="matrix" values="0 0 0 0 0.192157 0 0 0 0 0.0980392 0 0 0 0 0.0196078 0 0 0 0.77 0"/>
<feBlend mode="normal" in2="BackgroundImageFix" result="effect1_dropShadow_1826_1060"/>
<feBlend mode="normal" in="SourceGraphic" in2="effect1_dropShadow_1826_1060" result="shape"/>
</filter>
<filter id="filter12_d_1826_1060" x="205.8" y="1016.3" width="198.4" height="123.4" filterUnits="userSpaceOnUse" color-interpolation-filters="sRGB">
<feFlood flood-opacity="0" result="BackgroundImageFix"/>
<feColorMatrix in="SourceAlpha" type="matrix" values="0 0 0 0 0 0 0 0 0 0 0 0 0 0 0 0 0 0 127 0" result="hardAlpha"/>
<feOffset dy="4"/>
<feGaussianBlur stdDeviation="7.85"/>
<feComposite in2="hardAlpha" operator="out"/>
<feColorMatrix type="matrix" values="0 0 0 0 0.192157 0 0 0 0 0.0980392 0 0 0 0 0.0196078 0 0 0 0.77 0"/>
<feBlend mode="normal" in2="BackgroundImageFix" result="effect1_dropShadow_1826_1060"/>
<feBlend mode="normal" in="SourceGraphic" in2="effect1_dropShadow_1826_1060" result="shape"/>
</filter>
<linearGradient id="paint0_linear_1826_1060" x1="66.8642" y1="200.493" x2="167.44" y2="178.819" gradientUnits="userSpaceOnUse">
<stop stop-color="#311905"/>
<stop offset="1" stop-color="#4A2606"/>
</linearGradient>
<linearGradient id="paint1_linear_1826_1060" x1="83.0284" y1="287.74" x2="141.926" y2="289.242" gradientUnits="userSpaceOnUse">
<stop stop-color="#714926"/>
<stop offset="1" stop-color="#55351A"/>
</linearGradient>
<linearGradient id="paint2_linear_1826_1060" x1="154.156" y1="648.628" x2="154.156" y2="47.0002" gradientUnits="userSpaceOnUse">
<stop stop-color="#311905"/>
<stop offset="1" stop-color="#4A2606"/>
</linearGradient>
<linearGradient id="paint3_linear_1826_1060" x1="88.5" y1="288.5" x2="171" y2="290.545" gradientUnits="userSpaceOnUse">
<stop stop-color="#381C05"/>
<stop offset="1" stop-color="#4C290B"/>
</linearGradient>
<radialGradient id="paint4_radial_1826_1060" cx="0" cy="0" r="1" gradientUnits="userSpaceOnUse" gradientTransform="translate(148.5 256) rotate(154.759) scale(38.6943 57.9524)">
<stop stop-color="#643610"/>
<stop offset="1" stop-color="#643610" stop-opacity="0"/>
</radialGradient>
<linearGradient id="paint5_linear_1826_1060" x1="107.997" y1="756.585" x2="151.503" y2="686.459" gradientUnits="userSpaceOnUse">
<stop stop-color="#381C05"/>
<stop offset="1" stop-color="#4C290B"/>
</linearGradient>
<radialGradient id="paint6_radial_1826_1060" cx="0" cy="0" r="1" gradientUnits="userSpaceOnUse" gradientTransform="translate(148.5 688) rotate(154.759) scale(38.6943 57.9524)">
<stop stop-color="#643610"/>
<stop offset="1" stop-color="#643610" stop-opacity="0"/>
</radialGradient>
<linearGradient id="paint7_linear_1826_1060" x1="83.0001" y1="907.955" x2="238" y2="903.544" gradientUnits="userSpaceOnUse">
<stop stop-color="#381C05"/>
<stop offset="1" stop-color="#643610"/>
</linearGradient>
<linearGradient id="paint8_linear_1826_1060" x1="97.9566" y1="968.183" x2="159.485" y2="965.272" gradientUnits="userSpaceOnUse">
<stop stop-color="#381C05"/>
<stop offset="1" stop-color="#532F11"/>
</linearGradient>
<linearGradient id="paint9_linear_1826_1060" x1="119.957" y1="193.183" x2="181.485" y2="190.272" gradientUnits="userSpaceOnUse">
<stop stop-color="#381C05"/>
<stop offset="1" stop-color="#532F11"/>
</linearGradient>
<linearGradient id="paint10_linear_1826_1060" x1="108.957" y1="793.183" x2="170.485" y2="790.272" gradientUnits="userSpaceOnUse">
<stop stop-color="#381C05"/>
<stop offset="1" stop-color="#532F11"/>
</linearGradient>
<linearGradient id="paint11_linear_1826_1060" x1="238" y1="86.9555" x2="83" y2="82.5445" gradientUnits="userSpaceOnUse">
<stop stop-color="#381C05"/>
<stop offset="1" stop-color="#643610"/>
</linearGradient>
<linearGradient id="paint12_linear_1826_1060" x1="336" y1="1067.04" x2="181" y2="1071.46" gradientUnits="userSpaceOnUse">
<stop stop-color="#381C05"/>
<stop offset="1" stop-color="#643610"/>
</linearGradient>
<linearGradient id="paint13_linear_1826_1060" x1="108.549" y1="399.692" x2="125.395" y2="339.453" gradientUnits="userSpaceOnUse">
<stop stop-color="#381C05"/>
<stop offset="1" stop-color="#502D0F"/>
</linearGradient>
<linearGradient id="paint14_linear_1826_1060" x1="108.549" y1="510.692" x2="125.395" y2="450.454" gradientUnits="userSpaceOnUse">
<stop stop-color="#381C05"/>
<stop offset="1" stop-color="#4A290E"/>
</linearGradient>
<linearGradient id="paint15_linear_1826_1060" x1="86.522" y1="660.164" x2="138.57" y2="610.053" gradientUnits="userSpaceOnUse">
<stop stop-color="#381C05"/>
<stop offset="1" stop-color="#41250D"/>
</linearGradient>
<linearGradient id="paint16_linear_1826_1060" x1="312.957" y1="1056.18" x2="374.485" y2="1053.27" gradientUnits="userSpaceOnUse">
<stop stop-color="#381C05"/>
<stop offset="1" stop-color="#532F11"/>
</linearGradient>
</defs>
</svg>
