<svg width="149" height="204" viewBox="0 0 149 204" fill="none" xmlns="http://www.w3.org/2000/svg">
<g clip-path="url(#clip0_1803_2438)">
<g filter="url(#filter0_i_1803_2438)">
<path d="M100.997 -69.8625C91.5686 -73.1791 81.8312 -75.7073 74 -77.6646L74 -81.1172L76.576 -80.4919C91.5171 -76.7404 106.149 -72.581 118.566 -66.709C133.816 -59.505 145 -50.5338 145 -39.4967L144.105 60.5019L144.105 160C144.105 171.01 134.25 179.796 119 187C106.583 192.872 91.5171 196.716 76.5761 200.467L74 201.12L74 183.5C95.0039 189.5 137.68 180.839 137.68 159.499L137.68 136.174L137.68 134.027L137.68 -39.4967C137.68 -52.8446 121.966 -62.1147 104.449 -68.6392C103.315 -69.056 102.165 -69.4638 100.997 -69.8625Z" fill="#676767"/>
<path d="M100.997 -69.8625C91.5686 -73.1791 81.8312 -75.7073 74 -77.6646L74 -81.1172L76.576 -80.4919C91.5171 -76.7404 106.149 -72.581 118.566 -66.709C133.816 -59.505 145 -50.5338 145 -39.4967L144.105 60.5019L144.105 160C144.105 171.01 134.25 179.796 119 187C106.583 192.872 91.5171 196.716 76.5761 200.467L74 201.12L74 183.5C95.0039 189.5 137.68 180.839 137.68 159.499L137.68 136.174L137.68 134.027L137.68 -39.4967C137.68 -52.8446 121.966 -62.1147 104.449 -68.6392C103.315 -69.056 102.165 -69.4638 100.997 -69.8625Z" fill="url(#paint0_linear_1803_2438)"/>
</g>
<g filter="url(#filter1_i_1803_2438)">
<path d="M119.066 -66.7102C134.317 -59.5061 144.054 -50.535 144.054 -39.4978L144.054 159.498C144.054 170.508 134.317 179.479 119.066 186.683C106.65 192.555 91.9663 187.096 77.0253 190.848L74.5008 191.5L74.5008 204L79.1376 202.831C81.8167 202.161 84.4615 201.472 87.0719 200.765L89.0297 199.27L91.7603 199.487C102.631 196.443 113.09 192.99 122.312 188.64C138.644 180.92 149 171.269 149 159.498L149 7.83163L147.763 4.67812L149 2.85672L149 -20.0604L147.454 -22.0993L149 -23.4314L149 -39.4978C149 -51.269 138.644 -60.9198 122.312 -68.6404C109.587 -74.6755 94.5424 -78.9707 79.1377 -82.831L74.5008 -84L74.5008 -81.1184L77.0253 -80.4931C91.9664 -76.7415 106.65 -72.5822 119.066 -66.7102Z" fill="#919191"/>
<path d="M119.066 -66.7102C134.317 -59.5061 144.054 -50.535 144.054 -39.4978L144.054 159.498C144.054 170.508 134.317 179.479 119.066 186.683C106.65 192.555 91.9663 187.096 77.0253 190.848L74.5008 191.5L74.5008 204L79.1376 202.831C81.8167 202.161 84.4615 201.472 87.0719 200.765L89.0297 199.27L91.7603 199.487C102.631 196.443 113.09 192.99 122.312 188.64C138.644 180.92 149 171.269 149 159.498L149 7.83163L147.763 4.67812L149 2.85672L149 -20.0604L147.454 -22.0993L149 -23.4314L149 -39.4978C149 -51.269 138.644 -60.9198 122.312 -68.6404C109.587 -74.6755 94.5424 -78.9707 79.1377 -82.831L74.5008 -84L74.5008 -81.1184L77.0253 -80.4931C91.9664 -76.7415 106.65 -72.5822 119.066 -66.7102Z" fill="url(#paint1_linear_1803_2438)"/>
</g>
<path d="M47.507 -69.8625C56.9353 -73.1791 66.6727 -75.7073 74.5039 -77.6646L74.5039 -81.1172L71.9279 -80.4919C56.9868 -76.7404 42.3549 -72.581 29.9383 -66.709C14.6881 -59.505 4.89915 -50.5338 4.89915 -39.4967L4.89914 159.499C4.89914 170.509 14.6881 179.48 29.9383 186.684C42.3548 192.556 56.9868 196.716 71.9278 200.467L74.5039 201.12L74.5039 183.5C53.5 189.5 10.8241 180.839 10.8241 159.499L10.8241 136.174L10.8241 134.027L10.8241 -39.4967C10.8241 -52.8446 26.5379 -62.1147 44.055 -68.6392C45.1885 -69.056 46.3391 -69.4638 47.507 -69.8625Z" fill="#676767"/>
<path d="M47.507 -69.8625C56.9353 -73.1791 66.6727 -75.7073 74.5039 -77.6646L74.5039 -81.1172L71.9279 -80.4919C56.9868 -76.7404 42.3549 -72.581 29.9383 -66.709C14.6881 -59.505 4.89915 -50.5338 4.89915 -39.4967L4.89914 159.499C4.89914 170.509 14.6881 179.48 29.9383 186.684C42.3548 192.556 56.9868 196.716 71.9278 200.467L74.5039 201.12L74.5039 183.5C53.5 189.5 10.8241 180.839 10.8241 159.499L10.8241 136.174L10.8241 134.027L10.8241 -39.4967C10.8241 -52.8446 26.5379 -62.1147 44.055 -68.6392C45.1885 -69.056 46.3391 -69.4638 47.507 -69.8625Z" fill="#5B3717"/>
<path d="M30.1349 -66.7102C42.6349 -72.5822 57.3651 -76.7415 72.4066 -80.4931L75 -81.1184L75 -84L70.2801 -82.831C60.944 -80.4931 51.7116 -78.0192 43.0498 -75.0832L41.7531 -73.3162L38.278 -73.3978C34.2842 -71.9298 30.4461 -70.353 26.8154 -68.6404C10.3735 -60.9198 1.38281e-05 -51.269 1.33135e-05 -39.4978L5.85218e-06 131.198L1.29669 133.318L5.67869e-06 135.167L4.61516e-06 159.498C4.10063e-06 171.269 10.3735 180.92 26.8154 188.64C39.6784 194.675 54.8236 198.944 70.2801 202.831L75 204L75 192.5L72.4066 191.848C57.3651 188.096 42.6349 192.555 30.1349 186.683C14.7822 179.479 4.9274 170.508 4.9274 159.498L4.9274 -39.4978C4.9274 -50.535 14.7822 -59.5061 30.1349 -66.7102Z" fill="url(#paint2_linear_1803_2438)"/>
<path d="M30.1349 -66.7102C42.6349 -72.5822 57.3651 -76.7415 72.4066 -80.4931L75 -81.1184L75 -84L70.2801 -82.831C60.944 -80.4931 51.7116 -78.0192 43.0498 -75.0832L41.7531 -73.3162L38.278 -73.3978C34.2842 -71.9298 30.4461 -70.353 26.8154 -68.6404C10.3735 -60.9198 1.38281e-05 -51.269 1.33135e-05 -39.4978L5.85218e-06 131.198L1.29669 133.318L5.67869e-06 135.167L4.61516e-06 159.498C4.10063e-06 171.269 10.3735 180.92 26.8154 188.64C39.6784 194.675 54.8236 198.944 70.2801 202.831L75 204L75 192.5L72.4066 191.848C57.3651 188.096 42.6349 192.555 30.1349 186.683C14.7822 179.479 4.9274 170.508 4.9274 159.498L4.9274 -39.4978C4.9274 -50.535 14.7822 -59.5061 30.1349 -66.7102Z" fill="#71451F"/>
<path d="M91.7598 199.489L88.5139 195.52L89.0292 199.271L91.7598 199.489Z" fill="#623C1B"/>
<path d="M87.0695 200.766L89.0273 199.271L88.5121 195.52L87.0695 200.766Z" fill="#975C2A"/>
</g>
<defs>
<filter id="filter0_i_1803_2438" x="74" y="-81.1172" width="71" height="286.236" filterUnits="userSpaceOnUse" color-interpolation-filters="sRGB">
<feFlood flood-opacity="0" result="BackgroundImageFix"/>
<feBlend mode="normal" in="SourceGraphic" in2="BackgroundImageFix" result="shape"/>
<feColorMatrix in="SourceAlpha" type="matrix" values="0 0 0 0 0 0 0 0 0 0 0 0 0 0 0 0 0 0 127 0" result="hardAlpha"/>
<feOffset dy="4"/>
<feGaussianBlur stdDeviation="2"/>
<feComposite in2="hardAlpha" operator="arithmetic" k2="-1" k3="1"/>
<feColorMatrix type="matrix" values="0 0 0 0 0 0 0 0 0 0 0 0 0 0 0 0 0 0 0.25 0"/>
<feBlend mode="normal" in2="shape" result="effect1_innerShadow_1803_2438"/>
</filter>
<filter id="filter1_i_1803_2438" x="74.5" y="-84" width="74.5" height="290" filterUnits="userSpaceOnUse" color-interpolation-filters="sRGB">
<feFlood flood-opacity="0" result="BackgroundImageFix"/>
<feBlend mode="normal" in="SourceGraphic" in2="BackgroundImageFix" result="shape"/>
<feColorMatrix in="SourceAlpha" type="matrix" values="0 0 0 0 0 0 0 0 0 0 0 0 0 0 0 0 0 0 127 0" result="hardAlpha"/>
<feOffset dy="2"/>
<feGaussianBlur stdDeviation="1"/>
<feComposite in2="hardAlpha" operator="arithmetic" k2="-1" k3="1"/>
<feColorMatrix type="matrix" values="0 0 0 0 0.615686 0 0 0 0 0.376471 0 0 0 0 0.172549 0 0 0 1 0"/>
<feBlend mode="normal" in2="shape" result="effect1_innerShadow_1803_2438"/>
</filter>
<linearGradient id="paint0_linear_1803_2438" x1="140" y1="157.5" x2="94.5" y2="190.5" gradientUnits="userSpaceOnUse">
<stop stop-color="#43270F"/>
<stop offset="1" stop-color="#774820"/>
</linearGradient>
<linearGradient id="paint1_linear_1803_2438" x1="123" y1="-2" x2="84.5295" y2="204" gradientUnits="userSpaceOnUse">
<stop stop-color="#4A280B"/>
<stop offset="1" stop-color="#71451F"/>
</linearGradient>
<linearGradient id="paint2_linear_1803_2438" x1="109805" y1="78074.2" x2="189264" y2="78074.2" gradientUnits="userSpaceOnUse">
<stop stop-color="#848D99"/>
<stop offset="1" stop-color="#586682"/>
</linearGradient>
<clipPath id="clip0_1803_2438">
<rect width="149" height="204" fill="white"/>
</clipPath>
</defs>
</svg>
