<svg width="310" height="102" viewBox="0 0 310 102" fill="none" xmlns="http://www.w3.org/2000/svg">
<path d="M55.5022 11.5H71.5686L72.9007 12.3156L74.9396 11.5H97.8567L99.6781 12.1524L102.832 11.5H254.498C266.269 11.5 275.92 16.9642 283.64 25.5819C287.99 30.4481 291.443 35.9667 294.487 41.7028L294.27 43.1436L295.765 44.1766C296.472 45.554 297.161 46.9495 297.831 48.3631L299 50.8098L297.831 53.2837C293.944 61.3848 289.675 69.3229 283.64 76.0649C275.92 84.6826 266.269 90.1196 254.498 90.1196H230.167L228.318 89.44L226.198 90.1196H55.5022C43.731 90.1196 34.0802 84.6826 26.3596 76.0649C24.647 74.1619 23.0702 72.1502 21.6022 70.0569L21.6838 68.2355L19.9168 67.5559C16.9808 63.016 14.5069 58.177 12.169 53.2837L11 50.8098L12.169 48.3631C16.0293 40.2348 20.3245 32.2967 26.3596 25.5819C34.0802 16.9642 43.731 11.5 55.5022 11.5Z" fill="#6D421D"/>
<g filter="url(#filter0_di_1800_2298)">
<path d="M55.502 17.2363H70.6713L71.0519 17.7528L72.0034 17.2363H94.5943L95.0837 18.0247L96.9866 17.2363H254.498C271.896 17.2363 282.39 31.3726 288.86 43.2798L288.506 43.9594L289.458 44.3943C290.654 46.6779 291.714 48.8527 292.639 50.8101C286.767 63.1793 275.838 84.411 254.498 84.411H231.173L230.412 83.7041L229.025 84.411H55.502C42.154 84.411 32.8839 76.1195 26.3595 66.8765L26.4954 65.4901L25.1361 65.0551C21.8195 60.0802 19.2913 54.9422 17.334 50.8101C23.206 38.468 34.1616 17.2363 55.502 17.2363Z" fill="#B3B3B3"/>
<path d="M55.502 17.2363H70.6713L71.0519 17.7528L72.0034 17.2363H94.5943L95.0837 18.0247L96.9866 17.2363H254.498C271.896 17.2363 282.39 31.3726 288.86 43.2798L288.506 43.9594L289.458 44.3943C290.654 46.6779 291.714 48.8527 292.639 50.8101C286.767 63.1793 275.838 84.411 254.498 84.411H231.173L230.412 83.7041L229.025 84.411H55.502C42.154 84.411 32.8839 76.1195 26.3595 66.8765L26.4954 65.4901L25.1361 65.0551C21.8195 60.0802 19.2913 54.9422 17.334 50.8101C23.206 38.468 34.1616 17.2363 55.502 17.2363Z" fill="#71451F"/>
</g>
<path style="mix-blend-mode:screen" d="M18.5586 50.8094C21.0959 50.6825 23.6422 50.5466 26.1976 50.4016C33.7279 36.8362 40.1708 25.1738 56.2916 25.2553L115.882 25.5543L56.4547 25.9078C40.198 25.9893 33.9182 38.0324 27.0947 50.755C28.5899 54.0716 30.1938 57.1979 31.9881 60.3514C29.7317 57.3067 27.9375 54.2619 26.1976 51.2444C23.6422 51.0994 21.0959 50.9544 18.5586 50.8094Z" fill="url(#paint0_radial_1800_2298)"/>
<path style="mix-blend-mode:multiply" d="M94.5949 17.2363C92.7735 20.0092 89.2666 24.1142 87.2549 25.555C80.2411 29.5512 72.6837 32.7863 64.7728 35.2873C61.1571 37.9515 57.324 40.3438 53.0016 42.4098C53.1375 40.1806 53.7084 37.5709 54.2249 35.9941C59.0367 33.1125 65.6155 28.3007 68.633 25.555C69.2311 23.1083 70.0195 20.1995 71.0525 17.7528C70.9257 17.5897 70.7988 17.4176 70.6719 17.2363C69.2583 19.8189 68.3884 23.054 67.7631 25.555C63.5494 29.4697 58.8464 32.7047 53.7084 35.6407C53.0831 38.0058 52.6753 40.4253 52.5666 42.872C51.887 43.47 50.718 44.1769 49.8753 44.4759C44.1664 49.9129 34.9778 59.0744 32.4224 61.0045C30.3563 62.6084 27.8824 63.9133 25.1367 65.0551L26.496 65.4901C28.5621 64.0492 30.9544 62.7715 32.9661 61.8201C41.6381 52.9033 48.9781 45.6449 52.9744 43.171C56.9706 40.6428 61.5105 38.4136 65.0174 35.7223C72.9827 32.9766 81.7091 29.1706 88.886 25.555C90.7074 23.0268 92.8551 20.2267 95.0843 18.0247C94.9211 17.771 94.758 17.5082 94.5949 17.2363Z" fill="url(#paint1_radial_1800_2298)"/>
<path style="mix-blend-mode:screen" d="M95.0855 18.0247C92.8563 20.2267 90.7087 23.0268 88.8873 25.555C81.7104 29.1706 72.9839 32.9766 65.0187 35.7223C61.5118 38.4136 56.9719 40.6428 52.9756 43.171C48.9794 45.6449 41.6394 52.9033 32.9673 61.8201C30.9556 62.7715 28.5633 64.0492 26.4973 65.4901L26.3613 66.8765C28.2099 64.892 31.01 63.2881 33.4838 62.5541C38.9481 56.4102 46.3696 48.1459 53.1931 43.5244C57.5156 40.9418 61.8924 38.4952 65.2362 36.1572C73.8811 33.1125 82.1997 29.7143 90.1106 25.555C91.5243 22.4287 94.6506 19.1393 96.9885 17.2363C96.3542 17.5082 95.7199 17.771 95.0855 18.0247Z" fill="url(#paint2_radial_1800_2298)"/>
<path style="mix-blend-mode:screen" d="M71.0508 17.7528C70.0178 20.1995 69.2294 23.1083 68.6313 25.555C65.6138 28.3007 59.0349 33.1125 54.2232 35.9941C53.6523 37.7612 53.027 40.8059 52.9727 43.171C53.1176 42.8448 53.2626 42.5276 53.4076 42.2195C53.5979 40.0991 54.0057 38.2505 54.6581 36.3203C59.8777 33.0309 64.9613 29.524 69.4741 25.555C69.909 22.5918 70.5071 19.7917 72.0023 17.2363C71.6942 17.4176 71.377 17.5897 71.0508 17.7528Z" fill="url(#paint3_radial_1800_2298)"/>
<path style="mix-blend-mode:multiply" d="M280.242 44.9648C276.627 47.9008 272.495 52.1417 268.118 57.0894C258.413 63.3963 246.37 70.4101 234.598 76.0918C232.369 78.7016 230.602 81.5017 229.025 84.4105C229.478 84.1749 229.941 83.9393 230.412 83.7037C231.907 80.9852 233.674 78.4841 235.55 76.0918C242.265 73.5636 257.978 64.1303 268.58 57.47C272.25 53.3922 276.328 49.5047 280.732 45.8075C283.314 44.992 285.924 44.3395 288.507 43.9589C288.615 43.7233 288.733 43.4968 288.86 43.2793C286.06 43.6055 283.124 44.1764 280.242 44.9648Z" fill="url(#paint4_radial_1800_2298)"/>
<path style="mix-blend-mode:multiply" d="M125.423 20.7432C123.683 22.5646 121.699 24.2772 119.551 25.5549C118.681 28.79 117.458 31.9978 116.234 35.2329C118.001 31.6988 119.605 28.6541 121.535 25.5549C123.003 23.951 124.363 22.3471 125.423 20.7432Z" fill="url(#paint5_radial_1800_2298)"/>
<path style="mix-blend-mode:screen" d="M125.423 20.7432C124.363 22.3471 123.003 23.951 121.535 25.5549C119.605 28.6541 118.001 31.6988 116.234 35.2329C118.599 32.0522 120.91 28.8715 123.003 25.5549C123.928 24.0326 124.798 22.4286 125.423 20.7432Z" fill="url(#paint6_radial_1800_2298)"/>
<path style="mix-blend-mode:multiply" d="M211.573 76.0923C211.41 78.0315 211.5 79.9707 211.845 81.9099C212.144 79.8982 212.715 77.8593 213.394 76.0923C214.753 74.1078 217.227 71.0902 219.348 68.6436C216.983 71.199 214.509 73.7544 211.573 76.0923Z" fill="url(#paint7_radial_1800_2298)"/>
<path style="mix-blend-mode:screen" opacity="0.5" d="M213.395 76.0923C212.716 77.8593 212.145 79.8982 211.846 81.9099C212.806 79.9707 213.776 78.0315 214.755 76.0923C216.494 73.5913 217.908 71.1174 219.349 68.6436C217.228 71.0902 214.755 74.1078 213.395 76.0923Z" fill="url(#paint8_radial_1800_2298)"/>
<path d="M28.2898 27.2946C35.4939 19.2478 44.465 14.1098 55.5022 14.1098H254.498C265.508 14.1098 274.479 19.2478 281.683 27.2946C287.555 33.8462 291.714 41.594 295.466 49.4777L296.118 50.8098H299L297.831 48.3631C297.161 46.9495 296.472 45.554 295.765 44.1766L294.27 43.1436L294.487 41.7028C291.443 35.9667 287.99 30.4481 283.64 25.5819C275.92 16.9642 266.269 11.5 254.498 11.5H102.832L99.6781 12.1524L97.8567 11.5H74.9396L72.9007 12.3156L71.5686 11.5H55.5022C43.731 11.5 34.0802 16.9642 26.3596 25.5819C20.3245 32.2967 16.0293 40.2348 12.169 48.3631L11 50.8098H13.8816L14.5069 49.4777C18.2585 41.594 22.4178 33.8462 28.2898 27.2946Z" fill="#935825"/>
<path d="M17.3354 50.8094C23.2074 38.4673 34.163 17.2357 55.5033 17.2357H70.6727H72.0048H94.5957H96.988H254.499C271.898 17.2357 282.391 31.372 288.861 43.2791C289.061 43.6597 289.26 44.0312 289.459 44.3937C290.655 46.6772 291.716 48.8521 292.64 50.8094H296.12L295.467 49.4773C291.716 41.5936 287.556 33.8458 281.684 27.3214C274.48 19.2474 265.509 14.1094 254.499 14.1094H55.5033C44.4662 14.1094 35.495 19.2474 28.291 27.3214C22.419 33.8458 18.2596 41.5936 14.5081 49.4773L13.8828 50.8094H17.3354Z" fill="#71451F"/>
<path d="M25.1375 65.0546C21.8209 60.0797 19.2927 54.9417 17.3354 50.8096H13.8828L14.5081 52.1688C18.2596 60.0525 22.419 67.7731 28.291 74.3248C35.495 82.3716 44.4662 87.5368 55.5033 87.5368H254.499C265.509 87.5368 274.48 82.3716 281.684 74.3248C287.556 67.7731 291.716 60.0525 295.467 52.1688L296.12 50.8096H292.64C286.768 63.1788 275.839 84.4105 254.499 84.4105H231.174H229.027H55.5033C42.1554 84.4105 32.8853 76.119 26.3608 66.876C25.944 66.278 25.5362 65.6708 25.1375 65.0546Z" fill="#71451F"/>
<path d="M28.2898 74.3248C22.4178 67.7731 18.2585 60.0525 14.5069 52.1688L13.8816 50.8096H11L12.169 53.2834C14.5069 58.1768 16.9808 63.0157 19.9168 67.5557L21.6838 68.2353L21.6022 70.0567C23.0702 72.15 24.647 74.1617 26.3596 76.0646C34.0802 84.6823 43.731 90.1194 55.5022 90.1194H226.198L228.318 89.4397L230.167 90.1194H254.498C266.269 90.1194 275.92 84.6823 283.64 76.0646C289.675 69.3227 293.944 61.3846 297.831 53.2834L299 50.8096H296.118L295.466 52.1688C291.714 60.0525 287.555 67.7731 281.683 74.3248C274.479 82.3716 265.508 87.5368 254.498 87.5368H55.5022C44.465 87.5368 35.4939 82.3716 28.2898 74.3248Z" fill="#935825"/>
<path d="M71.5675 11.5L71.0781 15.6322L72.8995 12.3156L71.5675 11.5Z" fill="#71451F"/>
<path d="M71.0781 15.6322L74.9384 11.5L72.8995 12.3156L71.0781 15.6322Z" fill="#935825"/>
<path d="M97.8572 11.5L95.8184 16.203L99.6786 12.1524L97.8572 11.5Z" fill="#71451F"/>
<path d="M95.8184 16.203L102.832 11.5L99.6786 12.1524L95.8184 16.203Z" fill="#935825"/>
<path d="M294.489 41.7031L290.52 43.4158L294.271 43.1439L294.489 41.7031Z" fill="#71451F"/>
<path d="M295.766 44.1766L294.271 43.1436L290.52 43.4154L295.766 44.1766Z" fill="#935825"/>
<path d="M226.199 90.1192L229.652 86.4492L228.32 89.4396L226.199 90.1192Z" fill="#71451F"/>
<path d="M230.165 90.1192L228.316 89.4396L229.649 86.4492L230.165 90.1192Z" fill="#935825"/>
<path d="M19.918 67.556L24.8657 66.2783L21.685 68.2357L19.918 67.556Z" fill="#71451F"/>
<path d="M21.6035 70.0571L21.6851 68.2357L24.8657 66.2783L21.6035 70.0571Z" fill="#935825"/>
<defs>
<filter id="filter0_di_1800_2298" x="0.133984" y="0.0363274" width="309.705" height="101.575" filterUnits="userSpaceOnUse" color-interpolation-filters="sRGB">
<feFlood flood-opacity="0" result="BackgroundImageFix"/>
<feColorMatrix in="SourceAlpha" type="matrix" values="0 0 0 0 0 0 0 0 0 0 0 0 0 0 0 0 0 0 127 0" result="hardAlpha"/>
<feOffset/>
<feGaussianBlur stdDeviation="8.6"/>
<feComposite in2="hardAlpha" operator="out"/>
<feColorMatrix type="matrix" values="0 0 0 0 0.529412 0 0 0 0 0.329412 0 0 0 0 0.152941 0 0 0 0.45 0"/>
<feBlend mode="normal" in2="BackgroundImageFix" result="effect1_dropShadow_1800_2298"/>
<feBlend mode="normal" in="SourceGraphic" in2="effect1_dropShadow_1800_2298" result="shape"/>
<feColorMatrix in="SourceAlpha" type="matrix" values="0 0 0 0 0 0 0 0 0 0 0 0 0 0 0 0 0 0 127 0" result="hardAlpha"/>
<feOffset dx="4" dy="4"/>
<feGaussianBlur stdDeviation="5.25"/>
<feComposite in2="hardAlpha" operator="arithmetic" k2="-1" k3="1"/>
<feColorMatrix type="matrix" values="0 0 0 0 0.238782 0 0 0 0 0.122774 0 0 0 0 0.0183678 0 0 0 1 0"/>
<feBlend mode="normal" in2="shape" result="effect2_innerShadow_1800_2298"/>
</filter>
<radialGradient id="paint0_radial_1800_2298" cx="0" cy="0" r="1" gradientUnits="userSpaceOnUse" gradientTransform="translate(179706 21331.1) scale(43115.5 15548.3)">
<stop stop-color="#FFF6B5"/>
<stop offset="1" stop-color="#000800"/>
</radialGradient>
<radialGradient id="paint1_radial_1800_2298" cx="0" cy="0" r="1" gradientUnits="userSpaceOnUse" gradientTransform="translate(334948 32632.5) scale(56842 39212.8)">
<stop stop-color="#D19F77"/>
<stop offset="1" stop-color="white"/>
</radialGradient>
<radialGradient id="paint2_radial_1800_2298" cx="0" cy="0" r="1" gradientUnits="userSpaceOnUse" gradientTransform="translate(210888 20477.3) scale(36017.9 25315.1)">
<stop stop-color="#FFF6B5"/>
<stop offset="1" stop-color="#000800"/>
</radialGradient>
<radialGradient id="paint3_radial_1800_2298" cx="0" cy="0" r="1" gradientUnits="userSpaceOnUse" gradientTransform="translate(171564 15662.9) scale(7417.85 10109.5)">
<stop stop-color="#FFF6B5"/>
<stop offset="1" stop-color="#000800"/>
</radialGradient>
<radialGradient id="paint4_radial_1800_2298" cx="0" cy="0" r="1" gradientUnits="userSpaceOnUse" gradientTransform="translate(355515 38207.2) scale(34509.8 23722.5)">
<stop stop-color="#D19F77"/>
<stop offset="1" stop-color="white"/>
</radialGradient>
<radialGradient id="paint5_radial_1800_2298" cx="0" cy="0" r="1" gradientUnits="userSpaceOnUse" gradientTransform="translate(58257.4 5049.19) scale(1061.62 1674.08)">
<stop stop-color="#D19F77"/>
<stop offset="1" stop-color="white"/>
</radialGradient>
<radialGradient id="paint6_radial_1800_2298" cx="0" cy="0" r="1" gradientUnits="userSpaceOnUse" gradientTransform="translate(50050 4349.73) scale(911.621 1437.55)">
<stop stop-color="#FFF6B5"/>
<stop offset="1" stop-color="#000800"/>
</radialGradient>
<radialGradient id="paint7_radial_1800_2298" cx="0" cy="0" r="1" gradientUnits="userSpaceOnUse" gradientTransform="translate(52315.2 8044.35) scale(683.763 1155.02)">
<stop stop-color="#D19F77"/>
<stop offset="1" stop-color="white"/>
</radialGradient>
<radialGradient id="paint8_radial_1800_2298" cx="0" cy="0" r="1" gradientUnits="userSpaceOnUse" gradientTransform="translate(45045.8 6927.19) scale(561.65 993.068)">
<stop stop-color="#FFF6B5"/>
<stop offset="1" stop-color="#000800"/>
</radialGradient>
</defs>
</svg>
