<svg width="236" height="1047" viewBox="0 0 236 1047" fill="none" xmlns="http://www.w3.org/2000/svg">
<g clip-path="url(#clip0_1805_1152)">
<g filter="url(#filter0_i_1805_1152)">
<path d="M21.5 532.5L90.5 564V578.5L112.5 589.5L73.5 590.5L55.5 594.5L60 626.5V649.5L74.5 664H104L112.5 669V762.5L260.5 773L268 0H101L3 146L61.5 162L101 191V197L109.5 220.5L101 224.5V300L61.5 304L51.5 309.375L47.5 314L41.5 314.75L21.5 325.5L37 356L32.5 358L22 410L21.5 532.5Z" fill="#848D99"/>
<path d="M21.5 532.5L90.5 564V578.5L112.5 589.5L73.5 590.5L55.5 594.5L60 626.5V649.5L74.5 664H104L112.5 669V762.5L260.5 773L268 0H101L3 146L61.5 162L101 191V197L109.5 220.5L101 224.5V300L61.5 304L51.5 309.375L47.5 314L41.5 314.75L21.5 325.5L37 356L32.5 358L22 410L21.5 532.5Z" fill="url(#paint0_linear_1805_1152)"/>
<path d="M21.5 532.5L90.5 564V578.5L112.5 589.5L73.5 590.5L55.5 594.5L60 626.5V649.5L74.5 664H104L112.5 669V762.5L260.5 773L268 0H101L3 146L61.5 162L101 191V197L109.5 220.5L101 224.5V300L61.5 304L51.5 309.375L47.5 314L41.5 314.75L21.5 325.5L37 356L32.5 358L22 410L21.5 532.5Z" fill="url(#paint1_linear_1805_1152)"/>
</g>
<g filter="url(#filter1_i_1805_1152)">
<path d="M25 530L94.5 561.5V577L116 587.5L115.5 592L74 592.5L58.5 596.5L62 627.5V648L75 662H105.5L116 668V1036.5L264 1047L271.5 2H104.5L7 142.5L62.5 158L105 188L105.125 197L115 224L105.25 229L105.5 303L64.75 307.5L26.5 327.5L41 356.5L34 360L25 410V530Z" fill="url(#paint2_linear_1805_1152)"/>
<path d="M25 530L94.5 561.5V577L116 587.5L115.5 592L74 592.5L58.5 596.5L62 627.5V648L75 662H105.5L116 668V1036.5L264 1047L271.5 2H104.5L7 142.5L62.5 158L105 188L105.125 197L115 224L105.25 229L105.5 303L64.75 307.5L26.5 327.5L41 356.5L34 360L25 410V530Z" fill="url(#paint3_linear_1805_1152)"/>
<path d="M25 530L94.5 561.5V577L116 587.5L115.5 592L74 592.5L58.5 596.5L62 627.5V648L75 662H105.5L116 668V1036.5L264 1047L271.5 2H104.5L7 142.5L62.5 158L105 188L105.125 197L115 224L105.25 229L105.5 303L64.75 307.5L26.5 327.5L41 356.5L34 360L25 410V530Z" fill="url(#paint4_linear_1805_1152)"/>
</g>
<path d="M133.5 511.5L29.5 506V527L73 546L106.5 551.5L151.5 538.5L136 576L185.5 598.5L227 551.5L228 470H204.5L200.5 482L202 489C197.667 491.5 188.1 497.6 184.5 502C180.9 506.4 169.667 510.167 164.5 511.5H142L139 517.5L133.5 511.5Z" fill="#7E7E7E"/>
<path d="M133.5 511.5L29.5 506V527L73 546L106.5 551.5L151.5 538.5L136 576L185.5 598.5L227 551.5L228 470H204.5L200.5 482L202 489C197.667 491.5 188.1 497.6 184.5 502C180.9 506.4 169.667 510.167 164.5 511.5H142L139 517.5L133.5 511.5Z" fill="#372414"/>
<path d="M133.5 511.5L29.5 506V527L73 546L106.5 551.5L151.5 538.5L136 576L185.5 598.5L227 551.5L228 470H204.5L200.5 482L202 489C197.667 491.5 188.1 497.6 184.5 502C180.9 506.4 169.667 510.167 164.5 511.5H142L139 517.5L133.5 511.5Z" fill="url(#paint5_linear_1805_1152)"/>
<path d="M133.5 511.5L29.5 506V527L73 546L106.5 551.5L151.5 538.5L136 576L185.5 598.5L227 551.5L228 470H204.5L200.5 482L202 489C197.667 491.5 188.1 497.6 184.5 502C180.9 506.4 169.667 510.167 164.5 511.5H142L139 517.5L133.5 511.5Z" fill="url(#paint6_linear_1805_1152)"/>
<path d="M158.5 319H109.5H95L109.5 313V255.5V231.5L119.5 226L109.5 198V185.5L67.5 155L28 145.5L113.25 153.5L109.5 149.5L45.5 135L113.25 10H236L231 362.5H204C201.333 355.667 193.507 339.741 188 333.5C180.5 325 169 319 158.5 319Z" fill="url(#paint7_linear_1805_1152)"/>
<path d="M158.5 319H109.5H95L109.5 313V255.5V231.5L119.5 226L109.5 198V185.5L67.5 155L28 145.5L113.25 153.5L109.5 149.5L45.5 135L113.25 10H236L231 362.5H204C201.333 355.667 193.507 339.741 188 333.5C180.5 325 169 319 158.5 319Z" fill="#372414"/>
<path d="M158.5 319H109.5H95L109.5 313V255.5V231.5L119.5 226L109.5 198V185.5L67.5 155L28 145.5L113.25 153.5L109.5 149.5L45.5 135L113.25 10H236L231 362.5H204C201.333 355.667 193.507 339.741 188 333.5C180.5 325 169 319 158.5 319Z" fill="url(#paint8_linear_1805_1152)"/>
<path d="M158.5 319H109.5H95L109.5 313V255.5V231.5L119.5 226L109.5 198V185.5L67.5 155L28 145.5L113.25 153.5L109.5 149.5L45.5 135L113.25 10H236L231 362.5H204C201.333 355.667 193.507 339.741 188 333.5C180.5 325 169 319 158.5 319Z" fill="url(#paint9_linear_1805_1152)"/>
<path d="M171.5 579.5C166.807 581.26 159.833 581.5 155.5 581.5L149.5 587L105 571.5L103.5 555.5L87.5 553L75 551L96 560L97 576.5L120 587L119.5 593.5L75 594L60.5 597.5L64 628L66 647L77 657.5H120V677H126.5L133 685.5L183.5 671L150 686.5L145.5 691L133 726.5L232.5 791.5L227.5 694V552H194.5C194.167 553 193.2 555.8 192 559C190.5 563 179.5 576.5 171.5 579.5Z" fill="#D9D9D9"/>
<path d="M171.5 579.5C166.807 581.26 159.833 581.5 155.5 581.5L149.5 587L105 571.5L103.5 555.5L87.5 553L75 551L96 560L97 576.5L120 587L119.5 593.5L75 594L60.5 597.5L64 628L66 647L77 657.5H120V677H126.5L133 685.5L183.5 671L150 686.5L145.5 691L133 726.5L232.5 791.5L227.5 694V552H194.5C194.167 553 193.2 555.8 192 559C190.5 563 179.5 576.5 171.5 579.5Z" fill="#7E7E7E"/>
<path d="M171.5 579.5C166.807 581.26 159.833 581.5 155.5 581.5L149.5 587L105 571.5L103.5 555.5L87.5 553L75 551L96 560L97 576.5L120 587L119.5 593.5L75 594L60.5 597.5L64 628L66 647L77 657.5H120V677H126.5L133 685.5L183.5 671L150 686.5L145.5 691L133 726.5L232.5 791.5L227.5 694V552H194.5C194.167 553 193.2 555.8 192 559C190.5 563 179.5 576.5 171.5 579.5Z" fill="#372414"/>
<path d="M171.5 579.5C166.807 581.26 159.833 581.5 155.5 581.5L149.5 587L105 571.5L103.5 555.5L87.5 553L75 551L96 560L97 576.5L120 587L119.5 593.5L75 594L60.5 597.5L64 628L66 647L77 657.5H120V677H126.5L133 685.5L183.5 671L150 686.5L145.5 691L133 726.5L232.5 791.5L227.5 694V552H194.5C194.167 553 193.2 555.8 192 559C190.5 563 179.5 576.5 171.5 579.5Z" fill="url(#paint10_linear_1805_1152)"/>
<path d="M171.5 579.5C166.807 581.26 159.833 581.5 155.5 581.5L149.5 587L105 571.5L103.5 555.5L87.5 553L75 551L96 560L97 576.5L120 587L119.5 593.5L75 594L60.5 597.5L64 628L66 647L77 657.5H120V677H126.5L133 685.5L183.5 671L150 686.5L145.5 691L133 726.5L232.5 791.5L227.5 694V552H194.5C194.167 553 193.2 555.8 192 559C190.5 563 179.5 576.5 171.5 579.5Z" fill="url(#paint11_linear_1805_1152)"/>
<path d="M171.5 579.5C166.807 581.26 159.833 581.5 155.5 581.5L149.5 587L105 571.5L103.5 555.5L87.5 553L75 551L96 560L97 576.5L120 587L119.5 593.5L75 594L60.5 597.5L64 628L66 647L77 657.5H120V677H126.5L133 685.5L183.5 671L150 686.5L145.5 691L133 726.5L232.5 791.5L227.5 694V552H194.5C194.167 553 193.2 555.8 192 559C190.5 563 179.5 576.5 171.5 579.5Z" fill="url(#paint12_linear_1805_1152)"/>
<path d="M171.5 579.5C166.807 581.26 159.833 581.5 155.5 581.5L149.5 587L105 571.5L103.5 555.5L87.5 553L75 551L96 560L97 576.5L120 587L119.5 593.5L75 594L60.5 597.5L64 628L66 647L77 657.5H120V677H126.5L133 685.5L183.5 671L150 686.5L145.5 691L133 726.5L232.5 791.5L227.5 694V552H194.5C194.167 553 193.2 555.8 192 559C190.5 563 179.5 576.5 171.5 579.5Z" fill="url(#paint13_radial_1805_1152)"/>
<g filter="url(#filter2_i_1805_1152)">
<path d="M176.5 204.5L141 220.5L133 221.5L123.5 195L134.5 174.5L153.5 158.5L163.5 169L161.5 142L202 122L236 134.5V261L176.5 204.5Z" fill="#D9D9D9"/>
<path d="M176.5 204.5L141 220.5L133 221.5L123.5 195L134.5 174.5L153.5 158.5L163.5 169L161.5 142L202 122L236 134.5V261L176.5 204.5Z" fill="url(#paint14_linear_1805_1152)"/>
</g>
<path d="M176.5 204.5L141 220.5L133 221.5L123.5 195L134.5 174.5L153.5 158.5L163.5 169L161.5 142L202 122L236 134.5V261L176.5 204.5Z" stroke="#3C1F05"/>
<g filter="url(#filter3_i_1805_1152)">
<path d="M109.5 306C109.5 306 70.6667 311.667 66.5 312L32 331.5L47 358.5L39 362L29.5 403.5V426H160.5C175 429 179.481 432.981 186 439.5C193 446.5 201.833 460.833 204.5 469.5H232V304.5L174 228L136.5 245.5L131 256L122.5 250.5L109.5 256V306Z" fill="#7E7E7E"/>
<path d="M109.5 306C109.5 306 70.6667 311.667 66.5 312L32 331.5L47 358.5L39 362L29.5 403.5V426H160.5C175 429 179.481 432.981 186 439.5C193 446.5 201.833 460.833 204.5 469.5H232V304.5L174 228L136.5 245.5L131 256L122.5 250.5L109.5 256V306Z" fill="#372414"/>
<path d="M109.5 306C109.5 306 70.6667 311.667 66.5 312L32 331.5L47 358.5L39 362L29.5 403.5V426H160.5C175 429 179.481 432.981 186 439.5C193 446.5 201.833 460.833 204.5 469.5H232V304.5L174 228L136.5 245.5L131 256L122.5 250.5L109.5 256V306Z" fill="url(#paint15_linear_1805_1152)"/>
<path d="M109.5 306C109.5 306 70.6667 311.667 66.5 312L32 331.5L47 358.5L39 362L29.5 403.5V426H160.5C175 429 179.481 432.981 186 439.5C193 446.5 201.833 460.833 204.5 469.5H232V304.5L174 228L136.5 245.5L131 256L122.5 250.5L109.5 256V306Z" fill="url(#paint16_linear_1805_1152)"/>
</g>
<g filter="url(#filter4_d_1805_1152)">
<path d="M64 361L51.5 335.5L67 326.5L79.125 325.5L93 330L91.5 324.5L115.5 322.5L124.5 343L143.5 347L163.5 300.5L173 298.5V321L190.5 295L206.5 354.5L157.5 389.5L162 402L168 449L127 432H112L124.5 409L107 432L57 439.5L62.5 406.5L51.5 372.5L64 361Z" fill="url(#paint17_linear_1805_1152)"/>
</g>
<path d="M35.6851 411.038C35.0074 413.035 36.3165 415.998 37.5795 417.548C40.4242 422.198 47.048 422.198 47.048 420.338C47.048 418.478 46.1008 416.618 49.8895 415.688C53.6782 414.758 59.3613 415.688 61.2557 413.828C63.15 411.969 63.15 410.109 59.3613 410.109C55.5726 410.109 49.8895 410.109 46.1008 408.249C42.3121 406.389 36.6322 408.249 35.6851 411.038Z" fill="url(#paint18_radial_1805_1152)" fill-opacity="0.32"/>
<path d="M35.6851 411.038C35.0074 413.035 36.3165 415.998 37.5795 417.548C40.4242 422.198 47.048 422.198 47.048 420.338C47.048 418.478 46.1008 416.618 49.8895 415.688C53.6782 414.758 59.3613 415.688 61.2557 413.828C63.15 411.969 63.15 410.109 59.3613 410.109C55.5726 410.109 49.8895 410.109 46.1008 408.249C42.3121 406.389 36.6322 408.249 35.6851 411.038Z" fill="#372414" fill-opacity="0.1"/>
<g filter="url(#filter5_d_1805_1152)">
<path d="M143.5 260L149 257.5L154 263.5L155 255L176 246L216.5 295.5L215 307.5L205.5 326.5L204 295.5L181 270L166 274L160.5 286L143.5 292L135.5 303L120.5 295.5L118.5 268L124.5 265.5L133.5 271.5L143.5 260Z" fill="#D9D9D9"/>
<path d="M143.5 260L149 257.5L154 263.5L155 255L176 246L216.5 295.5L215 307.5L205.5 326.5L204 295.5L181 270L166 274L160.5 286L143.5 292L135.5 303L120.5 295.5L118.5 268L124.5 265.5L133.5 271.5L143.5 260Z" fill="url(#paint19_linear_1805_1152)"/>
</g>
<g filter="url(#filter6_di_1805_1152)">
<path d="M215 301L221.5 237L235.5 222.5L228 596.5L215.5 587.5L191.75 594.5L142.5 572L155.5 537.5L200.5 525.5L157 531L108.5 545.5L45 518.5L35 432L45 414.5L71 406L95.5 426L127 424L135.5 412.5L148 400.5L145 373.5L152 371.5L160 375.5L161 369.5L180.5 363L215 301Z" fill="#D9D9D9"/>
<path d="M215 301L221.5 237L235.5 222.5L228 596.5L215.5 587.5L191.75 594.5L142.5 572L155.5 537.5L200.5 525.5L157 531L108.5 545.5L45 518.5L35 432L45 414.5L71 406L95.5 426L127 424L135.5 412.5L148 400.5L145 373.5L152 371.5L160 375.5L161 369.5L180.5 363L215 301Z" fill="url(#paint20_linear_1805_1152)"/>
<path d="M215 301L221.5 237L235.5 222.5L228 596.5L215.5 587.5L191.75 594.5L142.5 572L155.5 537.5L200.5 525.5L157 531L108.5 545.5L45 518.5L35 432L45 414.5L71 406L95.5 426L127 424L135.5 412.5L148 400.5L145 373.5L152 371.5L160 375.5L161 369.5L180.5 363L215 301Z" stroke="black"/>
<path d="M215 301L221.5 237L235.5 222.5L228 596.5L215.5 587.5L191.75 594.5L142.5 572L155.5 537.5L200.5 525.5L157 531L108.5 545.5L45 518.5L35 432L45 414.5L71 406L95.5 426L127 424L135.5 412.5L148 400.5L145 373.5L152 371.5L160 375.5L161 369.5L180.5 363L215 301Z" stroke="url(#paint21_linear_1805_1152)"/>
</g>
<path d="M183.5 369L209 321V422H135.5L139.5 413L151.5 401.5L149 380L154 377L162.5 380L165 374.5L183.5 369Z" fill="url(#paint22_radial_1805_1152)"/>
<path d="M79.5 329L98.5 335L95.5 327L114 325L120 378L63 389.5L56 374L68 362.5L56 336.5L65 331.5L73.5 336L73 329.5L79.5 329Z" fill="url(#paint23_radial_1805_1152)"/>
<g filter="url(#filter7_d_1805_1152)">
<path d="M145.5 206.5L138.5 208.5L132.5 194L139.5 185L155 173L169.5 186L168.5 162.5L174.5 155.5H192L229 183L228 238L176.5 194L145.5 206.5Z" fill="url(#paint24_linear_1805_1152)"/>
</g>
</g>
<defs>
<filter id="filter0_i_1805_1152" x="3" y="0" width="265" height="775" filterUnits="userSpaceOnUse" color-interpolation-filters="sRGB">
<feFlood flood-opacity="0" result="BackgroundImageFix"/>
<feBlend mode="normal" in="SourceGraphic" in2="BackgroundImageFix" result="shape"/>
<feColorMatrix in="SourceAlpha" type="matrix" values="0 0 0 0 0 0 0 0 0 0 0 0 0 0 0 0 0 0 127 0" result="hardAlpha"/>
<feOffset dy="2"/>
<feGaussianBlur stdDeviation="3.1"/>
<feComposite in2="hardAlpha" operator="arithmetic" k2="-1" k3="1"/>
<feColorMatrix type="matrix" values="0 0 0 0 0.368627 0 0 0 0 0.196078 0 0 0 0 0.054902 0 0 0 0.19 0"/>
<feBlend mode="normal" in2="shape" result="effect1_innerShadow_1805_1152"/>
</filter>
<filter id="filter1_i_1805_1152" x="7" y="2" width="264.5" height="1047" filterUnits="userSpaceOnUse" color-interpolation-filters="sRGB">
<feFlood flood-opacity="0" result="BackgroundImageFix"/>
<feBlend mode="normal" in="SourceGraphic" in2="BackgroundImageFix" result="shape"/>
<feColorMatrix in="SourceAlpha" type="matrix" values="0 0 0 0 0 0 0 0 0 0 0 0 0 0 0 0 0 0 127 0" result="hardAlpha"/>
<feOffset dy="2"/>
<feGaussianBlur stdDeviation="3.1"/>
<feComposite in2="hardAlpha" operator="arithmetic" k2="-1" k3="1"/>
<feColorMatrix type="matrix" values="0 0 0 0 0.368627 0 0 0 0 0.196078 0 0 0 0 0.054902 0 0 0 0.19 0"/>
<feBlend mode="normal" in2="shape" result="effect1_innerShadow_1805_1152"/>
</filter>
<filter id="filter2_i_1805_1152" x="122.955" y="121.457" width="113.545" height="142.707" filterUnits="userSpaceOnUse" color-interpolation-filters="sRGB">
<feFlood flood-opacity="0" result="BackgroundImageFix"/>
<feBlend mode="normal" in="SourceGraphic" in2="BackgroundImageFix" result="shape"/>
<feColorMatrix in="SourceAlpha" type="matrix" values="0 0 0 0 0 0 0 0 0 0 0 0 0 0 0 0 0 0 127 0" result="hardAlpha"/>
<feOffset dy="2"/>
<feGaussianBlur stdDeviation="3.1"/>
<feComposite in2="hardAlpha" operator="arithmetic" k2="-1" k3="1"/>
<feColorMatrix type="matrix" values="0 0 0 0 0.368627 0 0 0 0 0.196078 0 0 0 0 0.054902 0 0 0 0.19 0"/>
<feBlend mode="normal" in2="shape" result="effect1_innerShadow_1805_1152"/>
</filter>
<filter id="filter3_i_1805_1152" x="29.5" y="228" width="202.5" height="243.5" filterUnits="userSpaceOnUse" color-interpolation-filters="sRGB">
<feFlood flood-opacity="0" result="BackgroundImageFix"/>
<feBlend mode="normal" in="SourceGraphic" in2="BackgroundImageFix" result="shape"/>
<feColorMatrix in="SourceAlpha" type="matrix" values="0 0 0 0 0 0 0 0 0 0 0 0 0 0 0 0 0 0 127 0" result="hardAlpha"/>
<feOffset dy="2"/>
<feGaussianBlur stdDeviation="3.1"/>
<feComposite in2="hardAlpha" operator="arithmetic" k2="-1" k3="1"/>
<feColorMatrix type="matrix" values="0 0 0 0 0.368627 0 0 0 0 0.196078 0 0 0 0 0.054902 0 0 0 0.19 0"/>
<feBlend mode="normal" in2="shape" result="effect1_innerShadow_1805_1152"/>
</filter>
<filter id="filter4_d_1805_1152" x="35.8" y="283.3" width="186.4" height="185.4" filterUnits="userSpaceOnUse" color-interpolation-filters="sRGB">
<feFlood flood-opacity="0" result="BackgroundImageFix"/>
<feColorMatrix in="SourceAlpha" type="matrix" values="0 0 0 0 0 0 0 0 0 0 0 0 0 0 0 0 0 0 127 0" result="hardAlpha"/>
<feOffset dy="4"/>
<feGaussianBlur stdDeviation="7.85"/>
<feComposite in2="hardAlpha" operator="out"/>
<feColorMatrix type="matrix" values="0 0 0 0 0.192157 0 0 0 0 0.0980392 0 0 0 0 0.0196078 0 0 0 0.77 0"/>
<feBlend mode="normal" in2="BackgroundImageFix" result="effect1_dropShadow_1805_1152"/>
<feBlend mode="normal" in="SourceGraphic" in2="effect1_dropShadow_1805_1152" result="shape"/>
</filter>
<filter id="filter5_d_1805_1152" x="102.8" y="234.3" width="129.4" height="111.9" filterUnits="userSpaceOnUse" color-interpolation-filters="sRGB">
<feFlood flood-opacity="0" result="BackgroundImageFix"/>
<feColorMatrix in="SourceAlpha" type="matrix" values="0 0 0 0 0 0 0 0 0 0 0 0 0 0 0 0 0 0 127 0" result="hardAlpha"/>
<feOffset dy="4"/>
<feGaussianBlur stdDeviation="7.85"/>
<feComposite in2="hardAlpha" operator="out"/>
<feColorMatrix type="matrix" values="0 0 0 0 0.192157 0 0 0 0 0.0980392 0 0 0 0 0.0196078 0 0 0 0.77 0"/>
<feBlend mode="normal" in2="BackgroundImageFix" result="effect1_dropShadow_1805_1152"/>
<feBlend mode="normal" in="SourceGraphic" in2="effect1_dropShadow_1805_1152" result="shape"/>
</filter>
<filter id="filter6_di_1805_1152" x="18.7844" y="209.536" width="232.941" height="407.626" filterUnits="userSpaceOnUse" color-interpolation-filters="sRGB">
<feFlood flood-opacity="0" result="BackgroundImageFix"/>
<feColorMatrix in="SourceAlpha" type="matrix" values="0 0 0 0 0 0 0 0 0 0 0 0 0 0 0 0 0 0 127 0" result="hardAlpha"/>
<feOffset dy="4"/>
<feGaussianBlur stdDeviation="7.85"/>
<feComposite in2="hardAlpha" operator="out"/>
<feColorMatrix type="matrix" values="0 0 0 0 0.192157 0 0 0 0 0.0980392 0 0 0 0 0.0196078 0 0 0 0.77 0"/>
<feBlend mode="normal" in2="BackgroundImageFix" result="effect1_dropShadow_1805_1152"/>
<feBlend mode="normal" in="SourceGraphic" in2="effect1_dropShadow_1805_1152" result="shape"/>
<feColorMatrix in="SourceAlpha" type="matrix" values="0 0 0 0 0 0 0 0 0 0 0 0 0 0 0 0 0 0 127 0" result="hardAlpha"/>
<feOffset dy="2"/>
<feGaussianBlur stdDeviation="3.1"/>
<feComposite in2="hardAlpha" operator="arithmetic" k2="-1" k3="1"/>
<feColorMatrix type="matrix" values="0 0 0 0 0.368627 0 0 0 0 0.196078 0 0 0 0 0.054902 0 0 0 0.19 0"/>
<feBlend mode="normal" in2="shape" result="effect2_innerShadow_1805_1152"/>
</filter>
<filter id="filter7_d_1805_1152" x="116.8" y="143.8" width="127.9" height="113.9" filterUnits="userSpaceOnUse" color-interpolation-filters="sRGB">
<feFlood flood-opacity="0" result="BackgroundImageFix"/>
<feColorMatrix in="SourceAlpha" type="matrix" values="0 0 0 0 0 0 0 0 0 0 0 0 0 0 0 0 0 0 127 0" result="hardAlpha"/>
<feOffset dy="4"/>
<feGaussianBlur stdDeviation="7.85"/>
<feComposite in2="hardAlpha" operator="out"/>
<feColorMatrix type="matrix" values="0 0 0 0 0.192157 0 0 0 0 0.0980392 0 0 0 0 0.0196078 0 0 0 0.77 0"/>
<feBlend mode="normal" in2="BackgroundImageFix" result="effect1_dropShadow_1805_1152"/>
<feBlend mode="normal" in="SourceGraphic" in2="effect1_dropShadow_1805_1152" result="shape"/>
</filter>
<linearGradient id="paint0_linear_1805_1152" x1="186.244" y1="-62.9416" x2="368.595" y2="577.007" gradientUnits="userSpaceOnUse">
<stop stop-color="#714926"/>
<stop offset="1" stop-color="#55351A"/>
</linearGradient>
<linearGradient id="paint1_linear_1805_1152" x1="351.612" y1="313.09" x2="-143.5" y2="162" gradientUnits="userSpaceOnUse">
<stop stop-color="#311905"/>
<stop offset="1" stop-color="#4A2606"/>
</linearGradient>
<linearGradient id="paint2_linear_1805_1152" x1="62" y1="287" x2="25.5" y2="589.5" gradientUnits="userSpaceOnUse">
<stop stop-color="#767676"/>
<stop offset="1" stop-color="#636262"/>
</linearGradient>
<linearGradient id="paint3_linear_1805_1152" x1="189.744" y1="-60.9416" x2="372.095" y2="579.007" gradientUnits="userSpaceOnUse">
<stop stop-color="#714926"/>
<stop offset="1" stop-color="#724219"/>
</linearGradient>
<linearGradient id="paint4_linear_1805_1152" x1="372.988" y1="234.968" x2="-47.5" y2="223" gradientUnits="userSpaceOnUse">
<stop stop-color="#311905"/>
<stop offset="1" stop-color="#4A2606"/>
</linearGradient>
<linearGradient id="paint5_linear_1805_1152" x1="5.56737" y1="488.975" x2="91.4167" y2="549.527" gradientUnits="userSpaceOnUse">
<stop stop-color="#714926"/>
<stop offset="1" stop-color="#55351A"/>
</linearGradient>
<linearGradient id="paint6_linear_1805_1152" x1="196.5" y1="511" x2="29.5023" y2="517.727" gradientUnits="userSpaceOnUse">
<stop stop-color="#311905"/>
<stop offset="1" stop-color="#4A2606"/>
</linearGradient>
<linearGradient id="paint7_linear_1805_1152" x1="236" y1="231.5" x2="95.0001" y2="231.5" gradientUnits="userSpaceOnUse">
<stop stop-color="#7E7E7E"/>
<stop offset="1" stop-color="#929292"/>
</linearGradient>
<linearGradient id="paint8_linear_1805_1152" x1="78" y1="161.5" x2="167.153" y2="175.394" gradientUnits="userSpaceOnUse">
<stop stop-color="#714926"/>
<stop offset="1" stop-color="#55351A"/>
</linearGradient>
<linearGradient id="paint9_linear_1805_1152" x1="165.5" y1="252.943" x2="165.5" y2="100.5" gradientUnits="userSpaceOnUse">
<stop stop-color="#311905"/>
<stop offset="1" stop-color="#4A2606"/>
</linearGradient>
<linearGradient id="paint10_linear_1805_1152" x1="93.6099" y1="666.084" x2="173.171" y2="671.891" gradientUnits="userSpaceOnUse">
<stop stop-color="#714926"/>
<stop offset="1" stop-color="#55351A"/>
</linearGradient>
<linearGradient id="paint11_linear_1805_1152" x1="170.25" y1="837.104" x2="170.25" y2="552" gradientUnits="userSpaceOnUse">
<stop stop-color="#311905"/>
<stop offset="1" stop-color="#4A2606"/>
</linearGradient>
<linearGradient id="paint12_linear_1805_1152" x1="213" y1="739" x2="73.5247" y2="673.034" gradientUnits="userSpaceOnUse">
<stop stop-color="#381C05"/>
<stop offset="1" stop-color="#643610"/>
</linearGradient>
<radialGradient id="paint13_radial_1805_1152" cx="0" cy="0" r="1" gradientUnits="userSpaceOnUse" gradientTransform="translate(73 600.5) rotate(68.0615) scale(38.8104 58.7678)">
<stop stop-color="#7B4518"/>
<stop offset="1" stop-color="#643610" stop-opacity="0"/>
</radialGradient>
<linearGradient id="paint14_linear_1805_1152" x1="233.136" y1="190.493" x2="132.56" y2="168.819" gradientUnits="userSpaceOnUse">
<stop stop-color="#311905"/>
<stop offset="1" stop-color="#4A2606"/>
</linearGradient>
<linearGradient id="paint15_linear_1805_1152" x1="5.08508" y1="387.029" x2="106.157" y2="442.164" gradientUnits="userSpaceOnUse">
<stop stop-color="#714926"/>
<stop offset="1" stop-color="#55351A"/>
</linearGradient>
<linearGradient id="paint16_linear_1805_1152" x1="227" y1="347" x2="51.5" y2="309" gradientUnits="userSpaceOnUse">
<stop stop-color="#311905"/>
<stop offset="1" stop-color="#4A2606"/>
</linearGradient>
<linearGradient id="paint17_linear_1805_1152" x1="206.5" y1="369.955" x2="51.5" y2="365.545" gradientUnits="userSpaceOnUse">
<stop stop-color="#381C05"/>
<stop offset="1" stop-color="#643610"/>
</linearGradient>
<radialGradient id="paint18_radial_1805_1152" cx="0" cy="0" r="1" gradientUnits="userSpaceOnUse" gradientTransform="translate(47.756 407.154) rotate(110.43) scale(10.3505 19.3837)">
<stop stop-color="#303030"/>
<stop offset="1" stop-color="#303030" stop-opacity="0"/>
</radialGradient>
<linearGradient id="paint19_linear_1805_1152" x1="181" y1="273.5" x2="118.526" y2="270.424" gradientUnits="userSpaceOnUse">
<stop stop-color="#381C05"/>
<stop offset="1" stop-color="#532F11"/>
</linearGradient>
<linearGradient id="paint20_linear_1805_1152" x1="235.5" y1="419.699" x2="123.917" y2="418.774" gradientUnits="userSpaceOnUse">
<stop stop-color="#381C05"/>
<stop offset="1" stop-color="#643610"/>
</linearGradient>
<linearGradient id="paint21_linear_1805_1152" x1="235.5" y1="419.699" x2="123.917" y2="418.774" gradientUnits="userSpaceOnUse">
<stop stop-color="#472306"/>
<stop offset="1" stop-color="#643610"/>
</linearGradient>
<radialGradient id="paint22_radial_1805_1152" cx="0" cy="0" r="1" gradientUnits="userSpaceOnUse" gradientTransform="translate(159 374) rotate(25.2405) scale(38.6943 57.9524)">
<stop stop-color="#643610"/>
<stop offset="1" stop-color="#643610" stop-opacity="0"/>
</radialGradient>
<radialGradient id="paint23_radial_1805_1152" cx="0" cy="0" r="1" gradientUnits="userSpaceOnUse" gradientTransform="translate(70 330) rotate(25.2405) scale(38.6943 57.9524)">
<stop stop-color="#643610"/>
<stop offset="1" stop-color="#643610" stop-opacity="0"/>
</radialGradient>
<linearGradient id="paint24_linear_1805_1152" x1="194.043" y1="183.683" x2="132.515" y2="180.772" gradientUnits="userSpaceOnUse">
<stop stop-color="#381C05"/>
<stop offset="1" stop-color="#532F11"/>
</linearGradient>
<clipPath id="clip0_1805_1152">
<rect width="236" height="1047" fill="white"/>
</clipPath>
</defs>
</svg>
