<svg width="35" height="37" viewBox="0 0 35 37" fill="none" xmlns="http://www.w3.org/2000/svg">
<g filter="url(#filter0_d_1803_2439)">
<circle cx="17.5" cy="17.5" r="17.5" fill="#D78743"/>
</g>
<path opacity="0.7" fill-rule="evenodd" clip-rule="evenodd" d="M8.31848 10.7915L10.74 8.31848L13.4192 9.91566C13.9344 9.64088 14.4668 9.41762 15.0163 9.24588L15.7892 6L19.3442 6.25761L20.0655 9.24588C20.615 9.41762 21.1474 9.64088 21.6627 9.91566L24.3933 8.37001L26.9179 10.637L25.1661 13.4192C25.4409 13.9344 25.6642 14.4668 25.8359 15.0163L29.0303 15.7892L29.1848 17.0257L29.0303 19.2926L25.8359 20.0655C25.6642 20.615 25.4409 21.1303 25.1661 21.6111L26.7633 24.1872L24.9085 26.4542L24.1872 26.7633L21.6111 25.1661C21.1303 25.4409 20.5979 25.6642 20.014 25.8359L19.2411 28.8757L16.7165 29.0303L15.7376 28.8757L15.0163 25.8359C14.4668 25.6642 13.9344 25.4409 13.4192 25.1661L10.637 26.9179L8.42153 24.3418L9.91565 21.6627C9.64087 21.1474 9.41761 20.615 9.24587 20.0655L6 19.2926L6.15456 15.9952L9.24587 15.0679C9.41761 14.4839 9.64087 13.9344 9.91565 13.4192L8.31848 10.7915ZM12.9039 17.5409C12.9039 20.117 14.9648 22.1779 17.5409 22.1779C20.117 22.1779 22.1779 20.117 22.1779 17.5409C22.1779 14.9648 20.117 12.9039 17.5409 12.9039C14.9648 12.9039 12.9039 14.9648 12.9039 17.5409Z" fill="url(#paint0_linear_1803_2439)"/>
<g style="mix-blend-mode:multiply" opacity="0.5">
<path d="M8.83539 24.8052L8.42323 24.3415L9.40212 22.5898L9.91734 21.6624V22.7959L9.65973 23.2596L9.24756 23.9809L8.83539 24.8052ZM25.2193 22.7959V21.6624L25.7346 22.5383L26.765 24.2385L26.3528 24.7022L25.8891 23.9294L25.477 23.2081L25.2193 22.7959ZM15.018 10.4306L13.4724 11.0489L10.7932 9.50324L9.71127 10.5852L8.73234 11.5126L8.32018 10.7913L10.7932 8.36975L13.4724 9.91541C13.9532 9.64063 14.4685 9.41737 15.018 9.24563L15.7908 6.05127L19.3459 6.25736L20.0672 9.24563C20.6167 9.41737 21.1491 9.64063 21.6644 9.91541L24.395 8.36975L26.9196 10.6367L26.4559 11.4095L25.5285 10.5337L24.395 9.55476L21.6644 11.0489L20.0672 10.4306L19.3459 7.44236L15.7908 7.18475L15.018 10.4306ZM9.40212 14.6554C9.53951 14.2433 9.71125 13.8482 9.91734 13.4704V14.6554L9.71127 15.1706L9.24756 16.2526L6.15625 17.2315L6.20779 16.0465L9.24756 15.1191C9.28191 14.9474 9.33343 14.7928 9.40212 14.6554ZM25.1678 14.6554V13.4704C25.3739 13.8482 25.5457 14.2261 25.6831 14.6039C25.7518 14.7756 25.8033 14.9302 25.8376 15.0676L29.0835 15.8404L29.1865 17.077L25.8376 16.2526L25.4254 15.1706L25.1678 14.6554Z" fill="#260E18"/>
</g>
<g style="mix-blend-mode:screen" opacity="0.5">
<path d="M8.42336 12.8519L8.32031 10.791L9.91748 13.4186C9.71139 13.7965 9.53965 14.1915 9.40226 14.6036L8.42336 12.8519Z" fill="#E4A055"/>
</g>
<g style="mix-blend-mode:screen" opacity="0.5">
<path d="M25.1641 13.4189L26.9158 10.6367L26.7612 12.44L25.6793 14.5524C25.5419 14.1746 25.3702 13.7967 25.1641 13.4189V13.4189Z" fill="#E4A055"/>
</g>
<g style="mix-blend-mode:screen" opacity="0.5">
<path d="M22.1763 17.5408C22.1763 17.8843 22.1419 18.2277 22.0732 18.5712C21.558 16.5103 19.7548 14.9647 17.5393 14.9647C15.3239 14.9647 13.4691 16.5103 13.0054 18.5712C12.9367 18.2277 12.9023 17.8843 12.9023 17.5408C12.9023 14.9647 14.9632 12.9038 17.5393 12.9038C20.1154 12.9038 22.1763 14.9647 22.1763 17.5408Z" fill="#E4A055"/>
</g>
<g style="mix-blend-mode:screen" opacity="0.5">
<path d="M24.9089 26.454L26.7637 24.187L26.6091 26.0418L24.9089 28.5149L24.1876 28.824L21.6115 27.2268C21.1306 27.5016 20.5982 27.7248 20.0143 27.8966L19.2415 30.9364L16.7169 31.1425L15.738 30.9364L15.0167 27.8966C14.4671 27.7248 13.9347 27.5016 13.4195 27.2268L10.6373 28.9785L8.67948 26.2479L8.42188 24.3416L10.6373 26.9177L13.4195 25.1659C13.9347 25.4407 14.4671 25.664 15.0167 25.8357L15.738 28.8755L16.7169 29.0301L19.2415 28.8755L20.0143 25.8357C20.5982 25.664 21.1306 25.4407 21.6115 25.1659L24.1876 26.7631L24.9089 26.454Z" fill="#E4A055"/>
</g>
<g style="mix-blend-mode:screen" opacity="0.5">
<path d="M9.24587 22.1262L6.72132 21.0957L6 19.2925L9.24587 20.0653C9.41761 20.6149 9.64087 21.1473 9.91565 21.6625L9.40043 22.5899C9.33174 22.4181 9.28022 22.2636 9.24587 22.1262V22.1262Z" fill="#E4A055"/>
</g>
<g style="mix-blend-mode:screen" opacity="0.5">
<path d="M25.8338 20.0653L29.0282 19.2925L28.4614 21.0957L25.8338 22.1262C25.7995 22.2292 25.748 22.3494 25.6793 22.4868L25.1641 21.611C25.4388 21.1301 25.6621 20.6149 25.8338 20.0653Z" fill="#E4A055"/>
</g>
<defs>
<filter id="filter0_d_1803_2439" x="0" y="0" width="35" height="37" filterUnits="userSpaceOnUse" color-interpolation-filters="sRGB">
<feFlood flood-opacity="0" result="BackgroundImageFix"/>
<feColorMatrix in="SourceAlpha" type="matrix" values="0 0 0 0 0 0 0 0 0 0 0 0 0 0 0 0 0 0 127 0" result="hardAlpha"/>
<feOffset dy="2"/>
<feComposite in2="hardAlpha" operator="out"/>
<feColorMatrix type="matrix" values="0 0 0 0 0.25098 0 0 0 0 0.129412 0 0 0 0 0.0196078 0 0 0 1 0"/>
<feBlend mode="normal" in2="BackgroundImageFix" result="effect1_dropShadow_1803_2439"/>
<feBlend mode="normal" in="SourceGraphic" in2="effect1_dropShadow_1803_2439" result="shape"/>
</filter>
<linearGradient id="paint0_linear_1803_2439" x1="6" y1="1.87825" x2="29.1848" y2="1.87825" gradientUnits="userSpaceOnUse">
<stop stop-color="#823B00"/>
<stop offset="1" stop-color="#692705"/>
</linearGradient>
</defs>
</svg>
