<svg width="35" height="37" viewBox="0 0 35 37" fill="none" xmlns="http://www.w3.org/2000/svg">
<g filter="url(#filter0_d_1803_2440)">
<circle cx="17.5" cy="17.5" r="17.5" fill="#D78743"/>
</g>
<path opacity="0.7" fill-rule="evenodd" clip-rule="evenodd" d="M18.5231 6.99974V14.682C19.786 14.9977 20.9436 16.1553 20.7857 17.7338C20.6279 19.2598 19.6281 20.5752 18.4705 20.8383L18.3126 28.3627L18.0496 29.3624L10.4199 22.259L9.84115 22.3116L6.15788 22.2064L6 17.8391L6.15788 13.0508L9.42018 12.9982L10.4199 13.0508L18.0496 6L18.5231 6.99974ZM23.5219 8.10472C25.2582 9.10447 26.6263 10.5252 27.5734 12.1563C28.5205 13.7875 29.0468 15.7344 29.0468 17.6812C29.0468 19.6807 28.5205 21.575 27.5734 23.2061C26.6789 24.7847 25.4161 26.1001 23.8902 27.0472L22.943 26.3106L22.6273 25.6792C24.048 24.8899 25.2056 23.6797 25.9949 22.3116C26.8368 20.9435 27.2577 19.365 27.2577 17.6812C27.2577 16.0501 26.8368 14.4189 25.9949 13.0508C25.2582 11.7354 24.1532 10.5778 22.8378 9.78851L23.1535 8.57829L23.5219 8.10472ZM21.8907 11.4197C22.943 12.0511 23.7849 12.9456 24.3637 13.9453C24.9951 15.1029 25.3635 16.3658 25.3635 17.6812C25.3635 18.9967 24.9951 20.2595 24.3637 21.3645C23.7323 22.4695 22.7852 23.4166 21.6802 24.1006L20.8909 22.943L20.7857 22.5221C21.6276 21.9959 22.3116 21.3119 22.8378 20.47C23.3114 19.6281 23.5745 18.681 23.5745 17.6812C23.5745 16.6815 23.3114 15.6817 22.8378 14.8925C22.3116 14.0506 21.6276 13.3139 20.7857 12.8404L21.0488 12.3142L21.8907 11.4197Z" fill="url(#paint0_linear_1803_2440)"/>
<g style="mix-blend-mode:screen" opacity="0.5">
<path d="M29.049 18.5228C29.049 18.7684 29.049 19.0314 29.049 19.3121C29.049 21.2589 28.5228 23.1532 27.5757 24.837C26.6812 26.3629 24.9974 27.731 23.9451 28.2045L23.0506 27.4153L22.7349 26.8365L22.6296 25.7315L22.9453 26.3103L23.8398 27.0996C25.4184 26.0998 26.6812 24.7844 27.5757 23.2584C28.4176 21.8377 28.8912 20.2066 29.049 18.5228V18.5228ZM20.788 12.8927C21.6299 13.3662 22.3665 14.1029 22.8401 14.9448C23.3136 15.734 23.5767 16.7338 23.5767 17.7335C23.5767 17.9791 23.5592 18.2422 23.5241 18.5228C23.4189 17.7862 23.2084 17.1021 22.8401 16.5233C22.3665 15.6814 21.6299 14.9448 20.788 14.4712V12.8927ZM22.7875 9.84082C24.1555 10.6301 25.2605 11.7877 25.9972 13.1031C26.7864 14.4712 27.26 16.0498 27.26 17.7335C27.26 17.9791 27.2425 18.2422 27.2074 18.5228C27.1022 17.1547 26.6812 15.8393 25.9972 14.6817C25.2605 13.3662 24.1555 12.2086 22.7875 11.4194V9.84082ZM20.788 22.5744L20.8932 23.048L21.6825 24.1529C22.8401 23.4689 23.7872 22.5218 24.4186 21.4168C24.8922 20.5223 25.2605 19.5752 25.3658 18.5228C25.4008 18.8034 25.4184 19.0665 25.4184 19.3121C25.4184 22.1535 24.1029 24.0477 21.7351 25.4684L20.8932 24.6265L20.788 24.1529V22.5744ZM6.16016 22.2061L9.84342 22.3113H10.4222L18.0518 29.3621L18.3149 28.3624L18.3675 29.5726L18.0518 30.5724L10.4222 23.8899H9.84342L6.37061 23.5215L6.16016 22.2061ZM20.7353 17.6809C20.788 18.3123 20.788 18.7859 20.7353 19.3121C20.5775 20.8906 19.5778 22.1535 18.4202 22.4165V20.838C19.5778 20.6275 20.5775 19.3121 20.7353 17.7335C20.7353 17.7335 20.7353 17.7335 20.7353 17.6809Z" fill="#AD6B32"/>
</g>
<g style="mix-blend-mode:multiply" opacity="0.5">
<path d="M23.1009 9.78851L23.0483 9.99898C22.9781 9.92882 22.8904 9.85866 22.7852 9.78851L23.1009 8.57829L23.5219 8.15735C25.2056 9.10447 26.6263 10.5252 27.5734 12.2089C28.5205 13.8401 29.0468 15.7343 29.0468 17.7338C29.0468 17.9092 29.0468 18.1022 29.0468 18.3126C28.9415 16.5236 28.4153 14.8398 27.5734 13.3665C26.6263 11.6828 25.2056 10.3147 23.5219 9.31494L23.1009 9.78851ZM18.4705 7.05236V14.682C19.7859 14.9977 20.8909 16.1553 20.7857 17.7338C20.7506 17.8391 20.7331 17.9443 20.7331 18.0495C20.47 16.9446 19.5229 16.1027 18.4705 15.8396V8.20996L18.0496 7.1576L10.4199 14.2084H9.42018L6.15788 14.261L6 18.4179V17.8391L6.15788 13.1034L9.42018 12.9982L10.4199 13.0508L18.0496 6L18.4705 7.05236ZM24.3637 14.0506C24.9951 15.1556 25.3635 16.4184 25.3635 17.7338C25.3635 17.9443 25.3459 18.1548 25.3108 18.3653C25.2582 17.2077 24.8899 16.1553 24.3637 15.2082C23.7323 14.2084 22.8904 13.3139 21.8907 12.6299L21.3119 13.2613C21.1365 13.121 20.9435 12.9982 20.7331 12.893L20.9962 12.4194L21.8907 11.4723C22.8904 12.1563 23.7323 12.9982 24.3637 14.0506Z" fill="#260E18"/>
</g>
<defs>
<filter id="filter0_d_1803_2440" x="0" y="0" width="35" height="37" filterUnits="userSpaceOnUse" color-interpolation-filters="sRGB">
<feFlood flood-opacity="0" result="BackgroundImageFix"/>
<feColorMatrix in="SourceAlpha" type="matrix" values="0 0 0 0 0 0 0 0 0 0 0 0 0 0 0 0 0 0 127 0" result="hardAlpha"/>
<feOffset dy="2"/>
<feComposite in2="hardAlpha" operator="out"/>
<feColorMatrix type="matrix" values="0 0 0 0 0.25098 0 0 0 0 0.129412 0 0 0 0 0.0196078 0 0 0 1 0"/>
<feBlend mode="normal" in2="BackgroundImageFix" result="effect1_dropShadow_1803_2440"/>
<feBlend mode="normal" in="SourceGraphic" in2="effect1_dropShadow_1803_2440" result="shape"/>
</filter>
<linearGradient id="paint0_linear_1803_2440" x1="6" y1="1.79055" x2="29.0468" y2="1.79055" gradientUnits="userSpaceOnUse">
<stop stop-color="#823B00"/>
<stop offset="1" stop-color="#692705"/>
</linearGradient>
</defs>
</svg>
