<svg width="921" height="334" viewBox="0 0 921 334" fill="none" xmlns="http://www.w3.org/2000/svg">
<g filter="url(#filter0_i_1819_1019)">
<path d="M2.45957 25.1718C0.849617 27.8842 0 30.9802 0 34.1344V315.537C0 325.235 7.86169 333.096 17.5596 333.096H903.44C913.138 333.096 921 325.235 921 315.537V46.5063C921 36.9537 913.364 29.1534 903.813 28.9506L21.7081 10.2176C15.3785 10.0832 9.46664 13.3664 6.23523 18.8106L2.45957 25.1718Z" fill="#3B250F"/>
<path d="M2.45957 25.1718C0.849617 27.8842 0 30.9802 0 34.1344V315.537C0 325.235 7.86169 333.096 17.5596 333.096H903.44C913.138 333.096 921 325.235 921 315.537V46.5063C921 36.9537 913.364 29.1534 903.813 28.9506L21.7081 10.2176C15.3785 10.0832 9.46664 13.3664 6.23523 18.8106L2.45957 25.1718Z" fill="url(#paint0_linear_1819_1019)"/>
<path d="M6.14585 313.781C6.14585 321.054 12.0421 326.951 19.3155 326.951H900.807C908.08 326.951 913.976 321.054 913.976 313.781V36.4145C913.976 29.2723 908.283 23.4318 901.143 23.2491L19.6525 0.687997C12.2495 0.498524 6.14585 6.448 6.14585 13.8534V313.781Z" fill="#4C2C10"/>
<path d="M6.14585 313.781C6.14585 321.054 12.0421 326.951 19.3155 326.951H900.807C908.08 326.951 913.976 321.054 913.976 313.781V36.4145C913.976 29.2723 908.283 23.4318 901.143 23.2491L19.6525 0.687997C12.2495 0.498524 6.14585 6.448 6.14585 13.8534V313.781Z" fill="url(#paint1_linear_1819_1019)"/>
</g>
<defs>
<filter id="filter0_i_1819_1019" x="0" y="0.683594" width="923.634" height="335.925" filterUnits="userSpaceOnUse" color-interpolation-filters="sRGB">
<feFlood flood-opacity="0" result="BackgroundImageFix"/>
<feBlend mode="normal" in="SourceGraphic" in2="BackgroundImageFix" result="shape"/>
<feColorMatrix in="SourceAlpha" type="matrix" values="0 0 0 0 0 0 0 0 0 0 0 0 0 0 0 0 0 0 127 0" result="hardAlpha"/>
<feOffset dx="2.63394" dy="4.3899"/>
<feGaussianBlur stdDeviation="1.75596"/>
<feComposite in2="hardAlpha" operator="arithmetic" k2="-1" k3="1"/>
<feColorMatrix type="matrix" values="0 0 0 0 0.227451 0 0 0 0 0.129412 0 0 0 0 0.0431373 0 0 0 0.62 0"/>
<feBlend mode="normal" in2="shape" result="effect1_innerShadow_1819_1019"/>
</filter>
<linearGradient id="paint0_linear_1819_1019" x1="921" y1="166.89" x2="-1.49968e-05" y2="166.89" gradientUnits="userSpaceOnUse">
<stop stop-color="#532F0F"/>
<stop offset="1" stop-color="#65370F"/>
</linearGradient>
<linearGradient id="paint1_linear_1819_1019" x1="460.062" y1="31.0722" x2="460.062" y2="326.951" gradientUnits="userSpaceOnUse">
<stop stop-color="#3C2009"/>
<stop offset="1" stop-color="#572E0B"/>
</linearGradient>
</defs>
</svg>
