<svg width="207" height="57" viewBox="0 0 207 57" fill="none" xmlns="http://www.w3.org/2000/svg">
<path d="M31.9859 0.5H43.5337L44.4911 1.08618L45.9566 0.5H62.4283L63.7374 0.968944L66.004 0.5H175.014C183.475 0.5 190.411 4.42741 195.96 10.6214C199.087 14.1189 201.568 18.0854 203.757 22.2082L203.6 23.2438L204.675 23.9863C205.183 24.9763 205.678 25.9793 206.16 26.9954L207 28.7539L206.16 30.532C203.366 36.3547 200.298 42.0602 195.96 46.906C190.411 53.1 183.475 57.0078 175.014 57.0078H157.526L156.198 56.5194L154.674 57.0078H31.9859C23.5254 57.0078 16.5889 53.1 11.0397 46.906C9.80876 45.5382 8.67548 44.0923 7.62035 42.5878L7.67898 41.2787L6.40892 40.7902C4.29867 37.5271 2.52059 34.0491 0.840202 30.532L0 28.7539L0.840202 26.9954C3.61479 21.1531 6.702 15.4476 11.0397 10.6214C16.5889 4.42741 23.5254 0.5 31.9859 0.5Z" fill="#A50000"/>
<path d="M31.9879 4.62305H42.8909L43.1645 4.9943L43.8483 4.62305H60.0856L60.4373 5.18969L61.805 4.62305H175.016C187.521 4.62305 195.064 14.7835 199.714 23.3418L199.46 23.8302L200.144 24.1429C201.003 25.7842 201.765 27.3473 202.43 28.7542C198.209 37.6446 190.354 52.9048 175.016 52.9048H158.251L157.704 52.3968L156.708 52.9048H31.9879C22.3941 52.9048 15.7312 46.9453 11.0417 40.3019L11.1394 39.3054L10.1625 38.9928C7.77867 35.4171 5.96152 31.7241 4.55469 28.7542C8.77519 19.8833 16.6495 4.62305 31.9879 4.62305Z" fill="#B3B3B3"/>
<path d="M4.55469 28.7542H202.43C201.765 27.3473 201.003 25.7842 200.144 24.1429L199.46 23.8302L199.714 23.3418C195.064 14.7835 187.521 4.62305 175.016 4.62305H61.805L60.4373 5.18969L60.0856 4.62305H43.8483L43.1645 4.9943L42.8909 4.62305H31.9879C16.6495 4.62305 8.77519 19.8833 4.55469 28.7542Z" fill="url(#paint0_linear_1943_1532)"/>
<path d="M202.43 28.7539H4.55469C5.96152 31.7239 7.77867 35.4168 10.1625 38.9925L11.1394 39.3052L11.0417 40.3017C15.7312 46.9451 22.3941 52.9046 31.9879 52.9046H156.708L157.704 52.3965L158.251 52.9046H175.016C190.354 52.9046 198.209 37.6443 202.43 28.7539Z" fill="url(#paint1_linear_1943_1532)"/>
<path d="M11.2148 28.7536C15.4353 37.2142 21.6879 46.9252 31.9852 46.9252H175.013C185.311 46.9252 191.544 37.2142 195.784 28.7536C191.544 20.3126 185.311 10.6016 175.013 10.6016H31.9852C21.6879 10.6016 15.4353 20.3126 11.2148 28.7536Z" fill="url(#paint2_linear_1943_1532)"/>
<path style="mix-blend-mode:screen" d="M5.43359 28.754C7.25727 28.6628 9.08745 28.5651 10.9241 28.4609C16.3366 18.7108 20.9674 10.3284 32.5542 10.387L75.3845 10.602L32.6714 10.856C20.9869 10.9146 16.4733 19.5705 11.5689 28.715C12.6436 31.0988 13.7964 33.3458 15.086 35.6123C13.4643 33.4239 12.1747 31.2355 10.9241 29.0667C9.08745 28.9624 7.25727 28.8582 5.43359 28.754Z" fill="url(#paint3_radial_1943_1532)"/>
<path style="mix-blend-mode:multiply" d="M60.0832 4.62305C58.7741 6.61606 56.2535 9.56651 54.8076 10.6021C49.7664 13.4744 44.3345 15.7996 38.6486 17.5972C36.0498 19.512 33.2948 21.2315 30.188 22.7165C30.2857 21.1143 30.696 19.2385 31.0673 18.1052C34.5257 16.034 39.2543 12.5756 41.4231 10.6021C41.853 8.84355 42.4197 6.75284 43.1621 4.9943C43.071 4.87706 42.9798 4.75331 42.8886 4.62305C41.8725 6.47929 41.2473 8.80447 40.7979 10.6021C37.7693 13.4158 34.389 15.7409 30.696 17.8512C30.2466 19.5511 29.9535 21.2901 29.8754 23.0487C29.3869 23.4785 28.5467 23.9866 27.941 24.2015C23.8377 28.1094 17.2334 34.6941 15.3967 36.0814C13.9117 37.2342 12.1336 38.1721 10.1602 38.9928L11.1371 39.3054C12.6221 38.2698 14.3416 37.3515 15.7875 36.6676C22.0206 30.2587 27.2962 25.0417 30.1685 23.2636C33.0408 21.4464 36.3038 19.8442 38.8244 17.9098C44.5494 15.9363 50.8216 13.2008 55.98 10.6021C57.2891 8.78493 58.8327 6.77238 60.435 5.18969C60.3177 5.00732 60.2005 4.81844 60.0832 4.62305Z" fill="url(#paint4_radial_1943_1532)"/>
<path style="mix-blend-mode:screen" d="M60.4346 5.18969C58.8324 6.77238 57.2887 8.78493 55.9796 10.6021C50.8212 13.2008 44.5491 15.9363 38.824 17.9098C36.3034 19.8442 33.0404 21.4464 30.1681 23.2636C27.2958 25.0417 22.0202 30.2587 15.7871 36.6676C14.3412 37.3515 12.6218 38.2698 11.1368 39.3054L11.0391 40.3019C12.3677 38.8756 14.3803 37.7227 16.1584 37.1952C20.0858 32.7793 25.42 26.8393 30.3244 23.5176C33.4312 21.6614 36.577 19.9028 38.9804 18.2224C45.1939 16.034 51.1729 13.5916 56.8589 10.6021C57.8749 8.35507 60.122 5.9908 61.8023 4.62305C61.3464 4.81844 60.8905 5.00732 60.4346 5.18969Z" fill="url(#paint5_radial_1943_1532)"/>
<path style="mix-blend-mode:screen" d="M43.1616 4.9943C42.4191 6.75284 41.8525 8.84355 41.4226 10.6021C39.2538 12.5756 34.5252 16.034 31.0668 18.1052C30.6564 19.3753 30.207 21.5637 30.168 23.2636C30.2722 23.0291 30.3764 22.8012 30.4806 22.5797C30.6174 21.0557 30.9105 19.727 31.3794 18.3397C35.131 15.9754 38.7848 13.4548 42.0284 10.6021C42.341 8.4723 42.7709 6.45975 43.8455 4.62305C43.6241 4.75331 43.3961 4.87706 43.1616 4.9943Z" fill="url(#paint6_radial_1943_1532)"/>
<path style="mix-blend-mode:screen" opacity="0.7" d="M201.549 28.754C199.725 28.6628 197.901 28.5651 196.078 28.4609C190.646 18.7108 186.015 10.3284 174.428 10.387L131.598 10.602L174.33 10.856C185.995 10.9146 190.509 19.5705 195.413 28.715C194.358 31.0988 193.205 33.3458 191.916 35.6123C193.537 33.4239 194.827 31.2355 196.078 29.0667C197.901 28.9624 199.725 28.8582 201.549 28.754Z" fill="url(#paint7_radial_1943_1532)"/>
<path style="mix-blend-mode:multiply" d="M193.519 24.5532C190.92 26.6635 187.95 29.7116 184.805 33.2678C177.829 37.8009 169.173 42.8421 160.713 46.9258C159.11 48.8016 157.84 50.8141 156.707 52.9049C157.033 52.7355 157.365 52.5662 157.704 52.3968C158.778 50.4429 160.048 48.6453 161.396 46.9258C166.223 45.1086 177.516 38.3285 185.137 33.5413C187.775 30.6104 190.706 27.8163 193.871 25.159C195.727 24.5728 197.603 24.1038 199.459 23.8303C199.537 23.6609 199.622 23.4981 199.713 23.3418C197.701 23.5763 195.59 23.9866 193.519 24.5532Z" fill="url(#paint8_radial_1943_1532)"/>
<path style="mix-blend-mode:screen" opacity="0.7" d="M193.867 25.1588C190.701 27.8161 187.77 30.6102 185.132 33.5411C177.512 38.3283 166.218 45.1084 161.392 46.9256C160.044 48.6451 158.774 50.4427 157.699 52.3966C157.882 52.566 158.064 52.7353 158.246 52.9047C158.989 50.8726 160.2 48.8795 161.998 46.9256C166.629 45.4211 177.942 39.0317 185.406 33.9906C188.22 30.7079 191.268 27.777 194.179 25.7059C195.332 25.0806 198.126 24.3381 200.139 24.1427C199.904 24.0385 199.676 23.9343 199.455 23.8301C197.599 24.1036 195.723 24.5726 193.867 25.1588Z" fill="url(#paint9_radial_1943_1532)"/>
<path style="mix-blend-mode:multiply" d="M82.241 7.14355C80.9905 8.45269 79.5641 9.68367 78.0205 10.602C77.3953 12.9272 76.516 15.2329 75.6367 17.558C76.9068 15.0179 78.0596 12.8295 79.4469 10.602C80.502 9.4492 81.479 8.29638 82.241 7.14355Z" fill="url(#paint10_radial_1943_1532)"/>
<path style="mix-blend-mode:screen" d="M82.241 7.14355C81.479 8.29638 80.502 9.4492 79.4469 10.602C78.0596 12.8295 76.9068 15.0179 75.6367 17.558C77.3366 15.2719 78.9975 12.9858 80.502 10.602C81.1664 9.50782 81.7916 8.355 82.241 7.14355Z" fill="url(#paint11_radial_1943_1532)"/>
<path style="mix-blend-mode:multiply" d="M144.162 46.9251C144.045 48.3189 144.11 49.7127 144.357 51.1065C144.572 49.6606 144.983 48.1951 145.471 46.9251C146.448 45.4987 148.226 43.3298 149.75 41.5713C148.05 43.408 146.272 45.2447 144.162 46.9251Z" fill="url(#paint12_radial_1943_1532)"/>
<path style="mix-blend-mode:screen" opacity="0.5" d="M145.473 46.9251C144.985 48.1951 144.574 49.6606 144.359 51.1065C145.05 49.7127 145.747 48.3189 146.45 46.9251C147.701 45.1275 148.717 43.3494 149.752 41.5713C148.228 43.3298 146.45 45.4987 145.473 46.9251Z" fill="url(#paint13_radial_1943_1532)"/>
<path d="M12.427 11.8524C17.605 6.06872 24.0529 2.37578 31.9859 2.37578H175.014C182.928 2.37578 189.376 6.06872 194.553 11.8524C198.774 16.5614 201.763 22.1301 204.46 27.7965L204.929 28.7539H207L206.16 26.9954C205.678 25.9793 205.183 24.9763 204.675 23.9863L203.6 23.2438L203.757 22.2082C201.568 18.0854 199.087 14.1189 195.96 10.6214C190.411 4.42741 183.475 0.5 175.014 0.5H66.004L63.7374 0.968944L62.4283 0.5H45.9566L44.4911 1.08618L43.5337 0.5H31.9859C23.5254 0.5 16.5889 4.42741 11.0397 10.6214C6.702 15.4476 3.61479 21.1531 0.840202 26.9954L0 28.7539H2.07117L2.52058 27.7965C5.21701 22.1301 8.20653 16.5614 12.427 11.8524Z" fill="#935825"/>
<path d="M4.55183 28.7541C8.77233 19.8832 16.6467 4.623 31.9851 4.623H42.8881H43.8455H60.0827H61.8022H175.013C187.518 4.623 195.061 14.7835 199.711 23.3417C199.854 23.6153 199.998 23.8823 200.141 24.1428C201.001 25.7841 201.763 27.3473 202.427 28.7541H204.928L204.459 27.7967C201.763 22.1303 198.773 16.5616 194.553 11.8721C189.375 6.06892 182.927 2.37598 175.013 2.37598H31.9851C24.0521 2.37598 17.6041 6.06892 12.4262 11.8721C8.20567 16.5616 5.21616 22.1303 2.51973 27.7967L2.07031 28.7541H4.55183Z" fill="#71451F"/>
<path d="M10.1596 38.9925C7.77581 35.4168 5.95866 31.7239 4.55183 28.7539H2.07031L2.51973 29.7309C5.21616 35.3973 8.20567 40.9465 12.4262 45.6555C17.6041 51.4391 24.0521 55.1516 31.9851 55.1516H175.013C182.927 55.1516 189.375 51.4391 194.553 45.6555C198.773 40.9465 201.763 35.3973 204.459 29.7309L204.928 28.7539H202.427C198.206 37.6443 190.352 52.9046 175.013 52.9046H158.248H156.705H31.9851C22.3912 52.9046 15.7283 46.9451 11.0389 40.3017C10.7393 39.8718 10.4462 39.4354 10.1596 38.9925Z" fill="#71451F"/>
<path d="M12.427 45.6555C8.20653 40.9465 5.21701 35.3973 2.52058 29.7309L2.07117 28.7539H0L0.840202 30.532C2.52059 34.0491 4.29867 37.5271 6.40892 40.7902L7.67898 41.2786L7.62035 42.5878C8.67548 44.0923 9.80876 45.5382 11.0397 46.906C16.5889 53.1 23.5254 57.0078 31.9859 57.0078H154.674L156.198 56.5193L157.526 57.0078H175.014C183.475 57.0078 190.411 53.1 195.96 46.906C200.298 42.0602 203.366 36.3547 206.16 30.532L207 28.7539H204.929L204.46 29.7309C201.763 35.3973 198.774 40.9465 194.553 45.6555C189.376 51.4391 182.928 55.1516 175.014 55.1516H31.9859C24.0529 55.1516 17.605 51.4391 12.427 45.6555Z" fill="#935825"/>
<path d="M43.5314 0.5L43.1797 3.46998L44.4888 1.08618L43.5314 0.5Z" fill="#71451F"/>
<path d="M43.1797 3.46998L45.9543 0.5L44.4888 1.08618L43.1797 3.46998Z" fill="#935825"/>
<path d="M62.4303 0.5L60.9648 3.88031L63.7394 0.968944L62.4303 0.5Z" fill="#71451F"/>
<path d="M60.9648 3.88031L66.006 0.5L63.7394 0.968944L60.9648 3.88031Z" fill="#935825"/>
<path d="M203.759 22.208L200.906 23.439L203.603 23.2436L203.759 22.208Z" fill="#71451F"/>
<path d="M204.677 23.9866L203.603 23.2441L200.906 23.4395L204.677 23.9866Z" fill="#935825"/>
<path d="M154.676 57.0079L157.157 54.3701L156.2 56.5194L154.676 57.0079Z" fill="#71451F"/>
<path d="M157.524 57.0079L156.195 56.5194L157.153 54.3701L157.524 57.0079Z" fill="#935825"/>
<path d="M6.41016 40.7904L9.96631 39.8721L7.68022 41.2789L6.41016 40.7904Z" fill="#71451F"/>
<path d="M7.62109 42.588L7.67972 41.2789L9.96582 39.8721L7.62109 42.588Z" fill="#935825"/>
<defs>
<linearGradient id="paint0_linear_1943_1532" x1="29270.1" y1="-35877.1" x2="29270.1" y2="-60325.4" gradientUnits="userSpaceOnUse">
<stop stop-color="#E14521"/>
<stop offset="1" stop-color="#E83A00"/>
</linearGradient>
<linearGradient id="paint1_linear_1943_1532" x1="53708.7" y1="-35853" x2="53708.7" y2="-60301.3" gradientUnits="userSpaceOnUse">
<stop stop-color="#A2170F"/>
<stop offset="1" stop-color="#DF5000"/>
</linearGradient>
<linearGradient id="paint2_linear_1943_1532" x1="32954" y1="-55205.8" x2="32954" y2="-89510.9" gradientUnits="userSpaceOnUse">
<stop stop-color="#C83715"/>
<stop offset="0.47" stop-color="#D92F00"/>
<stop offset="1" stop-color="#E5251B"/>
</linearGradient>
<radialGradient id="paint3_radial_1943_1532" cx="0" cy="0" r="1" gradientUnits="userSpaceOnUse" gradientTransform="translate(129156 15324) scale(30989.2 11175.3)">
<stop stop-color="#FFF6B5"/>
<stop offset="1" stop-color="#000800"/>
</radialGradient>
<radialGradient id="paint4_radial_1943_1532" cx="0" cy="0" r="1" gradientUnits="userSpaceOnUse" gradientTransform="translate(240736 23446.8) scale(40855.2 28184.2)">
<stop stop-color="#D19F77"/>
<stop offset="1" stop-color="white"/>
</radialGradient>
<radialGradient id="paint5_radial_1943_1532" cx="0" cy="0" r="1" gradientUnits="userSpaceOnUse" gradientTransform="translate(151568 14710.3) scale(25887.8 18195.2)">
<stop stop-color="#FFF6B5"/>
<stop offset="1" stop-color="#000800"/>
</radialGradient>
<radialGradient id="paint6_radial_1943_1532" cx="0" cy="0" r="1" gradientUnits="userSpaceOnUse" gradientTransform="translate(123304 11249.9) scale(5331.58 7266.18)">
<stop stop-color="#FFF6B5"/>
<stop offset="1" stop-color="#000800"/>
</radialGradient>
<radialGradient id="paint7_radial_1943_1532" cx="0" cy="0" r="1" gradientUnits="userSpaceOnUse" gradientTransform="translate(263215 21777.9) scale(44053.5 15886.5)">
<stop stop-color="#FFF6B5"/>
<stop offset="1" stop-color="#000800"/>
</radialGradient>
<radialGradient id="paint8_radial_1943_1532" cx="0" cy="0" r="1" gradientUnits="userSpaceOnUse" gradientTransform="translate(255519 27453.7) scale(24803.9 17050.6)">
<stop stop-color="#D19F77"/>
<stop offset="1" stop-color="white"/>
</radialGradient>
<radialGradient id="paint9_radial_1943_1532" cx="0" cy="0" r="1" gradientUnits="userSpaceOnUse" gradientTransform="translate(118616 12848.4) scale(11326 7759.22)">
<stop stop-color="#FFF6B5"/>
<stop offset="1" stop-color="#000800"/>
</radialGradient>
<radialGradient id="paint10_radial_1943_1532" cx="0" cy="0" r="1" gradientUnits="userSpaceOnUse" gradientTransform="translate(41864.6 3621.34) scale(763.036 1203.25)">
<stop stop-color="#D19F77"/>
<stop offset="1" stop-color="white"/>
</radialGradient>
<radialGradient id="paint11_radial_1943_1532" cx="0" cy="0" r="1" gradientUnits="userSpaceOnUse" gradientTransform="translate(35965.5 3118.6) scale(655.227 1033.24)">
<stop stop-color="#FFF6B5"/>
<stop offset="1" stop-color="#000800"/>
</radialGradient>
<radialGradient id="paint12_radial_1943_1532" cx="0" cy="0" r="1" gradientUnits="userSpaceOnUse" gradientTransform="translate(37593.6 5774.11) scale(491.455 830.173)">
<stop stop-color="#D19F77"/>
<stop offset="1" stop-color="white"/>
</radialGradient>
<radialGradient id="paint13_radial_1943_1532" cx="0" cy="0" r="1" gradientUnits="userSpaceOnUse" gradientTransform="translate(32368.8 4971.15) scale(403.686 713.768)">
<stop stop-color="#FFF6B5"/>
<stop offset="1" stop-color="#000800"/>
</radialGradient>
</defs>
</svg>
