<svg width="24" height="24" viewBox="0 0 24 24" fill="none" xmlns="http://www.w3.org/2000/svg">
<g clip-path="url(#clip0_1803_2386)">
<path d="M19.0379 0H4.96906C2.22796 0 0.00585938 2.2221 0.00585938 4.9632V19.032C0.00585938 21.7731 2.22796 23.9952 4.96906 23.9952H19.0379C21.779 23.9952 24.0011 21.7731 24.0011 19.032V4.9632C24.0011 2.2221 21.779 0 19.0379 0Z" fill="#646464"/>
<path d="M19.0379 0H4.96906C2.22796 0 0.00585938 2.2221 0.00585938 4.9632V19.032C0.00585938 21.7731 2.22796 23.9952 4.96906 23.9952H19.0379C21.779 23.9952 24.0011 21.7731 24.0011 19.032V4.9632C24.0011 2.2221 21.779 0 19.0379 0Z" fill="#714620"/>
<path opacity="0.95" d="M23.0625 19.2141V4.78531C23.0625 2.66454 21.3433 0.945313 19.2225 0.945313L4.7937 0.945313C2.67292 0.945313 0.953699 2.66454 0.953699 4.78531V19.2141C0.953699 21.3349 2.67292 23.0541 4.7937 23.0541H19.2225C21.3433 23.0541 23.0625 21.3349 23.0625 19.2141Z" fill="url(#paint0_linear_1803_2386)"/>
<path d="M7.43122 18.6911C8.35111 18.6911 9.09683 17.9453 9.09683 17.0255C9.09683 16.1056 8.35111 15.3599 7.43122 15.3599C6.51134 15.3599 5.76562 16.1056 5.76562 17.0255C5.76562 17.9453 6.51134 18.6911 7.43122 18.6911Z" fill="#3F3F3F"/>
<path d="M17.0328 9.09097C17.9527 9.09097 18.6984 8.34525 18.6984 7.42537C18.6984 6.50548 17.9527 5.75977 17.0328 5.75977C16.1129 5.75977 15.3672 6.50548 15.3672 7.42537C15.3672 8.34525 16.1129 9.09097 17.0328 9.09097Z" fill="#3F3F3F"/>
<path d="M12.2242 13.8913C13.1441 13.8913 13.8898 13.1455 13.8898 12.2257C13.8898 11.3058 13.1441 10.5601 12.2242 10.5601C11.3043 10.5601 10.5586 11.3058 10.5586 12.2257C10.5586 13.1455 11.3043 13.8913 12.2242 13.8913Z" fill="#3F3F3F"/>
</g>
<defs>
<linearGradient id="paint0_linear_1803_2386" x1="32.4331" y1="12.1123" x2="0.301823" y2="12.0202" gradientUnits="userSpaceOnUse">
<stop stop-color="#EEEEEE"/>
<stop offset="1" stop-color="#D7D7D7"/>
</linearGradient>
<clipPath id="clip0_1803_2386">
<rect width="24" height="24" fill="white"/>
</clipPath>
</defs>
</svg>
