<svg width="24" height="24" viewBox="0 0 24 24" fill="none" xmlns="http://www.w3.org/2000/svg">
<g clip-path="url(#clip0_1803_2393)">
<path d="M19.0242 0H4.95539C2.21429 0 -0.0078125 2.2221 -0.0078125 4.9632V19.032C-0.0078125 21.7731 2.21429 23.9952 4.95539 23.9952H19.0242C21.7653 23.9952 23.9874 21.7731 23.9874 19.032V4.9632C23.9874 2.2221 21.7653 0 19.0242 0Z" fill="#646464"/>
<path d="M19.0242 0H4.95539C2.21429 0 -0.0078125 2.2221 -0.0078125 4.9632V19.032C-0.0078125 21.7731 2.21429 23.9952 4.95539 23.9952H19.0242C21.7653 23.9952 23.9874 21.7731 23.9874 19.032V4.9632C23.9874 2.2221 21.7653 0 19.0242 0Z" fill="#714620"/>
<path opacity="0.95" d="M23.0488 19.2141V4.78531C23.0488 2.66454 21.3296 0.945313 19.2088 0.945313L4.78003 0.945313C2.65925 0.945313 0.940027 2.66454 0.940027 4.78531V19.2141C0.940027 21.3349 2.65925 23.0541 4.78003 23.0541H19.2088C21.3296 23.0541 23.0488 21.3349 23.0488 19.2141Z" fill="url(#paint0_linear_1803_2393)"/>
<path d="M7.41755 18.6911C8.33744 18.6911 9.08315 17.9453 9.08315 17.0255C9.08315 16.1056 8.33744 15.3599 7.41755 15.3599C6.49767 15.3599 5.75195 16.1056 5.75195 17.0255C5.75195 17.9453 6.49767 18.6911 7.41755 18.6911Z" fill="#3F3F3F"/>
<path d="M17.0191 9.09145C17.939 9.09145 18.6847 8.34574 18.6847 7.42585C18.6847 6.50597 17.939 5.76025 17.0191 5.76025C16.0992 5.76025 15.3535 6.50597 15.3535 7.42585C15.3535 8.34574 16.0992 9.09145 17.0191 9.09145Z" fill="#3F3F3F"/>
<path d="M17.0191 18.6911C17.939 18.6911 18.6847 17.9453 18.6847 17.0255C18.6847 16.1056 17.939 15.3599 17.0191 15.3599C16.0992 15.3599 15.3535 16.1056 15.3535 17.0255C15.3535 17.9453 16.0992 18.6911 17.0191 18.6911Z" fill="#3F3F3F"/>
<path d="M7.41755 9.09145C8.33744 9.09145 9.08315 8.34574 9.08315 7.42585C9.08315 6.50597 8.33744 5.76025 7.41755 5.76025C6.49767 5.76025 5.75195 6.50597 5.75195 7.42585C5.75195 8.34574 6.49767 9.09145 7.41755 9.09145Z" fill="#3F3F3F"/>
</g>
<defs>
<linearGradient id="paint0_linear_1803_2393" x1="32.4195" y1="12.1123" x2="0.288152" y2="12.0202" gradientUnits="userSpaceOnUse">
<stop stop-color="#EEEEEE"/>
<stop offset="1" stop-color="#D7D7D7"/>
</linearGradient>
<clipPath id="clip0_1803_2393">
<rect width="24" height="24" fill="white"/>
</clipPath>
</defs>
</svg>
