<svg width="24" height="24" viewBox="0 0 24 24" fill="none" xmlns="http://www.w3.org/2000/svg">
<path d="M19.0358 0H4.96419C2.22254 0 0 2.22255 0 4.96419V19.0358C0 21.7775 2.22254 24 4.96419 24H19.0358C21.7775 24 24 21.7775 24 19.0358V4.96419C24 2.22255 21.7775 0 19.0358 0Z" fill="#714620"/>
<path opacity="0.95" d="M23.0605 19.2183V4.78657C23.0605 2.66537 21.341 0.945801 19.2198 0.945801L4.78809 0.945801C2.66689 0.945801 0.947323 2.66537 0.947323 4.78657V19.2183C0.947323 21.3395 2.66689 23.059 4.78809 23.059H19.2198C21.341 23.059 23.0605 21.3395 23.0605 19.2183Z" fill="url(#paint0_linear_1803_2424)"/>
<path d="M12.2245 13.8944C13.1446 13.8944 13.8905 13.1485 13.8905 12.2284C13.8905 11.3084 13.1446 10.5625 12.2245 10.5625C11.3045 10.5625 10.5586 11.3084 10.5586 12.2284C10.5586 13.1485 11.3045 13.8944 12.2245 13.8944Z" fill="#BB2C2C"/>
<defs>
<linearGradient id="paint0_linear_1803_2424" x1="32.433" y1="12.115" x2="0.295317" y2="12.0229" gradientUnits="userSpaceOnUse">
<stop stop-color="#EEEEEE"/>
<stop offset="1" stop-color="#D7D7D7"/>
</linearGradient>
</defs>
</svg>
