<svg width="24" height="24" viewBox="0 0 24 24" fill="none" xmlns="http://www.w3.org/2000/svg">
<g clip-path="url(#clip0_1803_2380)">
<path d="M19.0398 0.000488281H4.97101C2.22991 0.000488281 0.0078125 2.22259 0.0078125 4.96369V19.0325C0.0078125 21.7736 2.22991 23.9957 4.97101 23.9957H19.0398C21.7809 23.9957 24.003 21.7736 24.003 19.0325V4.96369C24.003 2.22259 21.7809 0.000488281 19.0398 0.000488281Z" fill="#646464"/>
<path d="M19.0398 0.000488281H4.97101C2.22991 0.000488281 0.0078125 2.22259 0.0078125 4.96369V19.0325C0.0078125 21.7736 2.22991 23.9957 4.97101 23.9957H19.0398C21.7809 23.9957 24.003 21.7736 24.003 19.0325V4.96369C24.003 2.22259 21.7809 0.000488281 19.0398 0.000488281Z" fill="#714620"/>
<path opacity="0.95" d="M23.0625 19.2146V4.7858C23.0625 2.66503 21.3433 0.945801 19.2225 0.945801L4.7937 0.945801C2.67293 0.945801 0.953703 2.66503 0.953703 4.7858V19.2146C0.953703 21.3354 2.67293 23.0546 4.7937 23.0546H19.2225C21.3433 23.0546 23.0625 21.3354 23.0625 19.2146Z" fill="url(#paint0_linear_1803_2380)"/>
<path d="M7.43513 18.6916C8.35502 18.6916 9.10073 17.9458 9.10073 17.026C9.10073 16.1061 8.35502 15.3604 7.43513 15.3604C6.51525 15.3604 5.76953 16.1061 5.76953 17.026C5.76953 17.9458 6.51525 18.6916 7.43513 18.6916Z" fill="#3F3F3F"/>
<path d="M17.0347 9.09194C17.9546 9.09194 18.7003 8.34623 18.7003 7.42634C18.7003 6.50646 17.9546 5.76074 17.0347 5.76074C16.1149 5.76074 15.3691 6.50646 15.3691 7.42634C15.3691 8.34623 16.1149 9.09194 17.0347 9.09194Z" fill="#3F3F3F"/>
</g>
<defs>
<linearGradient id="paint0_linear_1803_2380" x1="32.4331" y1="12.1128" x2="0.301827" y2="12.0207" gradientUnits="userSpaceOnUse">
<stop stop-color="#EEEEEE"/>
<stop offset="1" stop-color="#D7D7D7"/>
</linearGradient>
<clipPath id="clip0_1803_2380">
<rect width="24" height="24" fill="white"/>
</clipPath>
</defs>
</svg>
