<svg width="24" height="24" viewBox="0 0 24 24" fill="none" xmlns="http://www.w3.org/2000/svg">
<g clip-path="url(#clip0_1803_2401)">
<path d="M19.0359 0H4.96711C2.22601 0 0.00390625 2.2221 0.00390625 4.9632V19.032C0.00390625 21.7731 2.22601 23.9952 4.96711 23.9952H19.0359C21.777 23.9952 23.9991 21.7731 23.9991 19.032V4.9632C23.9991 2.2221 21.777 0 19.0359 0Z" fill="#646464"/>
<path d="M19.0359 0H4.96711C2.22601 0 0.00390625 2.2221 0.00390625 4.9632V19.032C0.00390625 21.7731 2.22601 23.9952 4.96711 23.9952H19.0359C21.777 23.9952 23.9991 21.7731 23.9991 19.032V4.9632C23.9991 2.2221 21.777 0 19.0359 0Z" fill="#714620"/>
<path opacity="0.95" d="M23.0605 19.2141V4.78531C23.0605 2.66454 21.3413 0.945313 19.2205 0.945313L4.79175 0.945313C2.67097 0.945313 0.951746 2.66454 0.951746 4.78531V19.2141C0.951746 21.3349 2.67097 23.0541 4.79175 23.0541H19.2205C21.3413 23.0541 23.0605 21.3349 23.0605 19.2141Z" fill="url(#paint0_linear_1803_2401)"/>
<path d="M7.42927 18.6911C8.34916 18.6911 9.09487 17.9453 9.09487 17.0255C9.09487 16.1056 8.34916 15.3599 7.42927 15.3599C6.50939 15.3599 5.76367 16.1056 5.76367 17.0255C5.76367 17.9453 6.50939 18.6911 7.42927 18.6911Z" fill="#3F3F3F"/>
<path d="M17.0308 9.09145C17.9507 9.09145 18.6964 8.34574 18.6964 7.42585C18.6964 6.50597 17.9507 5.76025 17.0308 5.76025C16.1109 5.76025 15.3652 6.50597 15.3652 7.42585C15.3652 8.34574 16.1109 9.09145 17.0308 9.09145Z" fill="#3F3F3F"/>
<path d="M17.0308 18.6911C17.9507 18.6911 18.6964 17.9453 18.6964 17.0255C18.6964 16.1056 17.9507 15.3599 17.0308 15.3599C16.1109 15.3599 15.3652 16.1056 15.3652 17.0255C15.3652 17.9453 16.1109 18.6911 17.0308 18.6911Z" fill="#3F3F3F"/>
<path d="M12.2222 13.8913C13.1421 13.8913 13.8878 13.1455 13.8878 12.2257C13.8878 11.3058 13.1421 10.5601 12.2222 10.5601C11.3024 10.5601 10.5566 11.3058 10.5566 12.2257C10.5566 13.1455 11.3024 13.8913 12.2222 13.8913Z" fill="#3F3F3F"/>
<path d="M7.42927 9.09145C8.34916 9.09145 9.09487 8.34574 9.09487 7.42585C9.09487 6.50597 8.34916 5.76025 7.42927 5.76025C6.50939 5.76025 5.76367 6.50597 5.76367 7.42585C5.76367 8.34574 6.50939 9.09145 7.42927 9.09145Z" fill="#3F3F3F"/>
</g>
<defs>
<linearGradient id="paint0_linear_1803_2401" x1="32.4312" y1="12.1123" x2="0.29987" y2="12.0202" gradientUnits="userSpaceOnUse">
<stop stop-color="#EEEEEE"/>
<stop offset="1" stop-color="#D7D7D7"/>
</linearGradient>
<clipPath id="clip0_1803_2401">
<rect width="24" height="24" fill="white"/>
</clipPath>
</defs>
</svg>
