<svg width="24" height="24" viewBox="0 0 24 24" fill="none" xmlns="http://www.w3.org/2000/svg">
<g clip-path="url(#clip0_1803_2410)">
<path d="M19.034 0H4.96515C2.22405 0 0.00195312 2.2221 0.00195312 4.9632V19.032C0.00195312 21.7731 2.22405 23.9952 4.96515 23.9952H19.034C21.7751 23.9952 23.9972 21.7731 23.9972 19.032V4.9632C23.9972 2.2221 21.7751 0 19.034 0Z" fill="#646464"/>
<path d="M19.034 0H4.96515C2.22405 0 0.00195312 2.2221 0.00195312 4.9632V19.032C0.00195312 21.7731 2.22405 23.9952 4.96515 23.9952H19.034C21.7751 23.9952 23.9972 21.7731 23.9972 19.032V4.9632C23.9972 2.2221 21.7751 0 19.034 0Z" fill="#714620"/>
<path opacity="0.95" d="M23.0586 19.2141V4.78531C23.0586 2.66454 21.3394 0.945313 19.2186 0.945313L4.78979 0.945313C2.66902 0.945313 0.949793 2.66454 0.949793 4.78531V19.2141C0.949793 21.3349 2.66902 23.0541 4.78979 23.0541H19.2186C21.3394 23.0541 23.0586 21.3349 23.0586 19.2141Z" fill="url(#paint0_linear_1803_2410)"/>
<path d="M7.42732 18.6911C8.3472 18.6911 9.09292 17.9453 9.09292 17.0255C9.09292 16.1056 8.3472 15.3599 7.42732 15.3599C6.50743 15.3599 5.76172 16.1056 5.76172 17.0255C5.76172 17.9453 6.50743 18.6911 7.42732 18.6911Z" fill="#3F3F3F"/>
<path d="M17.0289 9.09097C17.9488 9.09097 18.6945 8.34525 18.6945 7.42537C18.6945 6.50548 17.9488 5.75977 17.0289 5.75977C16.109 5.75977 15.3633 6.50548 15.3633 7.42537C15.3633 8.34525 16.109 9.09097 17.0289 9.09097Z" fill="#3F3F3F"/>
<path d="M17.0289 18.6911C17.9488 18.6911 18.6945 17.9453 18.6945 17.0255C18.6945 16.1056 17.9488 15.3599 17.0289 15.3599C16.109 15.3599 15.3633 16.1056 15.3633 17.0255C15.3633 17.9453 16.109 18.6911 17.0289 18.6911Z" fill="#3F3F3F"/>
<path d="M17.0289 13.8913C17.9488 13.8913 18.6945 13.1455 18.6945 12.2257C18.6945 11.3058 17.9488 10.5601 17.0289 10.5601C16.109 10.5601 15.3633 11.3058 15.3633 12.2257C15.3633 13.1455 16.109 13.8913 17.0289 13.8913Z" fill="#3F3F3F"/>
<path d="M7.42732 13.8913C8.3472 13.8913 9.09292 13.1455 9.09292 12.2257C9.09292 11.3058 8.3472 10.5601 7.42732 10.5601C6.50743 10.5601 5.76172 11.3058 5.76172 12.2257C5.76172 13.1455 6.50743 13.8913 7.42732 13.8913Z" fill="#3F3F3F"/>
<path d="M7.42732 9.09097C8.3472 9.09097 9.09292 8.34525 9.09292 7.42537C9.09292 6.50548 8.3472 5.75977 7.42732 5.75977C6.50743 5.75977 5.76172 6.50548 5.76172 7.42537C5.76172 8.34525 6.50743 9.09097 7.42732 9.09097Z" fill="#3F3F3F"/>
</g>
<defs>
<linearGradient id="paint0_linear_1803_2410" x1="32.4292" y1="12.1123" x2="0.297917" y2="12.0202" gradientUnits="userSpaceOnUse">
<stop stop-color="#EEEEEE"/>
<stop offset="1" stop-color="#D7D7D7"/>
</linearGradient>
<clipPath id="clip0_1803_2410">
<rect width="24" height="24" fill="white"/>
</clipPath>
</defs>
</svg>
