<svg width="50" height="50" viewBox="0 0 50 50" fill="none" xmlns="http://www.w3.org/2000/svg">
<g clip-path="url(#clip0_2013_1650)">
<path d="M39.65 0H10.34C4.62938 0 0 4.62938 0 10.34V39.65C0 45.3606 4.62938 49.99 10.34 49.99H39.65C45.3606 49.99 49.99 45.3606 49.99 39.65V10.34C49.99 4.62938 45.3606 0 39.65 0Z" fill="#646464"/>
<path d="M39.65 0H10.34C4.62938 0 0 4.62938 0 10.34V39.65C0 45.3606 4.62938 49.99 10.34 49.99H39.65C45.3606 49.99 49.99 45.3606 49.99 39.65V10.34C49.99 4.62938 45.3606 0 39.65 0Z" fill="#714620"/>
<path opacity="0.95" d="M48.0293 40.0297V9.96973C48.0293 5.55145 44.4476 1.96973 40.0293 1.96973L9.9693 1.96973C5.55102 1.96973 1.9693 5.55145 1.9693 9.96973V40.0297C1.9693 44.448 5.55102 48.0297 9.9693 48.0297H40.0293C44.4476 48.0297 48.0293 44.448 48.0293 40.0297Z" fill="url(#paint0_linear_2013_1650)"/>
<path d="M25.47 28.94C27.3864 28.94 28.94 27.3864 28.94 25.47C28.94 23.5536 27.3864 22 25.47 22C23.5536 22 22 23.5536 22 25.47C22 27.3864 23.5536 28.94 25.47 28.94Z" fill="#DEDCDA"/>
</g>
<defs>
<linearGradient id="paint0_linear_2013_1650" x1="67.5514" y1="25.2343" x2="0.611221" y2="25.0425" gradientUnits="userSpaceOnUse">
<stop stop-color="#120C05"/>
<stop offset="1" stop-color="#2D1E0D"/>
</linearGradient>
<clipPath id="clip0_2013_1650">
<rect width="50" height="50" fill="white"/>
</clipPath>
</defs>
</svg>
