<svg width="50" height="50" viewBox="0 0 50 50" fill="none" xmlns="http://www.w3.org/2000/svg">
<g clip-path="url(#clip0_2013_1676)">
<path d="M39.65 0H10.34C4.62938 0 0 4.62938 0 10.34V39.65C0 45.3606 4.62938 49.99 10.34 49.99H39.65C45.3606 49.99 49.99 45.3606 49.99 39.65V10.34C49.99 4.62938 45.3606 0 39.65 0Z" fill="#646464"/>
<path d="M39.65 0H10.34C4.62938 0 0 4.62938 0 10.34V39.65C0 45.3606 4.62938 49.99 10.34 49.99H39.65C45.3606 49.99 49.99 45.3606 49.99 39.65V10.34C49.99 4.62938 45.3606 0 39.65 0Z" fill="#714620"/>
<path opacity="0.95" d="M48.0293 40.0297V9.96973C48.0293 5.55145 44.4476 1.96973 40.0293 1.96973L9.9693 1.96973C5.55102 1.96973 1.9693 5.55145 1.9693 9.96973V40.0297C1.9693 44.448 5.55102 48.0297 9.9693 48.0297H40.0293C44.4476 48.0297 48.0293 44.448 48.0293 40.0297Z" fill="url(#paint0_linear_2013_1676)"/>
<path d="M15.47 38.94C17.3864 38.94 18.94 37.3864 18.94 35.47C18.94 33.5536 17.3864 32 15.47 32C13.5536 32 12 33.5536 12 35.47C12 37.3864 13.5536 38.94 15.47 38.94Z" fill="#DEDCDA"/>
<path d="M35.47 18.94C37.3864 18.94 38.94 17.3864 38.94 15.47C38.94 13.5536 37.3864 12 35.47 12C33.5536 12 32 13.5536 32 15.47C32 17.3864 33.5536 18.94 35.47 18.94Z" fill="#DEDCDA"/>
<path d="M35.47 38.94C37.3864 38.94 38.94 37.3864 38.94 35.47C38.94 33.5536 37.3864 32 35.47 32C33.5536 32 32 33.5536 32 35.47C32 37.3864 33.5536 38.94 35.47 38.94Z" fill="#DEDCDA"/>
<path d="M35.47 28.94C37.3864 28.94 38.94 27.3864 38.94 25.47C38.94 23.5536 37.3864 22 35.47 22C33.5536 22 32 23.5536 32 25.47C32 27.3864 33.5536 28.94 35.47 28.94Z" fill="#DEDCDA"/>
<path d="M15.47 28.94C17.3864 28.94 18.94 27.3864 18.94 25.47C18.94 23.5536 17.3864 22 15.47 22C13.5536 22 12 23.5536 12 25.47C12 27.3864 13.5536 28.94 15.47 28.94Z" fill="#DEDCDA"/>
<path d="M15.47 18.94C17.3864 18.94 18.94 17.3864 18.94 15.47C18.94 13.5536 17.3864 12 15.47 12C13.5536 12 12 13.5536 12 15.47C12 17.3864 13.5536 18.94 15.47 18.94Z" fill="#DEDCDA"/>
</g>
<defs>
<linearGradient id="paint0_linear_2013_1676" x1="67.5514" y1="25.2343" x2="0.611221" y2="25.0425" gradientUnits="userSpaceOnUse">
<stop stop-color="#120C05"/>
<stop offset="1" stop-color="#2D1E0D"/>
</linearGradient>
<clipPath id="clip0_2013_1676">
<rect width="50" height="50" fill="white"/>
</clipPath>
</defs>
</svg>
